<?xml version="1.0" encoding="UTF-8" standalone="no"?>
<svg
   xmlns:dc="http://purl.org/dc/elements/1.1/"
   xmlns:cc="http://creativecommons.org/ns#"
   xmlns:rdf="http://www.w3.org/1999/02/22-rdf-syntax-ns#"
   xmlns:svg="http://www.w3.org/2000/svg"
   xmlns="http://www.w3.org/2000/svg"
   xmlns:sodipodi="http://sodipodi.sourceforge.net/DTD/sodipodi-0.dtd"
   xmlns:inkscape="http://www.inkscape.org/namespaces/inkscape"
   id="svg2"
   sodipodi:version="0.32"
   inkscape:version="0.48.5 r10040"
   viewBox="0 0 750 520"
   preserveAspectRatio="xMidYMid meet"
   version="1.2"
   sodipodi:docname="kamchatka.svg"
   inkscape:output_extension="org.inkscape.output.svg.inkscape"
   inkscape:export-filename="/home/kris/worldmap.png"
   inkscape:export-xdpi="90"
   inkscape:export-ydpi="90"
   style="enable-background:new"
   enable-background="new"
   width="100%"
   height="100%">
  <metadata
     id="metadata3188">
    <rdf:RDF>
      <cc:Work
         rdf:about="">
        <dc:format>image/svg+xml</dc:format>
        <dc:type
           rdf:resource="http://purl.org/dc/dcmitype/StillImage" />
        <dc:title></dc:title>
      </cc:Work>
    </rdf:RDF>
  </metadata>
  <defs
     id="defs3186" />
  <sodipodi:namedview
     pagecolor="#ffffff"
     bordercolor="#666666"
     borderopacity="1"
     objecttolerance="10"
     gridtolerance="10"
     guidetolerance="10"
     inkscape:pageopacity="0"
     inkscape:pageshadow="2"
     inkscape:window-width="1278"
     inkscape:window-height="726"
     id="namedview3184"
     showgrid="false"
     inkscape:zoom="0.45384615"
     inkscape:cx="969.84328"
     inkscape:cy="348.13559"
     inkscape:window-x="0"
     inkscape:window-y="24"
     inkscape:window-maximized="1"
     inkscape:current-layer="svg2" />
  <filter
     inkscape:collect="always"
     id="filter12871">
    <feGaussianBlur
       inkscape:collect="always"
       stdDeviation="0.5805759"
       id="feGaussianBlur12873" />
  </filter>
  <path
     style="fill:#a52a2a;fill-opacity:1;fill-rule:evenodd;stroke:#000000;stroke-width:1.20000005;stroke-linecap:butt;stroke-linejoin:miter;stroke-miterlimit:4.32165003;stroke-opacity:0.58527132;stroke-dasharray:none;stroke-dashoffset:0;display:inline;filter:url(#filter12871)"
     d="M 707.6087,296.80435 707.5,296.58696 c -0.65217,-0.54348 -0.86956,-1.73913 -1.73913,-2.17392 -0.86956,-0.43478 -1.19565,-0.43478 -1.30435,-1.30435 -0.10869,-0.86956 -0.43478,-2.17391 -0.43478,-2.17391 0,0 -1.08696,-1.63043 -1.63043,-1.63043 -0.54348,0 -2.7174,0.54348 -3.15218,0.21739 -0.43478,-0.32609 -2.5,-0.1087 -3.26087,-0.76087 -0.76087,-0.65218 -0.86956,-1.19565 -1.84782,-0.76087 -0.97826,0.43478 -2.7174,0.54348 -2.7174,0.54348 l -1.63043,-1.08696 c 0,0 -0.86957,-0.32609 -1.73913,-0.86956 -0.86957,-0.54348 -0.97826,-1.84783 -1.30435,-2.39131 -0.32609,-0.54348 -0.97826,-1.41304 -1.41304,-1.73913 -0.43478,-0.32609 -0.86957,-0.97826 -1.41305,-1.52174 -0.54347,-0.54348 -1.19565,-0.86956 -1.95652,-1.08695 -0.76087,-0.2174 -1.41304,-0.32609 -1.63043,-0.97827 -0.21739,-0.65217 0,-1.19565 -0.43478,-1.30434 -0.43479,-0.1087 -1.52174,-0.54348 -1.52174,-0.54348 0,0 -0.1087,-1.52174 -0.65218,-1.84783 -0.54348,-0.32608 -1.63043,-1.19565 -2.28261,-1.52174 -0.65217,-0.32608 -1.41304,-0.43478 -1.63043,-1.30434 -0.21739,-0.86957 -0.54348,-1.19566 -0.54348,-1.19566 0,0 -1.30435,-0.86956 -1.52174,-1.41304 -0.21739,-0.54348 -0.86956,-1.63044 -0.86956,-1.63044 l -1.41305,-1.52173 -1.63043,-0.54348 -2.03214,-0.12841 -0.54734,0.47688 c -1.06066,0.53033 -0.52705,0.46136 -1.41093,0.81491 -0.88389,0.35355 -4.06587,0.35355 -4.24265,1.59099 -0.17677,1.23744 -0.35355,1.59099 -1.06066,3.00521 -0.7071,1.41421 -0.88388,1.76776 -1.76776,1.94454 -0.88389,0.17678 -1.23744,0 -2.12132,-0.17678 -0.88389,-0.17677 -2.47488,-0.88388 -2.47488,-0.88388 l -1.41421,-0.17678 -1.23744,-1.23743 c 0,0 -0.7071,0.53033 -1.41421,0.88388 -0.70711,0.35355 -2.2981,1.76777 -2.2981,1.76777 0,0 -2.47487,0.7071 -3.18198,0.7071 -0.70711,0 -0.70711,-0.17677 -1.41421,0 -0.70711,0.17678 -1.94455,0 -2.47488,0.70711 -0.53033,0.70711 0.70711,1.41421 -1.94454,1.59099 -2.65165,0.17678 -2.65165,0.17678 -3.35876,0.17678 -0.7071,0 -1.94454,3.71231 -1.94454,3.71231 0,0 1.41421,1.23743 0.35355,1.59099 -1.06066,0.35355 -1.76776,1.41421 -2.29809,2.12132 -0.53033,0.7071 -0.88389,1.23743 -0.70711,2.12132 0.17678,0.88388 0,1.41421 0.35355,2.47487 0.35356,1.06066 1.23744,3.18198 1.23744,3.18198 0,0 0.70711,0.35356 0.53033,1.41422 -0.17678,1.06066 -0.70711,1.59099 -0.17678,2.47487 0.53033,0.88388 1.59099,1.23744 1.59099,1.23744 l 1.06066,1.41421 c 0,0 1.41422,-0.35355 1.41422,0.88388 0,1.23744 0.17677,1.76777 0.35355,3.18198 0,0 1.02148,1.39898 1.72858,0.86865 0.70711,-0.53033 1.94455,-1.41422 1.94455,-2.47488 0,-1.06066 -0.17678,-1.41421 0.7071,-1.59099 0.88389,-0.17677 1.41422,-0.17677 2.2981,-0.53033 0.88388,-0.35355 0.53033,-0.35355 1.59099,-0.35355 1.06066,0 0.88388,-0.53033 1.41421,0.53033 0.53033,1.06066 -0.17677,0.35355 0.17678,1.94454 0.35355,1.59099 0.53033,1.41422 0.70711,2.47488 0.17677,1.06066 0,0.70711 -0.35356,2.12132 -0.35355,1.41421 -0.35355,1.59099 -1.23743,1.94454 -0.88389,0.35356 -2.65165,1.23744 -2.82843,2.65165 -0.17678,1.41422 0,-0.35355 0.17678,1.94455 0.17677,2.29809 0.17677,3.0052 0.88388,3.35875 0.70711,0.35356 0.88388,0.17678 0.88388,1.23744 0,1.06066 -0.53033,1.41421 0.70711,1.59099 1.23744,0.17678 2.12132,-0.17678 2.12132,-0.17678 0,0 2.2981,0.35356 1.76777,1.76777 -0.53033,1.41421 -1.59099,0.53033 -0.88389,2.12132 0.70711,1.59099 0.88389,0.35355 1.06066,2.12132 0.17678,1.76777 -0.53033,2.2981 0.35356,2.2981 0.88388,0 2.47487,0.70711 2.47487,0.70711 l 0.17678,2.29809 0.35355,1.41422 c 0,0 -2.2981,-0.88389 -1.94454,0.7071 0.35355,1.59099 0.70711,1.59099 0.70711,1.59099 0,0 2.29809,-0.17677 2.29809,1.41422 0,1.59099 -0.35355,2.12132 -0.17677,3.0052 0.17677,0.88388 1.06066,0.17678 0.88388,1.41421 0,0 -0.14641,1.94436 0.7775,2.48784 0.92392,0.54348 1.84783,0.59782 2.28261,0.43478 0.43478,-0.16304 1.25,-1.57609 2.11957,-1.52174 0.86956,0.0543 1.41304,-0.38043 2.01087,0.16304 0.59782,0.54348 1.19565,0.43479 1.73913,0.54348 0.54347,0.1087 0.92391,0.27174 1.68478,1.03261 0.76087,0.76087 1.08696,1.25 1.25,1.52174 0.16304,0.27174 0.16304,1.03261 0.54348,1.57609 0.38043,0.54348 1.25,0.70652 1.52174,0.76087 0.27174,0.0543 1.90217,-0.16305 2.3913,0.21739 0.48913,0.38043 1.68478,2.01087 1.79348,2.44565 0.10869,0.43478 1.30435,0.86957 1.30435,0.86957 0,0 2.71739,-0.32609 3.15217,-1.52174 0.43478,-1.19566 2.71739,-2.7174 2.71739,-3.47826 0,-0.76087 0,-1.95653 0.54348,-2.06522 0.54348,-0.1087 2.82609,-0.86957 3.58696,-0.76087 0.76087,0.10869 2.28261,0.43478 2.71739,-0.54348 0.43478,-0.97826 0.32608,-3.80435 1.84782,-3.91304 1.52174,-0.1087 2.39131,-0.97826 3.36957,0 0.97826,0.97826 3.69565,2.5 3.69565,2.5 0,0 3.69565,0.54347 4.89131,-0.76087 1.19565,-1.30435 2.2826,-2.93479 2.2826,-3.80435 0,-0.86957 0.32609,-1.19565 0.32609,-2.17391 0,-0.97826 -0.86956,-3.69566 -0.86956,-3.69566 0,0 -0.76087,-1.19565 -1.41305,-1.41304 -0.65217,-0.21739 -1.63043,-1.30435 -1.63043,-1.30435 0,0 -0.76087,-2.06521 -0.76087,-2.93478 0,-0.86957 0.43478,-4.45652 0.97826,-4.56522 0.54348,-0.10869 2.06522,-1.08695 2.93478,-1.08695 0.86957,0 2.28261,0.10869 2.71739,-0.2174 0.43479,-0.32608 1.19566,-4.45652 1.63044,-5.54347 0.43478,-1.08696 0.65217,-1.95653 1.41304,-1.84783 0.76087,0.1087 2.17391,0 2.06522,-1.84783 -0.1087,-1.84782 -0.32609,-5.43478 -1.08696,-6.63043 -0.76087,-1.19565 -1.30435,-1.41304 -0.86956,-2.5 0.43478,-1.08696 0.97826,-1.41304 0.97826,-1.41304 l -0.21739,-1.52174 z"
     id="afghanistan"
     sodipodi:nodetypes="csssssssssssssssssssssssssssssssssssssscsssssssssssssssscsssssssssscssccsscssccssccssssc"
     inkscape:connector-curvature="0"
     transform="matrix(4.6619411,0,0,4.0476194,-2911.7507,-1047.5864)" />
</svg>
