<?xml version="1.0" encoding="UTF-8" standalone="no"?>
<svg
   xmlns:dc="http://purl.org/dc/elements/1.1/"
   xmlns:cc="http://creativecommons.org/ns#"
   xmlns:rdf="http://www.w3.org/1999/02/22-rdf-syntax-ns#"
   xmlns:svg="http://www.w3.org/2000/svg"
   xmlns="http://www.w3.org/2000/svg"
   xmlns:sodipodi="http://sodipodi.sourceforge.net/DTD/sodipodi-0.dtd"
   xmlns:inkscape="http://www.inkscape.org/namespaces/inkscape"
   id="svg2"
   sodipodi:version="0.32"
   inkscape:version="0.48.5 r10040"
   viewBox="0 0 750 520"
   preserveAspectRatio="xMidYMid meet"
   version="1.2"
   sodipodi:docname="alaska.svg"
   inkscape:output_extension="org.inkscape.output.svg.inkscape"
   inkscape:export-filename="/home/kris/worldmap.png"
   inkscape:export-xdpi="90"
   inkscape:export-ydpi="90"
   style="enable-background:new"
   enable-background="new"
   width="100%"
   height="100%">
  <metadata
     id="metadata3188">
    <rdf:RDF>
      <cc:Work
         rdf:about="">
        <dc:format>image/svg+xml</dc:format>
        <dc:type
           rdf:resource="http://purl.org/dc/dcmitype/StillImage" />
      </cc:Work>
    </rdf:RDF>
  </metadata>
  <defs
     id="defs3186" />
  <sodipodi:namedview
     pagecolor="#ffffff"
     bordercolor="#666666"
     borderopacity="1"
     objecttolerance="10"
     gridtolerance="10"
     guidetolerance="10"
     inkscape:pageopacity="0"
     inkscape:pageshadow="2"
     inkscape:window-width="1278"
     inkscape:window-height="726"
     id="namedview3184"
     showgrid="false"
     inkscape:zoom="0.45384615"
     inkscape:cx="375"
     inkscape:cy="260"
     inkscape:window-x="0"
     inkscape:window-y="24"
     inkscape:window-maximized="1"
     inkscape:current-layer="svg2" />
  <filter
     inkscape:collect="always"
     id="filter12871">
    <feGaussianBlur
       inkscape:collect="always"
       stdDeviation="0.5805759"
       id="feGaussianBlur12873" />
  </filter>
  <path
     style="fill:#ffff00;fill-opacity:1;fill-rule:evenodd;stroke:#000000;stroke-width:1.20000005;stroke-linecap:butt;stroke-linejoin:miter;stroke-miterlimit:4.32165003;stroke-opacity:0.58527132;stroke-dasharray:none;stroke-dashoffset:0;display:inline;filter:url(#filter12871)"
     d="m 404.33051,288.52119 c -0.625,-1.25 -0.5,0.125 -0.875,-2 -0.375,-2.125 -1.125,-1.875 -1.75,-2.5 -0.625,-0.625 -1.5,-0.75 -1.125,-1.875 0.375,-1.125 0.625,-1.125 0.25,-2.25 -0.375,-1.125 -2,-1.75 -2.5,-2.875 -0.5,-1.125 -0.5,-0.25 -0.5,-2 0,-1.75 0.5,-2 -1,-2.5 -1.5,-0.5 -2.5,0.75 -3.25,-0.875 -0.75,-1.625 -0.625,-0.75 -2.125,-1 -1.5,-0.25 -2.125,-0.125 -2.625,-1.125 -0.5,-1 -0.75,-1.875 -1.75,-1.875 -1,0 -2.25,-0.375 -2.5,-1 -0.25,-0.625 -1.625,-2.375 -2.5,-2.375 -0.875,0 -0.625,0.625 -2,1.25 -1.375,0.625 2.5,1.25 -0.5,2 -3,0.75 -4.375,1 -5,0.5 -0.625,-0.5 -2.875,1.125 -2.5,-0.75 0.375,-1.875 0.5,-1.625 1.125,-2.125 0.625,-0.5 2.375,-0.625 1.625,-1.125 -0.75,-0.5 -0.375,-1.375 -3,-0.75 -2.625,0.625 -3.375,0.875 -4.25,1.5 -0.875,0.625 -0.875,1.875 -1.25,2.625 -0.375,0.75 1.125,0.5 -1.75,1.75 -2.875,1.25 -1.375,-0.625 -4.375,2 -3,2.625 -2,2.875 -4.25,3.25 -2.25,0.375 -0.875,0 -2.625,1.875 -1.75,1.875 -1.5,2.75 -3.25,2.75 -1.75,0 -1.125,3.125 -2.75,1 -1.625,-2.125 -2.75,-1.25 -1.5,-2.25 1.25,-1 1.5,-0.75 2.5,-1 1,-0.25 0.5,0.375 1.625,-1.25 1.125,-1.625 0.875,-2.25 2.625,-2.375 1.75,-0.125 1.5,1.5 2.25,-0.875 0.75,-2.375 0,-2.25 1.375,-3.5 1.375,-1.25 2.875,-2.5 1.125,-2.625 -1.75,-0.125 -1.875,-0.5 -3.5,0.25 -1.625,0.75 -1.75,1.125 -3.25,0.875 -1.5,-0.25 -1.875,-0.375 -1.875,-1 0,-0.625 -0.625,-2.625 -0.625,-2.625 0,0 1.25,-0.625 -0.875,-1.125 -2.125,-0.5 -2.25,1.125 -2.125,-0.5 0.125,-1.625 1.125,-1.375 0.25,-2.125 -0.875,-0.75 -1.125,-1.25 -2.25,-0.75 -1.125,0.5 -2.375,1.75 -1.625,-0.125 0.75,-1.875 2.25,-2.625 2.75,-3.375 0.5,-0.75 1.25,-2.875 1.5,-4 0.25,-1.125 -1,-0.5 0.5,-1.625 1.5,-1.125 0.875,-1.375 2.75,-1.25 1.875,0.125 1.375,0 2.625,0.625 1.25,0.625 1.625,1 2.375,0.625 0.75,-0.375 1.5,-1.25 2,-1.875 0.5,-0.625 1.125,-1 1.25,-1.75 0.125,-0.75 0.75,-1.5 -0.625,-1 -1.375,0.5 -0.875,0.5 -2.75,0.875 -1.875,0.375 -1.625,1.75 -2.375,0.125 -0.75,-1.625 -0.875,-2.375 -0.875,-2.375 0,0 -0.75,0 -0.625,-1.75 0.125,-1.75 -1.125,-4.625 2.25,-5.5 3.375,-0.875 5.5,-0.125 5.625,0.375 0.125,0.5 -1,1 0.5,1.125 1.5,0.125 1.625,0.5 2.5,-0.75 0.875,-1.25 1.875,-1.125 0.875,-1.625 -1,-0.5 -1.875,-0.375 -2.375,-1.375 -0.5,-1 0,-1.25 -0.5,-2.625 -0.5,-1.375 -0.5,-1.625 -1.25,-2.625 -0.75,-1 -2.75,-2.5 -0.25,-3.125 2.5,-0.625 5.125,-1.25 4.63203,-0.89495 0,0 2.82843,-3.18198 4.5962,-2.82843 1.76777,0.35356 3.88909,0 5.65685,-1.41421 1.76777,-1.41421 4.5962,-0.70711 4.5962,-0.70711 l 2.12132,1.76777 c 0,0 2.82842,2.82843 4.59619,1.76777 1.76777,-1.06066 1.76777,1.76776 4.94975,2.12132 3.18198,0.35355 4.59619,1.06066 7.77817,2.12132 0,0 0.88389,-0.35356 0.70711,0.88388 -0.17678,1.23744 -1.94454,30.58237 -1.41421,30.93592 l 0.1519,0.2446 7.5,0.875 c 0,0 0.125,0.125 0.625,1.625 0.5,1.5 0.875,2.5 2,4.5 1.125,2 0.125,8 0.125,8 l 2,2.75 c 0,0 1.625,0.75 2.25,0.875 0.625,0.125 0.375,3.25 0.25,4.5 -0.125,1.25 -1.625,0.625 -2.5,0.875 -0.875,0.25 -1.125,2.375 -1.25,3.625 -0.125,1.25 -2.37151,0.75212 -2.37151,0.75212 z"
     id="alaska"
     sodipodi:nodetypes="csssssssssssssssssssssssssssssssssssssscsssssssssssssssscsssssssssscssccsscssccssccssssc"
     inkscape:connector-curvature="0"
     transform="matrix(6.7139389,0,0,5.7958,-2275.7696,-1261.7811)" />
  <text
     xml:space="preserve"
     style="font-size:114.13677957000000163px;font-style:normal;font-weight:bold;line-height:125%;letter-spacing:0px;word-spacing:0px;fill:#800000;fill-opacity:1;stroke:none;display:inline;enable-background:new;font-family:Latin Modern Mono;-inkscape-font-specification:Latin Modern Mono Bold;font-stretch:normal;font-variant:normal;text-anchor:start;text-align:start;writing-mode:lr"
     x="44.859447"
     y="498.67758"
     id="alaska_text"
     sodipodi:linespacing="125%"
     inkscape:label="alaska"
     transform="scale(0.98499838,1.0152301)"><tspan
       sodipodi:role="line"
       id="tspan7513-9-323"
       x="44.859447"
       y="498.67758"
       style="font-size:114.13677957000000163px;font-family:Latin Modern Mono;-inkscape-font-specification:Latin Modern Mono Bold;font-weight:bold;font-style:normal;font-stretch:normal;font-variant:normal;text-anchor:start;text-align:start;writing-mode:lr;line-height:125%;fill:#800000">ALASKA</tspan></text>
</svg>
