<?xml version="1.0" encoding="UTF-8" standalone="no"?>
<svg
   xmlns:dc="http://purl.org/dc/elements/1.1/"
   xmlns:cc="http://creativecommons.org/ns#"
   xmlns:rdf="http://www.w3.org/1999/02/22-rdf-syntax-ns#"
   xmlns:svg="http://www.w3.org/2000/svg"
   xmlns="http://www.w3.org/2000/svg"
   xmlns:sodipodi="http://sodipodi.sourceforge.net/DTD/sodipodi-0.dtd"
   xmlns:inkscape="http://www.inkscape.org/namespaces/inkscape"
   id="svg2"
   sodipodi:version="0.32"
   inkscape:version="0.48.5 r10040"
   viewBox="0 0 750 520"
   preserveAspectRatio="xMidYMid meet"
   version="1.2"
   sodipodi:docname="argentina.svg"
   inkscape:output_extension="org.inkscape.output.svg.inkscape"
   inkscape:export-filename="/home/kris/worldmap.png"
   inkscape:export-xdpi="90"
   inkscape:export-ydpi="90"
   style="enable-background:new"
   enable-background="new"
   width="100%"
   height="100%">
  <metadata
     id="metadata3188">
    <rdf:RDF>
      <cc:Work
         rdf:about="">
        <dc:format>image/svg+xml</dc:format>
        <dc:type
           rdf:resource="http://purl.org/dc/dcmitype/StillImage" />
        <dc:title />
      </cc:Work>
    </rdf:RDF>
  </metadata>
  <defs
     id="defs3186" />
  <sodipodi:namedview
     pagecolor="#ffffff"
     bordercolor="#666666"
     borderopacity="1"
     objecttolerance="10"
     gridtolerance="10"
     guidetolerance="10"
     inkscape:pageopacity="0"
     inkscape:pageshadow="2"
     inkscape:window-width="1278"
     inkscape:window-height="726"
     id="namedview3184"
     showgrid="false"
     inkscape:zoom="0.45384615"
     inkscape:cx="375"
     inkscape:cy="348.13559"
     inkscape:window-x="0"
     inkscape:window-y="24"
     inkscape:window-maximized="1"
     inkscape:current-layer="svg2" />
  <filter
     inkscape:collect="always"
     id="filter12871">
    <feGaussianBlur
       inkscape:collect="always"
       stdDeviation="0.5805759"
       id="feGaussianBlur12873" />
  </filter>
  <path
     style="fill:red;fill-opacity:1;fill-rule:evenodd;stroke:#000000;stroke-width:1.20000005;stroke-linecap:butt;stroke-linejoin:miter;stroke-miterlimit:4.32165003;stroke-opacity:0.58527132;stroke-dasharray:none;stroke-dashoffset:0;display:inline;filter:url(#filter12871)"
     d="m 396.25,495.5 c 0.125,1.75 0.25,3 -0.375,3.125 -0.625,0.125 -1.875,1.25 -2,3 -0.125,1.75 -3.375,2.625 -3.375,2.625 0,0 -2.125,1.5 -1.875,2.5 0.25,1 5,0.25 5,0.875 0,0.625 -0.75,5.125 -0.25,5.25 0.5,0.125 3.75,-1 4.25,-0.375 0.5,0.625 -0.625,4.5 -0.375,4.875 0.25,0.375 3.125,2.5 3.78125,1.90625 C 399.625,519.625 396.375,521.125 397,522 c 0.625,0.875 1.5,1.125 0,1.5 -1.5,0.375 -1.25,0.25 -2.75,0.5 -1.5,0.25 -1.25,0.125 -2.875,0.5 -1.625,0.375 -1.875,0.875 -2.875,1 -1,0.125 -1.5,-0.125 -2.125,-0.125 -0.625,0 -1.125,0 -1.125,0.625 0,0.625 -0.125,0.75 0.5,1.25 0.625,0.5 2.375,1 2.5,1.5 0.125,0.5 0.125,0.875 0.125,1.75 0,0.875 0.125,1 0.625,1.125 0.5,0.125 0.625,0.25 0.75,0.75 0.125,0.5 -1.25,2.25 -2,2.75 -0.75,0.5 -1.375,1.125 -3.125,1.25 -1.75,0.125 -1.375,-0.125 -2.5,0.5 -1.125,0.625 -1.125,0.75 -2.375,0.75 -1.25,0 -1.625,0 -2.875,0.25 -1.25,0.25 -2.125,0.5 -2.125,0.5 0,0 0.5,0.75 0.625,1.5 0.125,0.75 0.75,0.875 0.25,2 -0.5,1.125 -1.375,1.625 -1.75,2.125 -0.375,0.5 -0.375,0.25 -0.375,1.25 l -2.625,0.375 c 0,0 -0.875,-0.75 -1.125,0.375 -0.25,1.125 1,2.125 1,2.125 0,0 -1.75,2.625 -1.5,3.25 0.25,0.625 0.875,1.625 0.625,2.125 -0.25,0.5 -0.125,0.75 -0.75,1.25 -0.625,0.5 -0.125,1 -0.5,1.5 -0.375,0.5 -0.75,1.25 -1.625,1.625 -0.875,0.375 -1.125,1 -1.125,1 L 365.25,560 c 0,0 -0.5,0.625 0.125,1.375 0.625,0.75 1.25,0.25 0.875,1.625 -0.375,1.375 -0.25,1.75 -0.25,1.75 0,0 1.25,-1.375 1.125,2.375 -0.125,3.75 -0.75,4.625 -0.75,4.625 0,0 -0.625,-0.125 -0.375,1 0.25,1.125 0.75,2.125 0.125,2.75 -0.625,0.625 -0.5,-0.375 -1.5,1.625 -1,2 0,4.75 0.625,5.375 0.625,0.625 1.125,0.75 1,2 -0.125,1.25 -0.75,1.375 -0.25,2.25 0.5,0.875 2.125,1.5 2.375,2.375 0.25,0.875 -0.25,1.5 0.25,2.125 0.5,0.625 1.125,1.125 1.125,1.125 0,0 -0.25,1 -0.25,2.125 0,1.125 -0.5,1 -0.5,2 0,1 0,2.25 0.5,1 0.5,-1.25 0.375,-1.25 0.875,-1.75 0.5,-0.5 2.125,-0.5 2.625,-0.5 0.5,0 1,-0.75 1.875,-0.375 0.875,0.375 1,0 1.5,1.25 0.5,1.25 0.25,1.5 1.25,1.75 1,0.25 1.875,0.125 2.875,0.125 1,0 1.25,-0.75 1.5,0.375 0.25,1.125 1.75,1.5 0.25,2 -1.5,0.5 -1.75,0 -3.25,0.5 -1.5,0.5 -1.5,0.5 -2,0.625 -0.5,0.125 -0.5,0.5 -1.375,0.875 -0.875,0.375 -0.375,0.75 -2,0.375 -1.625,-0.375 -1,0.125 -2.125,-0.625 -1.125,-0.75 -1.625,-1.125 -1.625,-1.625 0,-0.5 -0.75,-1 -0.75,-1 L 366.25,597 c 0,0 -0.25,0 -1.375,0 -1.125,0 -1.25,0 -2,0 -0.75,0 -1.25,-0.625 -1.25,-0.625 l -1.75,0.0625 c 0,0 -0.4375,-0.4375 -0.1875,-1 0.25,-0.5625 0.25,-0.5625 -0.0625,-0.625 -0.3125,-0.0625 -1.1875,-0.125 -1.75,-0.3125 -0.5625,-0.1875 0,-1 -0.125,-1.25 -0.125,-0.25 -1.3125,-0.25 -1.9375,-0.3125 -0.625,-0.0625 -1.5,-0.375 -2,-1 -0.5,-0.625 -0.375,-0.8125 -1.4375,-1.6875 -1.0625,-0.875 -0.75,-1 -1.6875,-1.3125 -0.9375,-0.3125 -1.25,-0.25 -1.4375,-1 -0.1875,-0.75 -0.9375,-0.875 -1.25,-1.625 -0.3125,-0.75 0,-1.25 -0.875,-1.8125 -0.875,-0.5625 -1.0625,-0.125 -1.1875,-1.3125 -0.125,-1.1875 0.1875,-1.75 -0.125,-2.375 -0.3125,-0.625 -0.125,-0.125 -0.625,-0.875 -0.5,-0.75 -0.75,-0.875 -0.9375,-1.75 -0.1875,-0.875 -0.1875,-1.3125 -0.5,-1.875 C 343.4375,575.75 342.875,575.5 342.8125,574.875 342.75,574.25 342.75,574 342.75,573.4375 c 0,-0.5625 0.1875,-1 -0.125,-2.25 -0.3125,-1.25 -0.125,-1.5625 -0.75,-2.3125 -0.625,-0.75 -0.6875,-0.25 -1.1875,-1.875 -0.5,-1.625 -1.0625,-1.875 -0.75,-2.6875 0.3125,-0.8125 0.5,-0.9375 0.5625,-1.5625 0.0625,-0.625 0.4375,-0.5 0.5,-1.375 0.0625,-0.875 0.0625,-0.625 0.0625,-1.8125 0,-1.1875 -0.75,0.3125 0.125,-2.9375 0.875,-3.25 0.875,-3.125 0.9375,-3.875 0.0625,-0.75 1.25,-0.875 0.8125,-2.1875 C 342.5,549.25 342.25,549.25 342.375,548.375 c 0.125,-0.875 0.625,-1.25 0.5,-1.6875 -0.125,-0.4375 0.0625,-0.25 -0.125,-0.75 -0.1875,-0.5 0.5,-0.25 -0.3125,-0.875 -0.8125,-0.625 -1.0625,-0.5 -1.1875,-1.4375 -0.125,-0.9375 -0.125,-1.6875 -0.0625,-5.375 0.0625,-3.6875 -0.1875,-3.9375 0.4375,-5 0.625,-1.0625 0.9375,-1.1875 0.9375,-2.0625 0,-0.875 0.5,-2 0.125,-3.0625 -0.375,-1.0625 -0.6875,-1.1875 -0.3125,-1.8125 0.375,-0.625 0.6875,-0.625 0.6875,-1.375 0,-0.75 0,0.3125 0.0625,-1.3125 0.0625,-1.625 -0.4375,-0.4375 0.1875,-2.5625 0.625,-2.125 0.875,-4.25 0.9375,-5.3125 0.0625,-1.0625 0.125,-1.375 -0.1875,-2 -0.3125,-0.625 -0.75,-3.625 -0.75,-4.625 0,-1 0.1875,-0.75 0.4375,-1.75 0.25,-1 0.3125,-1.1875 0.25,-1.5 -0.0625,-0.3125 0,-0.625 0.1875,-1.4375 0.1875,-0.8125 -0.1875,-2.5 0.5,-4.25 0.6875,-1.75 0.875,-1.0625 0.6875,-2.3125 -0.1875,-1.25 -1.625,-3.25 -1.1875,-4.625 0.4375,-1.375 0.875,-1.125 0.8125,-2.9375 -0.0625,-1.8125 -0.25,-4.25 0.1875,-5.25 0.4375,-1 0.6875,-4.4375 0.5,-5.25 l 0.1875,-0.0625 c 0.375,-2.875 -1.125,-5.375 -1.125,-5.375 0,0 1.5,-1.625 2.375,-1.875 0.875,-0.25 1,1.625 0.75,2.625 -0.25,1 0.125,2 1.25,3.125 1.125,1.125 2.375,2.375 2.875,3.25 0.5,0.875 1.75,1.625 2,2.625 0.25,1 0.625,2 1.875,3 1.25,1 2,-0.125 2.25,-0.875 0.25,-0.75 -0.125,-2.5 0.125,-4.25 0.25,-1.75 2.5,0.25 2.5,0.25 0,0 0.875,1.875 1.25,2.5 0.375,0.625 2,0.375 2.75,-0.375 0.75,-0.75 1.25,-0.625 1.75,-0.625 0.5,0 1.5,1 3.25,0.75 1.75,-0.25 1.875,-0.375 3.375,1 1.5,1.375 0.25,2.125 1.625,3 1.375,0.875 1.375,0 2.25,0.375 0.875,0.375 0.375,1.5 1.75,2.375 1.375,0.875 5,0.125 6.25,0.625 1.25,0.5 0,1.625 0,2.5 0,0.875 0,3.25 -0.625,3.5 -0.625,0.25 -1.5,2 -1.375,3.375 0.125,1.375 3.375,0 4.75,-0.625 1.375,-0.625 2,-0.5 3.375,-1.75 1.375,-1.25 5.125,-3.375 5.125,-3.375 z"
     id="alaska"
     sodipodi:nodetypes="csssssssssssssssssssssssssssssssssssssscsssssssssssssssscsssssssssscssccsscssccssccssssc"
     inkscape:connector-curvature="0"
     transform="matrix(3.1428202,0,0,3.2588114,-1022.9131,-1527.1512)" />
  <text
     xml:space="preserve"
     style="font-size:107.87072011px;font-style:normal;font-variant:normal;font-weight:bold;font-stretch:normal;text-align:start;line-height:125%;letter-spacing:0px;word-spacing:0px;writing-mode:lr;text-anchor:start;fill:#800000;fill-opacity:1;stroke:none;display:inline;enable-background:new;font-family:Latin Modern Mono;-inkscape-font-specification:Latin Modern Mono Bold"
     x="14.62315"
     y="481.85144"
     id="alberta_text"
     sodipodi:linespacing="125%"
     inkscape:label="alberta"
     transform="scale(0.94301946,1.0604235)"><tspan
       sodipodi:role="line"
       id="tspan3294">ARGENTINA</tspan></text>
</svg>
