<?xml version="1.0" encoding="UTF-8" standalone="no"?>
<svg
   xmlns:dc="http://purl.org/dc/elements/1.1/"
   xmlns:cc="http://creativecommons.org/ns#"
   xmlns:rdf="http://www.w3.org/1999/02/22-rdf-syntax-ns#"
   xmlns:svg="http://www.w3.org/2000/svg"
   xmlns="http://www.w3.org/2000/svg"
   xmlns:sodipodi="http://sodipodi.sourceforge.net/DTD/sodipodi-0.dtd"
   xmlns:inkscape="http://www.inkscape.org/namespaces/inkscape"
   id="svg2"
   sodipodi:version="0.32"
   inkscape:version="0.48.5 r10040"
   viewBox="0 0 750 520"
   preserveAspectRatio="xMidYMid meet"
   version="1.2"
   sodipodi:docname="japan.svg"
   inkscape:output_extension="org.inkscape.output.svg.inkscape"
   inkscape:export-filename="/home/kris/worldmap.png"
   inkscape:export-xdpi="90"
   inkscape:export-ydpi="90"
   style="enable-background:new"
   enable-background="new"
   width="100%"
   height="100%">
  <metadata
     id="metadata3188">
    <rdf:RDF>
      <cc:Work
         rdf:about="">
        <dc:format>image/svg+xml</dc:format>
        <dc:type
           rdf:resource="http://purl.org/dc/dcmitype/StillImage" />
        <dc:title></dc:title>
      </cc:Work>
    </rdf:RDF>
  </metadata>
  <defs
     id="defs3186" />
  <sodipodi:namedview
     pagecolor="#ffffff"
     bordercolor="#666666"
     borderopacity="1"
     objecttolerance="10"
     gridtolerance="10"
     guidetolerance="10"
     inkscape:pageopacity="0"
     inkscape:pageshadow="2"
     inkscape:window-width="1278"
     inkscape:window-height="726"
     id="namedview3184"
     showgrid="false"
     inkscape:zoom="0.45384615"
     inkscape:cx="969.84328"
     inkscape:cy="348.13559"
     inkscape:window-x="0"
     inkscape:window-y="24"
     inkscape:window-maximized="1"
     inkscape:current-layer="svg2" />
  <filter
     inkscape:collect="always"
     id="filter12871">
    <feGaussianBlur
       inkscape:collect="always"
       stdDeviation="0.5805759"
       id="feGaussianBlur12873" />
  </filter>
  <path
     style="fill:#a52a2a;fill-opacity:1;fill-rule:evenodd;stroke:#000000;stroke-width:1.20000005;stroke-linecap:butt;stroke-linejoin:miter;stroke-miterlimit:4.32165003;stroke-opacity:0.58527132;stroke-dasharray:none;stroke-dashoffset:0;display:inline;filter:url(#filter12871)"
     d="m 802.125,324 c -1,0.5 -0.125,0.5 -0.125,1.125 0,0.625 0.875,0.25 0.875,1.125 0,0.875 0.25,0.75 0.75,1 0.5,0.25 0.125,0.75 0.125,2.125 0,1.375 0.125,0.625 1.125,0.875 1,0.25 0.5,0.375 0.75,1.875 0.25,1.5 1,0.5 1.5,0.5 0.5,0 0.5,0.25 0.875,1 0.375,0.75 0,0.5 -1.25,1.25 -1.25,0.75 1.25,0.875 2.625,1.25 1.375,0.375 0.875,2 0.625,3.375 -0.25,1.375 0.625,1.125 1.5,2.625 0.875,1.5 0.125,2.375 -0.875,4.75 -1,2.375 0.5,1.625 1.625,1.75 1.125,0.125 0.875,3.375 0.125,5 -0.75,1.625 0.125,1.5 0.125,3.625 0,2.125 -0.375,2.5 -0.625,4.125 -0.25,1.625 -0.375,1.375 -1,2.375 -0.625,1 -0.25,2 -0.25,3.625 0,1.625 -1.625,1.625 -2.75,1.875 -1.125,0.25 -0.625,0.125 -0.5,1.25 0.125,1.125 -0.5,1.375 -1.5,2.375 -1,1 -0.5,0.25 -1.125,1.875 -0.625,1.625 -0.125,0.875 -1.5,2.125 -1.375,1.25 -1.375,1.875 -1.375,1.875 0,0 0,1.125 -0.25,2.375 -0.25,1.25 -1.125,0.25 -1.625,0.125 -0.5,-0.125 -1.375,0.625 -1.75,1.375 -0.375,0.75 -1.875,1.125 -3.125,2.375 -1.25,1.25 0.125,0.25 0.5,1.125 0.375,0.875 -0.875,1.5 -1.5,2 -0.625,0.5 -1.125,1.75 -2.125,2.375 -1,0.625 -1.79419,-2.08081 -3.40403,-2.5221 0.26517,-0.0663 -1.55538,-2.123 -0.9405,-2.43044 0.61487,-0.30743 -0.92232,-1.6909 -0.92232,-1.6909 0,0 0,-0.84546 -0.46115,-0.84546 -0.46116,0 -0.46116,-0.15372 -0.61488,-0.61487 -0.15372,-0.46116 -0.69173,-0.53802 -0.69173,-0.53802 0,0 -0.84546,-0.0769 -0.84546,-0.61488 0,-0.53801 0,-0.69173 0,-1.46032 0,-0.7686 -0.30744,-1.53719 -0.69173,-1.53719 -0.3843,0 -1.84463,-0.15372 -1.84463,-0.15372 0,0 -0.61487,-1.15289 -0.99917,-1.22975 -0.3843,-0.0769 -1.15289,-0.23058 -1.46033,0 -0.30744,0.23058 -0.99917,0.76859 -1.07603,1.22975 -0.0769,0.46115 -1.15289,1.38347 -1.15289,1.38347 0,0 0.38429,0.53801 -0.46116,0.69173 -0.84545,0.15372 -2.76694,0.0769 -3.15124,0.15372 -0.3843,0.0769 -1.07603,1.53719 -1.07603,1.99835 0,0.46115 0.30744,1.76776 -0.69173,1.92148 -0.99918,0.15372 -2.76694,-0.0769 -3.30496,-0.69173 -0.53802,-0.61488 -1.99835,-2.69008 -2.76694,-2.61322 -0.76859,0.0769 -2.22892,-1.92149 -2.15206,-2.22893 0.0769,-0.30743 0.61487,-0.46115 -0.30744,-0.99917 -0.92232,-0.53802 -1.15289,-0.30744 -1.46033,-1.22975 -0.30744,-0.92231 -0.46116,-2.38264 -0.84545,-2.69008 -0.3843,-0.30744 -0.7686,-0.46116 -1.53719,-0.84545 -0.7686,-0.3843 -1.07604,-1.30661 -1.61405,-1.46033 -0.53802,-0.15372 -0.69174,-0.0769 -0.99917,0.46115 -0.30744,0.53802 -0.99918,1.69091 -0.99918,1.69091 l -1.22975,0.92231 c 0,0 -0.38429,-0.53801 -1.07603,0.3843 0,0 -2.53636,-6.99421 -2.92066,-7.3785 -0.3843,-0.3843 -9.76115,-0.53802 -9.83801,-0.23058 -0.0769,0.30744 -1.15289,1.76776 -1.61404,1.76776 -0.46116,0 -1.69091,-1.30661 -1.69091,-1.30661 0,0 0.3843,-3.61239 0.0769,-3.99669 -0.30744,-0.38429 -2.92066,-1.38347 -3.2281,-1.22975 -0.30744,0.15372 -0.92231,2.15207 -1.38347,2.15207 -0.46115,0 -3.68925,-1.76777 -3.99669,-2.99752 -0.30744,-1.22975 0.61488,-1.22975 -0.76859,-1.30661 -1.38347,-0.0769 -0.30744,1.38347 -2.38265,0.92231 -2.0752,-0.46115 -2.30578,-0.76859 -2.61322,-1.07603 -0.30743,-0.30744 -1.22975,-1.46033 -2.30578,-1.46033 -1.07603,0 -3.22809,-1.15289 -3.38181,-1.53719 -0.15372,-0.3843 -0.53802,-0.84545 -0.84546,-1.22975 -0.30744,-0.3843 -0.30744,-1.69091 -0.76859,-2.0752 -0.46116,-0.3843 -2.07521,0.92231 -2.4595,0.99917 -0.3843,0.0769 -1.69091,-0.46116 -1.46033,-1.22975 0.23058,-0.7686 0.61487,-1.76777 1.07603,-1.99835 0.46116,-0.23058 1.38347,-0.99917 1.46033,-1.53719 0.0769,-0.53801 0.3843,-0.76859 0.53801,-1.99834 0.15372,-1.22975 -0.53801,-4.07355 -0.69173,-4.99586 -0.15372,-0.92232 -0.15372,-3.76612 -0.15372,-3.76612 0,0 0.0769,-1.07603 0.0769,-1.38347 0,-0.30743 0.23058,-0.99917 0.23058,-0.99917 0,0 -1.38347,0.3843 -1.69091,0.46116 -0.30744,0.0769 -3.38181,0.0769 -3.68925,0.0769 -0.30744,0 -1.99835,-0.92232 -2.07521,-1.22975 -0.0769,-0.30744 -0.23057,-2.07521 -0.38429,-2.38265 -0.15372,-0.30743 -0.23058,-1.38347 -0.53802,-1.07603 l -1.38347,1.99835 0.0769,0.15372 c -1.92149,0.99917 -2.99752,0.61487 -3.08052,0.44918 0,-0.86957 0.32609,-1.19565 0.32609,-2.17391 0,-0.97826 -0.86956,-3.69566 -0.86956,-3.69566 0,0 -0.76087,-1.19565 -1.41305,-1.41304 -0.65217,-0.21739 -1.63043,-1.30435 -1.63043,-1.30435 0,0 -0.76087,-2.06521 -0.76087,-2.93478 0,-0.86957 0.43478,-4.45652 0.97826,-4.56522 0.54348,-0.10869 2.06522,-1.08695 2.93478,-1.08695 0.86957,0 2.28261,0.10869 2.71739,-0.2174 0.43479,-0.32608 1.19566,-4.45652 1.63044,-5.54347 0.43478,-1.08696 0.65217,-1.95653 1.41304,-1.84783 0.76087,0.1087 2.17391,0 2.06522,-1.84783 -0.1087,-1.84782 -0.32609,-5.43478 -1.08696,-6.63043 -0.76087,-1.19565 -1.30435,-1.41304 -0.86956,-2.5 0.43478,-1.08696 0.97826,-1.41304 0.97826,-1.41304 -0.0884,-0.17678 -0.21739,-1.52174 -0.27174,-1.63044 0.59783,0.43478 1.1413,0 2.33696,-0.21739 1.19565,-0.21739 0.54347,-1.08696 0.65217,-1.52174 0.1087,-0.43478 -0.1087,-1.30435 -0.43478,-1.95652 -0.32609,-0.65217 0,-0.65217 0.32608,-1.19565 0.32609,-0.54348 1.84783,-1.52174 1.95653,-2.06522 0.10869,-0.54348 0.21739,-3.80435 0.21739,-3.80435 0,0 3.15217,-0.43478 3.80434,-0.76087 0.65218,-0.32608 0,-4.56522 0,-4.56522 l 2.5301,-0.20493 c -0.15372,0.69173 0.15371,0.76859 0.76859,0.92231 0.61487,0.15372 0.84545,0.53802 1.38347,1.61405 0.53802,1.07603 1.15289,0.3843 2.76694,0.69173 1.61405,0.30744 2.76694,-1.53718 3.45867,-1.76776 0.69174,-0.23058 0.7686,0.84545 1.69091,1.6909 0.92231,0.84546 0.92231,1.30661 1.69091,1.46033 0.76859,0.15372 1.07603,1.1529 1.53719,2.07521 0.46115,0.92231 0.0769,1.69091 0,2.53636 -0.0769,0.84545 -0.92232,1.07603 -1.61405,2.38264 -0.69174,1.30661 0.69173,0.84546 1.38347,0.99917 0.69173,0.15372 0.61487,0.92232 1.38347,1.38347 0.76859,0.46116 0.92231,-0.46115 1.84462,-1.15289 0.92232,-0.69173 0.53802,0.99918 1.07604,1.30661 0.53801,0.30744 1.38347,0.84546 1.92148,0.61488 0,0 1.13368,1.90611 1.7524,2.08289 0.61872,0.17678 1.14905,6.45235 1.14905,6.45235 0,0 0.97227,-0.61872 1.23743,0.17678 0.26517,0.79549 0.61872,2.12132 0.61872,2.12132 0,0 1.32583,0.79549 1.32583,1.23743 0,0.44194 -0.0884,1.5026 0.26516,1.67938 0.35356,0.17678 1.76777,0.7955 1.76777,0.7955 l 0.35355,1.32582 c 0,0 0.17678,1.14905 0.70711,1.23744 0.53033,0.0884 0.79549,-0.0884 1.5026,0.26516 0.70711,0.35356 0.88388,0.44195 1.5026,0.44195 0.61872,0 0.88389,-0.0884 0.88389,0.44194 0,0.53033 -0.0884,1.41421 0.26516,1.5026 0.35355,0.0884 1.23744,0.17678 1.23744,0.17678 0,0 0.26516,0.53033 0.61872,0.88388 0.35355,0.35355 1.41421,0.44194 1.59099,0.79549 0.17677,0.35356 0.26516,0.97228 0.35355,1.32583 0.0884,0.35355 -0.26516,1.14905 1.06066,1.23744 1.32583,0.0884 9.01561,-1.06066 9.01561,-1.06066 l 0.53033,0.88388 c 0,0 0.53033,0.53033 1.14905,0.70711 0.61872,0.17677 1.76777,-0.26517 2.74004,0.17677 0.97227,0.44195 1.76777,0.70711 2.20971,0.70711 0.44194,0 1.32582,0 1.32582,0 0,0 0.26517,1.23744 0.70711,1.32583 0.44194,0.0884 2.20971,-0.61872 2.20971,-0.61872 0,0 0.35355,-0.53033 0.88388,-0.44194 0.53033,0.0884 0.61872,-1.14905 1.59099,-1.23744 0.97227,-0.0884 1.5026,-0.0884 1.85616,-0.0884 0.35355,0 2.47487,-1.06066 2.56326,-0.17678 0.0884,0.88389 0.17678,1.41422 0.61872,1.94455 0.44194,0.53033 1.67938,0.88388 2.12132,0.88388 0.44194,0 1.41421,-0.61872 2.03293,-0.97227 0.61872,-0.35355 0.88388,-0.70711 1.67938,-0.53033 0.79549,0.17678 1.59099,0.70711 1.94454,0.88388 0.35356,0.17678 0.53033,0.17678 1.59099,0.53033 1.06066,0.35356 2.47488,0.26517 2.47488,0.26517 0,0 2.56326,0.26516 3.53553,0.53033 1.67938,1.23743 2.38649,1.14905 2.91756,0.94694 z"
     id="china"
     sodipodi:nodetypes="csssssssssssssssssssssssssssssssssssssscsssssssssssssssscsssssssssscssccsscssccssccssssc"
     inkscape:connector-curvature="0"
     transform="matrix(4.7296231,0,0,4.1172512,-3273.3047,-1144.3649)" />
     <text
          xml:space="preserve"
          style="font-size:107.87071991px;font-style:normal;font-variant:normal;font-weight:bold;font-stretch:normal;text-align:start;line-height:125%;letter-spacing:0px;word-spacing:0px;writing-mode:lr-tb;text-anchor:start;fill:#800000;fill-opacity:1;stroke:none;display:inline;enable-background:new;font-family:Latin Modern Mono;-inkscape-font-specification:Latin Modern Mono Bold"
          x="40.32494"
          y="440.29465"
          id="alberta_text"
          sodipodi:linespacing="125%"
          inkscape:label="alberta"
          transform="scale(0.94301946,1.0604235)"><tspan
            sodipodi:role="line"
            id="tspan7513-9-23"
            x="40.32494"
            y="440.29465"
            style="font-size:107.87071991px;font-style:normal;font-variant:normal;font-weight:bold;font-stretch:normal;text-align:start;line-height:125%;writing-mode:lr-tb;text-anchor:start;fill:#800000;font-family:Latin Modern Mono;-inkscape-font-specification:Latin Modern Mono Bold">CHINA</tspan></text>

</svg>
