<?xml version="1.0" encoding="UTF-8" standalone="no"?>
<svg
   xmlns:dc="http://purl.org/dc/elements/1.1/"
   xmlns:cc="http://creativecommons.org/ns#"
   xmlns:rdf="http://www.w3.org/1999/02/22-rdf-syntax-ns#"
   xmlns:svg="http://www.w3.org/2000/svg"
   xmlns="http://www.w3.org/2000/svg"
   xmlns:sodipodi="http://sodipodi.sourceforge.net/DTD/sodipodi-0.dtd"
   xmlns:inkscape="http://www.inkscape.org/namespaces/inkscape"
   id="svg2"
   sodipodi:version="0.32"
   inkscape:version="0.48.5 r10040"
   viewBox="0 0 750 520"
   preserveAspectRatio="xMidYMid meet"
   version="1.2"
   sodipodi:docname="east_africa.svg"
   inkscape:output_extension="org.inkscape.output.svg.inkscape"
   inkscape:export-filename="/home/kris/worldmap.png"
   inkscape:export-xdpi="90"
   inkscape:export-ydpi="90"
   style="enable-background:new"
   enable-background="new"
   width="100%"
   height="100%">
  <metadata
     id="metadata3188">
    <rdf:RDF>
      <cc:Work
         rdf:about="">
        <dc:format>image/svg+xml</dc:format>
        <dc:type
           rdf:resource="http://purl.org/dc/dcmitype/StillImage" />
        <dc:title></dc:title>
      </cc:Work>
    </rdf:RDF>
  </metadata>
  <defs
     id="defs3186" />
  <sodipodi:namedview
     pagecolor="#ffffff"
     bordercolor="#666666"
     borderopacity="1"
     objecttolerance="10"
     gridtolerance="10"
     guidetolerance="10"
     inkscape:pageopacity="0"
     inkscape:pageshadow="2"
     inkscape:window-width="1278"
     inkscape:window-height="726"
     id="namedview3184"
     showgrid="false"
     inkscape:zoom="0.45384615"
     inkscape:cx="375"
     inkscape:cy="290.61062"
     inkscape:window-x="0"
     inkscape:window-y="24"
     inkscape:window-maximized="1"
     inkscape:current-layer="svg2" />
  <filter
     inkscape:collect="always"
     id="filter12871">
    <feGaussianBlur
       inkscape:collect="always"
       stdDeviation="0.5805759"
       id="feGaussianBlur12873" />
  </filter>
  <path
     style="fill:green;fill-opacity:1;fill-rule:evenodd;stroke:#000000;stroke-width:1.20000005;stroke-linecap:butt;stroke-linejoin:miter;stroke-miterlimit:4.32165003;stroke-opacity:0.58527132;stroke-dasharray:none;stroke-dashoffset:0;display:inline;filter:url(#filter12871)"
     d="m 595,514.875 c -0.625,0.25 -0.75,-0.625 -1.125,-3.375 -0.375,-2.75 -1.125,-9.75 -1,-10.875 0.125,-1.125 2.875,1 3.375,0.25 0.5,-0.75 0.625,-6.375 0.375,-7.875 -0.25,-1.5 2.125,-0.875 3.625,-1 1.5,-0.125 1.75,-2 2.375,-3.25 0.625,-1.25 1.25,-1.125 1.875,-1.375 0.625,-0.25 0.5,-1.5 1.25,-2.5 0.75,-1 1.75,-2.75 1.75,-4.125 0,-1.375 -1.875,-2.75 -4.125,-2.875 -2.25,-0.125 -1.75,1 -4.875,0.25 -3.125,-0.75 -3.75,-0.625 -4.75,-0.875 -1,-0.25 -0.875,-1.875 -2,-2.25 -1.125,-0.375 -2.5,2.125 -2.5,2.125 0,0 -1.25,-0.375 -2.5,-3.375 -1.25,-3 -3,-3.875 -3.5,-4 -0.5,-0.125 -0.625,-3.625 -0.625,-4.25 0,-0.625 -2.25,-1.375 -2.75,-2.125 -0.5,-0.75 -0.875,-1.875 -1.75,-2.125 -0.875,-0.25 -1.5,-0.25 -1.875,-2.375 0,0 -0.5,-3.625 -1.16021,-3.99915 -0.0352,-0.12415 -2.3333,2.35072 -2.3333,3.2346 0,0.88389 0.53033,1.94455 -1.76776,3.00521 -2.2981,1.06066 -3.71231,1.76776 -5.12653,2.29809 -1.41421,0.53033 -1.94454,1.59099 -2.82842,2.12132 -0.88389,0.53033 -2.12133,0.53033 -3.00521,1.23744 -0.88388,0.70711 -1.59099,0.70711 -2.12132,1.76777 -0.53033,1.06066 -1.23744,-0.70711 -1.41421,1.76776 -0.17678,2.47488 0.35355,3.71232 0.35355,3.71232 0,0 1.59099,-1.94455 1.23744,1.94454 -0.35356,3.88909 -1.23744,4.24264 -0.70711,5.65685 0.53033,1.41422 0.88388,1.76777 -0.53033,2.65165 -1.41421,0.88389 -2.65165,0 -2.65165,0 0,0 -0.35355,-1.59099 -1.94454,-1.23743 -1.59099,0.35355 -1.76777,1.06066 -3.35876,0.7071 -1.59099,-0.35355 -3.18198,-0.35355 -3.18198,-0.35355 0,0 -1.94454,1.59099 -2.65165,1.23744 -0.70711,-0.35356 -0.70711,-0.88389 -1.23744,-1.94455 L 541.1875,482.5 C 540.125,482.125 540,484.625 540,484.625 c 0.375,1.125 1.375,1.625 0.875,2.125 -0.5,0.5 -1.125,2 -1.75,2.875 -0.625,0.875 -3.25,2.125 -2.25,3.25 1,1.125 7.625,6.375 9,9.5 0,0 0.625,0.875 1.25,1.75 0.625,0.875 2.875,-1 3.625,-0.375 0.75,0.625 2.75,2 3.5,2.375 0.75,0.375 4.875,-0.25 5.875,0.5 1,0.75 1.75,0.375 1.75,0.375 0,0 -0.625,4.25 0,4.875 0.625,0.625 2.125,1.375 3,0.125 0.875,-1.25 7.375,-2 7.75,-1 0.375,1 -0.625,3 0.625,4 1.25,1 2.125,1.75 2,2.75 -0.125,1 -1.375,2 -0.875,3.375 0.5,1.375 1.875,1.875 3.375,1.75 1.5,-0.125 1.375,1 2.625,1.25 1.25,0.25 6.125,0.25 6.625,0.625 0.5,0.375 1.75,1.25 2.125,1.875 0.375,0.625 1.75,2.875 2.625,2 0.875,-0.875 1.875,-5.5 0.5,-6 -1.375,-0.5 -2.25,-0.5 -2.25,-2 0,-1.5 0.75,-4.125 1.25,-4.125 0.5,0 1.125,-0.625 1.125,-0.625 0,0 3.875,0 2.625,-1 z"
     id="alaska"
     sodipodi:nodetypes="csssssssssssssssssssssssssssssssssssssscsssssssssssssssscsssssssssscssccsscssccssccssssc"
     inkscape:connector-curvature="0"
     transform="matrix(5.0562905,0,0,5.1419298,-2685.3168,-2316.492)" />
</svg>
