<?xml version="1.0" encoding="UTF-8" standalone="no"?>
<svg
   xmlns:dc="http://purl.org/dc/elements/1.1/"
   xmlns:cc="http://creativecommons.org/ns#"
   xmlns:rdf="http://www.w3.org/1999/02/22-rdf-syntax-ns#"
   xmlns:svg="http://www.w3.org/2000/svg"
   xmlns="http://www.w3.org/2000/svg"
   xmlns:sodipodi="http://sodipodi.sourceforge.net/DTD/sodipodi-0.dtd"
   xmlns:inkscape="http://www.inkscape.org/namespaces/inkscape"
   id="svg2"
   sodipodi:version="0.32"
   inkscape:version="0.48.5 r10040"
   viewBox="0 0 750 520"
   preserveAspectRatio="xMidYMid meet"
   version="1.2"
   sodipodi:docname="egypt.svg"
   inkscape:output_extension="org.inkscape.output.svg.inkscape"
   inkscape:export-filename="/home/kris/worldmap.png"
   inkscape:export-xdpi="90"
   inkscape:export-ydpi="90"
   style="enable-background:new"
   enable-background="new"
   width="100%"
   height="100%">
  <metadata
     id="metadata3188">
    <rdf:RDF>
      <cc:Work
         rdf:about="">
        <dc:format>image/svg+xml</dc:format>
        <dc:type
           rdf:resource="http://purl.org/dc/dcmitype/StillImage" />
        <dc:title></dc:title>
      </cc:Work>
    </rdf:RDF>
  </metadata>
  <defs
     id="defs3186" />
  <sodipodi:namedview
     pagecolor="#ffffff"
     bordercolor="#666666"
     borderopacity="1"
     objecttolerance="10"
     gridtolerance="10"
     guidetolerance="10"
     inkscape:pageopacity="0"
     inkscape:pageshadow="2"
     inkscape:window-width="1278"
     inkscape:window-height="726"
     id="namedview3184"
     showgrid="false"
     inkscape:zoom="0.45384615"
     inkscape:cx="375"
     inkscape:cy="290.61062"
     inkscape:window-x="0"
     inkscape:window-y="24"
     inkscape:window-maximized="1"
     inkscape:current-layer="svg2" />
  <filter
     inkscape:collect="always"
     id="filter12871">
    <feGaussianBlur
       inkscape:collect="always"
       stdDeviation="0.5805759"
       id="feGaussianBlur12873" />
  </filter>
  <path
     style="fill:green;fill-opacity:1;fill-rule:evenodd;stroke:#000000;stroke-width:1.20000005;stroke-linecap:butt;stroke-linejoin:miter;stroke-miterlimit:4.32165003;stroke-opacity:0.58527132;stroke-dasharray:none;stroke-dashoffset:0;display:inline;filter:url(#filter12871)"
     d="m 575.05459,454.7517 c 0,0 -0.53033,-2.12132 -1.41421,-3.35876 -0.88389,-1.23744 -0.35356,-2.65165 -0.35356,-3.53554 0,-0.88388 0.35356,-1.41421 0.88389,-2.12132 0.53033,-0.7071 0.17677,-1.06066 0.17677,-1.06066 l 0.88389,-1.76776 c 0,0 0.53033,-1.41422 0.53033,-2.65165 0,-1.23744 -0.70711,-0.70711 -1.41422,-0.88389 -0.7071,-0.17677 -0.17677,-0.35355 0.88389,-0.88388 1.06066,-0.53033 0.7071,-1.76777 0.88388,-2.82843 0.17678,-1.06066 -0.35355,-5.48008 -0.53033,-6.36396 0,0 2.04008,-1.29585 2.66508,-1.04585 0.625,0.25 0.25,-4.5 1.875,-5 1.625,-0.5 29,1.125 28.875,-0.5 l 0.25,0.25 c 0.375,1.125 1.25,1 1.25,1 0,0 2,1.5 2.25,2.25 0.25,0.75 0.5,0.25 0.5,0.875 0,0.625 0.375,2.875 0.875,4.375 0.5,1.5 0.625,0.75 1.625,1.625 1,0.875 0.25,0.75 0.25,2.75 0,2 1,1.5 2,3.125 1,1.625 0.125,0.875 0.625,2.25 0.5,1.375 0.625,2 1.125,3 0.5,1 0.75,0.75 1.375,0.75 0.625,0 0.75,0.375 0.75,1.875 0,1.5 2.375,2 3.375,3.5 1,1.5 1.125,1 1.75,2 0.625,1 0,0.75 -0.625,2.875 -0.625,2.125 0.125,2.25 0.75,3.25 0.625,1 4,0.875 4,0.875 0,0 3,-0.25 4.125,-0.875 1.125,-0.625 1,-0.875 1.5,-1.25 0.5,-0.375 4,0 6.5,-0.625 2.5,-0.625 5.75,-3 7.25,-0.375 1.5,2.625 -3.75,13 -6,18 -2.25,5 -8.5,10 -12.375,13.75 -3.875,3.75 -6.25,8.375 -6.5,8.875 -0.25,0.5 -1.25,1.5 -1.75,1.75 -0.5,0.25 -1,0.625 -2,1.875 -1,1.25 -1.625,0.75 -3,1.75 -1.375,1 -1.125,2 -1.125,2.75 0,0.75 -0.375,2.375 -0.75,2.875 -0.375,0.5 0.5,3 0.5,3.875 0,0.875 -0.25,2.875 -0.25,2.875 0,0 0,0.375 1.375,1.125 1.375,0.75 0.5,5.25 0.5,5.25 l 0.25,0.5 c 0,0 -1.625,1.625 -2.75,1.625 -1.125,0 -2.625,1.375 -2.625,1.375 0,0 -0.625,0.125 -1.875,0.5 -1.25,0.375 -2.25,0.25 -3.375,1.75 -1.125,1.5 -0.5,1.375 0.375,4.25 0.875,2.875 -0.375,1.125 -0.75,2.125 -0.375,1 0,3.125 0,4.375 0,1.25 -0.875,1.75 -1.5,2.25 -0.625,0.5 -2.625,-1.5 -3.375,-2.75 -0.75,-1.25 0,-3.25 0.5,-4.75 0.5,-1.5 -1.125,-3.625 -1.5,-4.875 -0.375,-1.25 -0.25,-1.375 0.375,-2.5 0.625,-1.125 0.125,-0.875 -0.25,-2.625 -0.375,-1.75 -1.375,-1.625 -1.75,-2.375 -0.375,-0.75 -1.5,-2.25 -2.5,-2.25 -1,0 -0.5,-1.625 -0.75,-2.5 -0.25,-0.875 -2,-0.5 -2.625,-0.25 -0.625,0.25 -0.75,-0.625 -1.125,-3.375 -0.375,-2.75 -1.125,-9.75 -1,-10.875 0.125,-1.125 2.875,1 3.375,0.25 0.5,-0.75 0.625,-6.375 0.375,-7.875 -0.25,-1.5 2.125,-0.875 3.625,-1 1.5,-0.125 1.75,-2 2.375,-3.25 0.625,-1.25 1.25,-1.125 1.875,-1.375 0.625,-0.25 0.5,-1.5 1.25,-2.5 0.75,-1 1.75,-2.75 1.75,-4.125 0,-1.375 -1.875,-2.75 -4.125,-2.875 -2.25,-0.125 -1.75,1 -4.875,0.25 -3.125,-0.75 -3.75,-0.625 -4.75,-0.875 -1,-0.25 -0.875,-1.875 -2,-2.25 -1.125,-0.375 -2.5,2.125 -2.5,2.125 0,0 -1.25,-0.375 -2.5,-3.375 -1.25,-3 -3,-3.875 -3.5,-4 -0.5,-0.125 -0.625,-3.625 -0.625,-4.25 0,-0.625 -2.25,-1.375 -2.75,-2.125 -0.5,-0.75 -0.875,-1.875 -1.75,-2.125 -0.875,-0.25 -1.5,-0.25 -1.875,-2.375 -0.375,-2.125 -1.19541,-4.1233 -1.19541,-4.1233 z"
     id="alaska"
     sodipodi:nodetypes="csssssssssssssssssssssssssssssssssssssscsssssssssssssssscsssssssssscssccsscssccssccssssc"
     inkscape:connector-curvature="0"
     transform="matrix(3.7320866,0,0,3.7277153,-2109.5523,-1550.4051)" />
     <text
          xml:space="preserve"
          style="font-size:107.87071991px;font-style:normal;font-variant:normal;font-weight:bold;font-stretch:normal;text-align:start;line-height:125%;letter-spacing:0px;word-spacing:0px;writing-mode:lr-tb;text-anchor:start;fill:#800000;fill-opacity:1;stroke:none;display:inline;enable-background:new;font-family:Latin Modern Mono;-inkscape-font-specification:Latin Modern Mono Bold"
          x="40.32494"
          y="440.29465"
          id="alberta_text"
          sodipodi:linespacing="125%"
          inkscape:label="alberta"
          transform="scale(0.94301946,1.0604235)"><tspan
            sodipodi:role="line"
            id="tspan7513-9-23"
            x="40.32494"
            y="440.29465"
            style="font-size:107.87071991px;font-style:normal;font-variant:normal;font-weight:bold;font-stretch:normal;text-align:start;line-height:125%;writing-mode:lr-tb;text-anchor:start;fill:#800000;font-family:Latin Modern Mono;-inkscape-font-specification:Latin Modern Mono Bold">EAST AFRICA</tspan></text>

</svg>
