<?xml version="1.0" encoding="UTF-8" standalone="no"?>
<svg
   xmlns:dc="http://purl.org/dc/elements/1.1/"
   xmlns:cc="http://creativecommons.org/ns#"
   xmlns:rdf="http://www.w3.org/1999/02/22-rdf-syntax-ns#"
   xmlns:svg="http://www.w3.org/2000/svg"
   xmlns="http://www.w3.org/2000/svg"
   xmlns:sodipodi="http://sodipodi.sourceforge.net/DTD/sodipodi-0.dtd"
   xmlns:inkscape="http://www.inkscape.org/namespaces/inkscape"
   id="svg2"
   sodipodi:version="0.32"
   inkscape:version="0.48.5 r10040"
   viewBox="0 0 750 520"
   preserveAspectRatio="xMidYMid meet"
   version="1.2"
   sodipodi:docname="western_united_states.svg"
   inkscape:output_extension="org.inkscape.output.svg.inkscape"
   inkscape:export-filename="/home/kris/worldmap.png"
   inkscape:export-xdpi="90"
   inkscape:export-ydpi="90"
   style="enable-background:new"
   enable-background="new"
   width="100%"
   height="100%">
  <metadata
     id="metadata3188">
    <rdf:RDF>
      <cc:Work
         rdf:about="">
        <dc:format>image/svg+xml</dc:format>
        <dc:type
           rdf:resource="http://purl.org/dc/dcmitype/StillImage" />
        <dc:title></dc:title>
      </cc:Work>
    </rdf:RDF>
  </metadata>
  <defs
     id="defs3186" />
  <sodipodi:namedview
     pagecolor="#ffffff"
     bordercolor="#666666"
     borderopacity="1"
     objecttolerance="10"
     gridtolerance="10"
     guidetolerance="10"
     inkscape:pageopacity="0"
     inkscape:pageshadow="2"
     inkscape:window-width="1278"
     inkscape:window-height="726"
     id="namedview3184"
     showgrid="false"
     inkscape:zoom="0.45384615"
     inkscape:cx="375"
     inkscape:cy="348.13559"
     inkscape:window-x="0"
     inkscape:window-y="24"
     inkscape:window-maximized="1"
     inkscape:current-layer="svg2" />
  <filter
     inkscape:collect="always"
     id="filter12871">
    <feGaussianBlur
       inkscape:collect="always"
       stdDeviation="0.5805759"
       id="feGaussianBlur12873" />
  </filter>
  <path
     style="fill:yellow;fill-opacity:1;fill-rule:evenodd;stroke:#000000;stroke-width:1.20000005;stroke-linecap:butt;stroke-linejoin:miter;stroke-miterlimit:4.32165003;stroke-opacity:0.58527132;stroke-dasharray:none;stroke-dashoffset:0;display:inline;filter:url(#filter12871)"
     d="m 326.24139,264.27481 6.27557,0.0884 c 0.70711,0.35356 0.35356,5.30331 0.35356,5.30331 0,0 3.35875,-1.76777 5.83363,-1.06066 2.47487,0.7071 4.77297,-3.18199 5.3033,-0.88389 0.53033,2.2981 1.76777,4.24264 2.2981,4.94975 0.53033,0.70711 0.7071,1.76777 1.76776,4.59619 1.06066,2.82843 1.59099,5.65686 0.88389,6.89429 -0.70711,1.23744 -2.65165,3.00521 -1.06066,3.88909 1.59099,0.88389 3.0052,2.2981 3.88908,3.18198 0.88389,0.88389 4.94975,-2.29809 4.77297,-3.53553 -0.17677,-1.23744 -0.7071,-2.12132 0.17678,-2.47488 0.88389,-0.35355 2.2981,0.17678 3.00521,-0.7071 0.7071,-0.88389 1.94454,-2.47488 3.0052,-2.2981 1.06066,0.17678 3.53553,-0.70711 3.53553,-0.70711 0,0 1.76777,-0.53033 1.76777,-1.41421 0,0 10.25305,-0.26516 11.84404,-1.23744 1.59099,-0.97227 1.76777,-0.79549 1.76777,-0.79549 0,0 -0.70711,-3.88909 -0.35356,-4.15425 0.35356,-0.26517 1.14905,-0.53033 1.85616,-1.23744 0.7071,-0.70711 1.78293,-0.7526 2.7552,-0.57583 0.97227,0.17678 4.49264,2.25521 4.0507,4.19975 -0.44194,1.94454 -1.94454,5.56847 -0.35355,5.65686 1.59099,0.0884 2.82842,-0.0884 3.09359,0.97227 0.26516,1.06066 0.53033,1.85615 1.06066,2.03293 0.53033,0.17678 2.38648,-0.53033 2.35491,-0.83268 -0.0316,-0.30235 -0.75,1.0625 -1.4375,2.3125 C 394,287.6875 393,288.625 393,288.625 c -2.125,0.875 -2.5,3.625 -3.25,2.5 C 389,290 388,290 388.875,288.375 c 0.875,-1.625 1.5,-1.375 1.25,-2.875 -0.25,-1.5 0.75,-1.625 -0.5,-1.75 -1.25,-0.125 -0.625,-0.125 -2.125,0.375 -1.5,0.5 -1.375,-1.125 -2.625,0.875 -1.25,2 -1.625,1.875 -2.5,2.375 -0.875,0.5 -0.5,1.125 -1.125,1.875 -0.625,0.75 -0.875,1.125 -1.375,1.75 -0.5,0.625 -0.625,0.625 -0.625,2 0,1.375 1.125,3.625 1.125,3.625 0,0 -0.625,1.75 -1.375,2.125 -0.75,0.375 -0.875,-0.875 -4.125,2.875 -3.25,3.75 -2.875,4.125 -4.875,5 -2,0.875 -1.75,1 -1.875,1.5 -0.125,0.5 -1.5,1.125 -0.75,2.25 0.75,1.125 0,1.375 1.125,1.875 1.125,0.5 2.25,-0.5 2.125,1.125 -0.125,1.625 -1.375,3.25 -3.375,4.5 -2,1.25 -4.625,5.125 -7.25,5.75 -2.625,0.625 -3.75,1.5 -3.625,2.75 0.125,1.25 0,2.75 -1.375,2.75 -1.375,0 -0.5,0.625 -0.5,3.625 0,3 0.25,3.875 0.875,5 0.625,1.125 0.875,1.125 0.875,2.875 0,1.75 0,3 -0.125,3.5 -0.125,0.5 1,0.375 -0.875,1.5 -1.875,1.125 -3.5,1.75 -4.25,-0.125 -0.75,-1.875 -2.25,-1.375 -2.375,-2.875 -0.125,-1.5 0.5,-5.125 0.5,-5.125 0,0 -1.875,-0.5 -2.125,-1.5 -0.25,-1 -1,-3.375 -1.5,-3.75 -0.5,-0.375 -1.5,-1.25 -2.5,-0.75 -1,0.5 -2.75,1.5 -3.375,1.375 C 339,332.75 340.5,333 337,332 c -3.5,-1 -5.125,-1.5 -6.625,-1.625 -1.5,-0.125 -5,-0.125 -5.625,0 -0.625,0.125 -6.625,1.5 -7.375,1.5 -0.75,0 -6,1.25 -7.375,2.375 -1.375,1.125 -1.25,3 -2.75,3.625 -1.5,0.625 -2,0.875 -2,0.875 0,0 -1.5,1.75 -1.625,2.75 -0.125,1 -1.375,2.75 -2,3.125 -0.625,0.375 -0.75,0.25 -0.375,1.375 0,0 -2,-1.25 -2,-2.125 0,-0.875 1.5,-2 1.875,-3.625 0.375,-1.625 1.125,-3.125 1.125,-4 0,-0.875 -0.125,-3.5 -0.125,-3.5 0,0 -1.25,-4.625 -0.875,-5.375 0.375,-0.75 -1.375,-1 -1.375,-1 0,0 -0.625,-1.875 -0.125,-2.5 0.5,-0.625 2.375,-0.625 2.875,-0.875 0.5,-0.25 2.25,-0.75 2.25,-0.75 0,0 1,-5.5 1,-6.125 0,-0.625 0.75,-4 0.75,-4.625 0,-0.625 3.375,-1.875 3.875,-2.125 0.5,-0.25 2.25,1.125 2.375,-0.25 0.125,-1.375 0,-4.5 0.125,-5.375 0.125,-0.875 0.5,-1.5 1,-1.75 0.5,-0.25 11.375,-0.125 11.875,-0.625 0.5,-0.5 -0.5,-36.625 0.36639,-37.10019 z"
     id="alaska"
     sodipodi:nodetypes="csssssssssssssssssssssssssssssssssssssscsssssssssssssssscsssssssssscssccsscssccssccssssc"
     inkscape:connector-curvature="0"
     transform="matrix(4.0580112,0,0,5.57412,-1202.5337,-1460.033)" />
</svg>
