<?xml version="1.0" encoding="UTF-8" standalone="no"?>
<svg
   xmlns:dc="http://purl.org/dc/elements/1.1/"
   xmlns:cc="http://creativecommons.org/ns#"
   xmlns:rdf="http://www.w3.org/1999/02/22-rdf-syntax-ns#"
   xmlns:svg="http://www.w3.org/2000/svg"
   xmlns="http://www.w3.org/2000/svg"
   xmlns:sodipodi="http://sodipodi.sourceforge.net/DTD/sodipodi-0.dtd"
   xmlns:inkscape="http://www.inkscape.org/namespaces/inkscape"
   id="svg2"
   sodipodi:version="0.32"
   inkscape:version="0.48.5 r10040"
   viewBox="0 0 750 520"
   preserveAspectRatio="xMidYMid meet"
   version="1.2"
   sodipodi:docname="eastern_australia.svg"
   inkscape:output_extension="org.inkscape.output.svg.inkscape"
   inkscape:export-filename="/home/kris/worldmap.png"
   inkscape:export-xdpi="90"
   inkscape:export-ydpi="90"
   style="enable-background:new"
   enable-background="new"
   width="100%"
   height="100%">
  <metadata
     id="metadata3188">
    <rdf:RDF>
      <cc:Work
         rdf:about="">
        <dc:format>image/svg+xml</dc:format>
        <dc:type
           rdf:resource="http://purl.org/dc/dcmitype/StillImage" />
        <dc:title></dc:title>
      </cc:Work>
    </rdf:RDF>
  </metadata>
  <defs
     id="defs3186" />
  <sodipodi:namedview
     pagecolor="#ffffff"
     bordercolor="#666666"
     borderopacity="1"
     objecttolerance="10"
     gridtolerance="10"
     guidetolerance="10"
     inkscape:pageopacity="0"
     inkscape:pageshadow="2"
     inkscape:window-width="1278"
     inkscape:window-height="726"
     id="namedview3184"
     showgrid="false"
     inkscape:zoom="0.45384615"
     inkscape:cx="285.17169"
     inkscape:cy="171.86441"
     inkscape:window-x="0"
     inkscape:window-y="24"
     inkscape:window-maximized="1"
     inkscape:current-layer="svg2" />
  <filter
     inkscape:collect="always"
     id="filter12871">
    <feGaussianBlur
       inkscape:collect="always"
       stdDeviation="0.5805759"
       id="feGaussianBlur12873" />
  </filter>
  <path
     style="fill:#ff00ff;fill-opacity:1;fill-rule:evenodd;stroke:#000000;stroke-width:1.20000005;stroke-linecap:butt;stroke-linejoin:miter;stroke-miterlimit:4.32165003;stroke-opacity:0.58527132;stroke-dasharray:none;stroke-dashoffset:0;display:inline;filter:url(#filter12871)"
     d="m 832.08791,509.72925 c 0,0 0.17677,0.53033 0.7071,-1.59099 0.53033,-2.12132 0.17678,-3.18198 0.88389,-4.77297 0.7071,-1.59099 1.06066,-1.41422 2.47487,-2.12132 1.41421,-0.70711 1.76777,-1.06066 2.12132,-1.76777 0.35355,-0.70711 1.41421,-0.88388 2.47487,-0.70711 1.06066,0.17678 1.59099,0.70711 2.47488,-0.53033 0.88388,-1.23743 0.7071,-1.59099 1.59099,-1.23743 0.88388,0.35355 0.35355,0.35355 1.59099,0.7071 1.23744,0.35356 2.47487,0.88389 4.94975,0.35356 2.47487,-0.53033 2.65165,-1.76777 2.82842,-0.35356 0.17678,1.41422 0.17678,1.59099 1.06066,1.59099 0.88389,0 0.88389,0.17678 0.35356,1.23744 -0.53033,1.06066 -0.17678,0.35355 -1.59099,2.2981 -1.41422,1.94454 -2.12132,2.12132 -2.2981,3.53553 -0.17678,1.41421 0.17678,2.2981 0.17678,2.2981 0,0 -0.70711,1.94454 0.53033,1.94454 1.23743,0 1.41421,-0.53033 3.0052,-0.70711 1.59099,-0.17677 3.0052,-0.35355 3.18198,1.23744 0.17678,1.59099 1.23744,4.5962 2.2981,4.77297 1.06066,0.17678 1.06066,0.53033 2.82842,0.17678 1.76777,-0.35355 2.47488,0.53033 2.65165,-1.06066 0.17678,-1.59099 0.17678,-1.94454 0.17678,-3.18198 0,-1.23744 -1.76777,0.7071 0.53033,-2.82843 2.2981,-3.53553 2.82843,-1.23744 2.2981,-5.12652 -0.53033,-3.88909 -1.59099,-3.53554 -0.70711,-6.01041 0.88389,-2.47487 0.53033,-2.47487 1.06066,-2.2981 0,0 1.59099,-0.17677 1.76777,2.2981 0.17678,2.47487 0.88388,4.59619 0.88388,5.65685 0,1.06066 0.70711,4.94975 0.70711,4.94975 0,0 1.23744,1.41421 1.94454,0.88388 0.70711,-0.53033 1.76777,-0.7071 1.76777,-1.94454 0,-1.23744 0.35355,-2.65165 0.70711,-1.94454 0.35355,0.7071 1.41421,1.23743 1.41421,2.29809 0,1.06066 -0.17678,2.12132 0,3.18198 0.17678,1.06066 1.23744,2.12133 1.23744,2.12133 0,0 0.35355,2.12132 0.35355,2.82842 0,0.70711 0.35355,1.23744 0,3.00521 -0.35355,1.76776 -0.35355,1.94454 -0.17678,3.53553 0.17678,1.59099 0.35356,2.2981 1.06066,2.47487 0.70711,0.17678 0.70711,0.17678 1.41422,0.17678 0.7071,0 0.88388,-0.70711 1.41421,0.17678 0.53033,0.88388 0.70711,1.41421 1.94454,1.59099 1.23744,0.17677 2.2981,0 2.2981,0 0,0 0.53033,0.88388 0.53033,1.94454 0,1.06066 -0.17677,1.41421 0.17678,2.82843 0.35355,1.41421 0.35355,1.59099 1.23744,1.76777 0.88388,0.17677 1.41421,0.35355 1.41421,0.35355 0,0 0.17678,0.88388 0.17678,2.2981 0,1.41421 0.35355,2.29809 0.35355,2.29809 l 1.41421,1.06066 c 0,0 0.35356,0.88389 1.06066,1.76777 0.70711,0.88388 1.41422,1.06066 1.41422,1.06066 0,0 0.53033,1.06066 0.7071,1.94454 0.17678,0.88389 -0.35355,0.35356 0.70711,1.59099 1.06066,1.23744 1.23744,1.59099 1.23744,2.65165 0,1.06066 0.88388,1.76777 0.53033,3.18198 -0.35356,1.41422 -0.17678,1.94455 -0.35356,3.71232 -0.17677,1.76776 0.17678,-0.35356 -0.17677,2.65165 -0.35356,3.0052 -0.17678,3.88908 -0.35356,4.94974 -0.17677,1.06066 -0.53033,0.17678 -0.7071,2.12132 -0.17678,1.94455 -0.35356,3.53554 -0.35356,3.53554 0,0 -1.23743,1.76776 -2.12132,1.76776 -0.88388,0 -2.47487,-0.7071 -2.47487,0.17678 0,0.88388 -0.88388,1.59099 0.35355,1.94454 1.23744,0.35356 1.59099,-0.7071 1.59099,0.53033 0,1.23744 -0.35355,1.591 -1.41421,2.47488 -1.06066,0.88388 -1.06066,0.70711 -2.2981,1.41421 -1.23743,0.70711 -0.53033,-0.35355 -1.41421,1.94455 -0.88388,2.29809 -0.70711,2.29809 -1.41421,3.18198 -0.70711,0.88388 -0.88389,0.88388 -1.23744,1.94454 -0.35356,1.06066 -0.35356,1.41421 -0.35356,2.65165 0,1.23744 -0.35355,1.76777 -0.35355,1.76777 0,0 -1.41421,1.41421 -1.41421,2.65165 0,1.23743 0.88388,1.76776 0.17677,2.65165 -0.7071,0.88388 0,0.88388 -1.59099,1.06066 -1.59099,0.17678 -2.29809,0.17678 -2.29809,0.17678 l -2.47488,0.53033 c 0,0 -0.35355,-1.06067 -1.23743,-0.53033 -0.88389,0.53033 -0.53033,0.35355 -1.23744,1.23743 -0.70711,0.88389 -0.88388,0.88389 -1.76777,1.41422 -0.88388,0.53033 0,0.7071 -0.53033,1.59099 -0.53033,0.88388 -0.7071,1.76776 -1.76776,1.23743 -1.06066,-0.53033 -1.41422,-0.35355 -1.76777,-1.41421 -0.35355,-1.06066 0.17678,-1.23744 -1.59099,-1.76777 -1.76777,-0.53033 -1.94455,-0.53033 -1.94455,-0.53033 0,0 -0.53033,0.35356 -0.88388,1.23744 -0.35355,0.88388 0.17678,1.23744 -1.06066,1.76777 -1.23744,0.53033 -1.23744,1.06066 -2.47487,0.17677 l 0.23542,-0.26947 c 0,0 0,-5.65685 0.17678,-7.07107 0.17678,-1.41421 -0.35355,-1.23743 -1.06066,-2.29809 -0.70711,-1.06066 0.88388,-42.24963 0.70711,-43.13352 -0.17678,-0.88388 -29.87526,0.35356 -29.87526,0.35356 l -0.58898,-37.73752 z"
     id="eastern_australia"
     sodipodi:nodetypes="csssssssssssssssssssssssssssssssssssssscsssssssssssssssscsssssssssscssccsscssccssccssssc"
     inkscape:connector-curvature="0"
     transform="matrix(5.6265687,0,0,4.3859527,-4665.7102,-2159.9351)" />
</svg>
