<?xml version="1.0" encoding="UTF-8" standalone="no"?>
<svg
   xmlns:dc="http://purl.org/dc/elements/1.1/"
   xmlns:cc="http://creativecommons.org/ns#"
   xmlns:rdf="http://www.w3.org/1999/02/22-rdf-syntax-ns#"
   xmlns:svg="http://www.w3.org/2000/svg"
   xmlns="http://www.w3.org/2000/svg"
   xmlns:sodipodi="http://sodipodi.sourceforge.net/DTD/sodipodi-0.dtd"
   xmlns:inkscape="http://www.inkscape.org/namespaces/inkscape"
   id="svg2"
   sodipodi:version="0.32"
   inkscape:version="0.48.5 r10040"
   viewBox="0 0 750 520"
   preserveAspectRatio="xMidYMid meet"
   version="1.2"
   sodipodi:docname="north_africa.svg"
   inkscape:output_extension="org.inkscape.output.svg.inkscape"
   inkscape:export-filename="/home/kris/worldmap.png"
   inkscape:export-xdpi="90"
   inkscape:export-ydpi="90"
   style="enable-background:new"
   enable-background="new"
   width="100%"
   height="100%">
  <metadata
     id="metadata3188">
    <rdf:RDF>
      <cc:Work
         rdf:about="">
        <dc:format>image/svg+xml</dc:format>
        <dc:type
           rdf:resource="http://purl.org/dc/dcmitype/StillImage" />
        <dc:title></dc:title>
      </cc:Work>
    </rdf:RDF>
  </metadata>
  <defs
     id="defs3186" />
  <sodipodi:namedview
     pagecolor="#ffffff"
     bordercolor="#666666"
     borderopacity="1"
     objecttolerance="10"
     gridtolerance="10"
     guidetolerance="10"
     inkscape:pageopacity="0"
     inkscape:pageshadow="2"
     inkscape:window-width="1278"
     inkscape:window-height="726"
     id="namedview3184"
     showgrid="false"
     inkscape:zoom="0.45384615"
     inkscape:cx="375"
     inkscape:cy="290.61062"
     inkscape:window-x="0"
     inkscape:window-y="24"
     inkscape:window-maximized="1"
     inkscape:current-layer="svg2" />
  <filter
     inkscape:collect="always"
     id="filter12871">
    <feGaussianBlur
       inkscape:collect="always"
       stdDeviation="0.5805759"
       id="feGaussianBlur12873" />
  </filter>
  <path
     style="fill:green;fill-opacity:1;fill-rule:evenodd;stroke:#000000;stroke-width:1.20000005;stroke-linecap:butt;stroke-linejoin:miter;stroke-miterlimit:4.32165003;stroke-opacity:0.58527132;stroke-dasharray:none;stroke-dashoffset:0;display:inline;filter:url(#filter12871)"
     d="m 575.58492,429.29585 c -0.17678,-0.88388 -3.88909,0.17678 -4.77297,-0.17678 -0.88388,-0.35355 -1.41421,-1.06066 -1.41421,-1.06066 0,0 -0.70711,-2.12132 -0.88389,-3.18198 -0.17677,-1.06066 -2.65165,0.17678 -3.53553,0 -0.88388,-0.17677 -0.17678,-1.41421 -0.53033,-2.65165 -0.35355,-1.23743 -1.76777,-0.7071 -2.65165,-0.7071 -0.88389,0 -2.2981,-0.70711 -3.53554,-1.59099 -1.23743,-0.88389 -1.59099,0.35355 -3.0052,0.53033 -1.41421,0.17677 -1.41421,-0.17678 -1.94454,-1.06066 -0.53033,-0.88389 -2.2981,0.53033 -3.88909,0.35355 -1.59099,-0.17678 -1.23744,-0.88388 -2.12132,-2.2981 -0.88388,-1.41421 -1.76777,-0.35355 -3.71231,-0.88388 -1.94454,-0.53033 -1.23744,-0.70711 -1.41421,-2.12132 -0.17678,-1.41421 -1.41422,-1.23744 -1.41422,-1.23744 0,0 -0.17678,-1.59099 -0.35355,-2.82843 -0.17678,-1.23743 0.17677,-3.18198 0.17677,-3.88908 0,-0.70711 -0.35355,-3.35876 -1.59099,-3.88909 -1.23743,-0.53033 -0.35355,-1.76777 -0.35355,-1.76777 0,0 -0.53033,-1.76776 -0.35355,-2.65165 0.17677,-0.88388 1.41421,-1.94454 2.29809,-1.94454 0.88389,0 1.41422,-1.06066 1.41422,-1.06066 0,0 -1.41422,-2.12132 -2.12132,-3.35876 -0.70711,-1.23743 1.23744,-1.06066 1.23744,-1.06066 l 0.88388,-1.06066 c 0,0 0.35355,-0.53033 1.94454,-1.41421 1.59099,-0.88389 0.68311,-2.90866 0.68311,-2.90866 0,0 1.625,0.125 3.25,0.375 1.625,0.25 1.375,1 2.375,2 1,1 1.375,1.25 3.5,2 2.125,0.75 2.25,1.125 3.625,1.125 1.375,0 3.625,-1.25 4.5,-1.625 0.875,-0.375 2.375,-0.5 8.375,-0.875 6,-0.375 6,3.5 7.375,3 1.375,-0.5 2.875,0 3.625,0.25 0.75,0.25 2.875,1 4.125,1 1.25,0 2.625,0.75 3.125,1 0.5,0.25 6.25,1.5 6.875,1.5 l 1.625,-1.5 1.25,0.375 c 0,0 1,0.5 1.5,0.5 0.5,0 0.75,-0.875 0.75,-0.875 l 2,-1.25 2.25,4.375 c 0,0 -1,2.625 -1,3.375 0,0.75 -0.125,2.625 -0.625,2.75 -0.5,0.125 -1.125,-0.125 -1.875,-0.625 -0.75,-0.5 -1.5,-1.875 -2.625,-2.625 -1.125,-0.75 0,2.5 0,2.5 -0.125,0.5 2.375,3.875 6.75,9.875 4.375,6 0.5,3 1.375,4.5 0.875,1.5 1.75,2 2,4.25 0.25,2.25 0.125,1.125 0.5,2.25 L 609,422.75 c 0.125,1.625 -27.25,0 -28.875,0.5 -1.625,0.5 -1.25,5.25 -1.875,5 -0.625,-0.25 -2.66508,1.04585 -2.66508,1.04585 z"
     id="alaska"
     sodipodi:nodetypes="csssssssssssssssssssssssssssssssssssssscsssssssssssssssscsssssssssscssccsscssccssccssssc"
     inkscape:connector-curvature="0"
     transform="matrix(6.372086,0,0,7.1350248,-3401.1942,-2708.8661)" />
</svg>
