<?xml version="1.0" encoding="UTF-8" standalone="no"?>
<svg
   xmlns:dc="http://purl.org/dc/elements/1.1/"
   xmlns:cc="http://creativecommons.org/ns#"
   xmlns:rdf="http://www.w3.org/1999/02/22-rdf-syntax-ns#"
   xmlns:svg="http://www.w3.org/2000/svg"
   xmlns="http://www.w3.org/2000/svg"
   xmlns:sodipodi="http://sodipodi.sourceforge.net/DTD/sodipodi-0.dtd"
   xmlns:inkscape="http://www.inkscape.org/namespaces/inkscape"
   id="svg2"
   sodipodi:version="0.32"
   inkscape:version="0.48.5 r10040"
   viewBox="0 0 750 520"
   preserveAspectRatio="xMidYMid meet"
   version="1.2"
   sodipodi:docname="iceland.svg"
   inkscape:output_extension="org.inkscape.output.svg.inkscape"
   inkscape:export-filename="/home/kris/worldmap.png"
   inkscape:export-xdpi="90"
   inkscape:export-ydpi="90"
   style="enable-background:new"
   enable-background="new"
   width="100%"
   height="100%">
  <metadata
     id="metadata3188">
    <rdf:RDF>
      <cc:Work
         rdf:about="">
        <dc:format>image/svg+xml</dc:format>
        <dc:type
           rdf:resource="http://purl.org/dc/dcmitype/StillImage" />
        <dc:title></dc:title>
      </cc:Work>
    </rdf:RDF>
  </metadata>
  <defs
     id="defs3186" />
  <sodipodi:namedview
     pagecolor="#ffffff"
     bordercolor="#666666"
     borderopacity="1"
     objecttolerance="10"
     gridtolerance="10"
     guidetolerance="10"
     inkscape:pageopacity="0"
     inkscape:pageshadow="2"
     inkscape:window-width="1278"
     inkscape:window-height="726"
     id="namedview3184"
     showgrid="false"
     inkscape:zoom="0.45384615"
     inkscape:cx="375"
     inkscape:cy="348.13559"
     inkscape:window-x="0"
     inkscape:window-y="24"
     inkscape:window-maximized="1"
     inkscape:current-layer="svg2" />
  <filter
     inkscape:collect="always"
     id="filter12871">
    <feGaussianBlur
       inkscape:collect="always"
       stdDeviation="0.5805759"
       id="feGaussianBlur12873" />
  </filter>
  <path
     style="fill:blue;fill-opacity:1;fill-rule:evenodd;stroke:#000000;stroke-width:1.20000005;stroke-linecap:butt;stroke-linejoin:miter;stroke-miterlimit:4.32165003;stroke-opacity:0.58527132;stroke-dasharray:none;stroke-dashoffset:0;display:inline;filter:url(#filter12871)"
     d="m 466.5137,294.23847 c 0,0 -0.35354,0.53032 -1.76776,0.53032 -1.41422,0 -1.591,-0.17678 -2.47488,0.35356 -0.88388,0.53032 -1.94453,0.7071 -2.82842,0.88388 -0.88388,0.17677 -1.94455,1.23743 -1.94455,1.23743 0,0 0,0.70711 -1.23743,1.06066 -1.23745,0.35355 -1.06066,0.17679 -2.29811,0.17679 -1.23742,0 -0.88388,-1.06067 -1.06065,-1.76778 0,0 -4.1519,0.41167 -2.9019,-0.33833 1.25001,-0.75 2.25001,-0.25 1.37501,-0.875 -0.87501,-0.62499 -2.25,-0.75 -0.75,-1 1.49999,-0.25 1.87499,0 1.87499,-0.5 0,-0.5 -1,0.625 0,-1 1.00001,-1.625 1.25,-1.625 1.87501,-2.125 0.625,-0.5 0.25,-1.99999 1.125,-1.75 0.87499,0.25001 1.875,0.5 1.875,0.5 l 0.5,-1 c 0,0 -3.12501,-0.125 -3.375,-0.625 0,0 -1.625,-1.125 -2.125,-1.125 -0.5,0 -1.625,0.125 -1.25,-0.375 0.37499,-0.5 1.125,-1.99999 1.125,-1.99999 0,0 -1.625,-1.25001 -1,-1.75001 0.625,-0.49999 0.74999,-0.375 0.74999,-1.25 0,-0.87499 -1.125,-1 0.125,-2.25 1.25001,-1.25 1.5,-1 2.37501,-1.75 0.87499,-0.75 0.87499,-0.875 1.49999,-0.25 0.62501,0.62501 0.62501,1.625 1.75001,0.25 1.125,-1.375 1.25,-2.125 1.25,-2.125 0,0 -0.5,0.125 1.37499,-0.875 1.87501,-0.99999 0.375,-1.875 3.125,-1.49999 2.75,0.37499 2.25,0.5 2.875,0.37499 0.62501,-0.125 1,-1.75 1.37501,-0.37499 0.375,1.37499 -0.50001,1.625 1.24999,2.12499 1.75,0.5 2.50001,0.25 2.00001,1.12501 -0.5,0.87499 -0.625,0.74999 -0.125,1.49999 0.5,0.75001 0.87499,1.125 0.87499,1.75 0,0.62501 -0.37499,1.12501 -1.24999,1.5 -0.87501,0.375 -0.75,-0.125 -1.875,1 -1.125,1.125 -1.75001,0.87501 -1.75001,0.87501 0,0 -0.24999,-0.625 -0.99999,-0.12501 -0.75001,0.5 -0.375,1.25 -1.5,0.5 -1.125,-0.75 -2.50001,-0.75 -2.50001,-0.75 0,0 -0.5,0 -0.37499,0.75 0.125,0.75 0.75,3.25 0.75,3.25 0,0 1.125,2 0.74999,2.87501 -0.37499,0.87499 -2.25,1.37499 -0.625,1.49999 1.625,0.12501 1.50001,-0.25 1.50001,0.875 0,1.125 0,1.75 1,1.625 1,-0.12499 1.75,1 1.63869,0.86347 z m 12.19759,-10.96017 c -0.53033,-0.61872 -0.26516,-0.53033 -0.44194,-1.14905 -0.17678,-0.61872 0.0884,-0.7071 0.0884,-1.32582 0,-0.61872 0.0884,-0.88389 0.35355,-1.67938 0.26517,-0.7955 -1.41421,-1.5026 -1.41421,-2.12132 0,-0.61872 -1.06066,-1.41422 -1.23744,-1.76777 -0.17678,-0.35355 -0.70711,-0.79549 -1.32582,-0.70711 -0.61872,0.0884 -0.61872,0.44195 -1.32583,0.7955 -0.70711,0.35355 -0.70711,-0.17678 -1.23744,-0.61872 -0.53033,-0.44194 -0.44194,-0.97227 -0.44194,-1.94454 0,-0.97227 0.0884,-0.53033 0.44194,-0.97227 0.35356,-0.44195 0.44195,-0.35356 0.97228,-0.97228 0.53033,-0.61871 0.26516,-0.44194 0.26516,-1.06066 0,-0.61872 0,-1.14905 -0.26516,-1.85615 -0.26517,-0.70711 -0.97228,-0.17678 -1.23744,-0.88389 -0.26517,-0.7071 -0.35355,-0.53033 -0.7955,-0.79549 -0.44194,-0.26517 -0.61871,-0.0884 -1.59099,-0.17678 -0.97227,-0.0884 -0.26516,-0.61872 -0.35355,-0.97227 -0.0884,-0.35355 -0.0884,-0.53033 -0.26516,-1.5026 -0.17678,-0.97227 -0.61872,-0.26517 -1.14905,-0.17678 -0.53033,0.0884 -0.70711,0.0884 -0.88389,-0.79549 -0.17677,-0.88389 0,-0.53033 -0.0884,-0.97227 -0.0884,-0.44195 -0.17677,-0.44195 -0.79549,-1.41422 -0.61872,-0.97227 0.0884,-0.44194 0.79549,-0.97227 0.70711,-0.53033 0.61872,-0.7955 1.23744,-1.23744 0.61872,-0.44194 0,-0.61872 -0.17678,-1.32582 -0.17677,-0.70711 -0.53033,-0.88389 -0.53033,-0.88389 0,0 -0.61871,0.17678 -1.67937,0.17678 -1.06066,0 -0.97228,-0.17678 -1.50261,-0.88388 -0.53033,-0.70711 0.0884,-0.70711 0.88389,-1.32583 0.79549,-0.61872 0.53033,-0.97227 1.32582,-1.85615 0.7955,-0.88389 1.23744,-0.7955 2.20971,-0.97227 0.97227,-0.17678 0.53033,-0.70711 0.97227,-1.76777 0.44195,-1.06066 0.61872,-1.23744 0.88389,-1.85616 0.26516,-0.61872 0.79549,-1.41421 0.97227,-2.56326 C 471.55184,243.59193 473,245.5 476,244.5 c 3,-1 3,0 3,0 0,0 1.5,2.5 -1,3.5 -2.5,1 -1,5 -1,5 l 0.73902,0.0495 c 0,0 0.88388,-0.70711 1.59099,-0.7955 0.70711,-0.0884 0.61872,0.35355 1.5026,0.35355 0.88389,0 0.70711,-0.53033 1.76777,-1.23743 1.06066,-0.70711 0.79549,0.79549 0.79549,1.41421 0,0.61872 1.41422,2.38649 1.41422,2.38649 l -0.35356,0.61871 c 0,0 -0.61871,0.35356 -0.61871,1.32583 0,0.97227 -0.26517,0.70711 -0.44195,1.14905 -0.17677,0.44194 -0.53033,0.44194 -0.97227,0.7071 -0.44194,0.26517 0.0884,0.44195 0.26517,1.32583 0.17677,0.88388 -0.0884,0.44194 -0.53033,0.53033 -0.44194,0.0884 -0.88389,0.0884 -1.23744,0.70711 -0.35355,0.61872 -0.0884,0.7071 -0.61872,1.41421 -0.53033,0.70711 -0.44194,0.44194 -1.59099,0.7955 -1.14905,0.35355 -0.61872,0.35355 -0.35355,1.67937 0.26516,1.32583 1.14905,-0.44194 2.74004,-0.61871 1.59099,-0.17678 1.23743,0 2.29809,0 1.06066,0 0.61872,0.0884 1.32583,0.61871 0.70711,0.53033 0.17678,0.7955 0.53033,1.41422 0.35355,0.61872 0.70711,0.26516 1.14905,0.88388 0.44194,0.61872 0,1.23744 0,2.12132 0,0.88389 0,0.7955 0,0.7955 0,0 1.06066,3.18198 2.47487,3.97747 1.41422,0.7955 0.88389,0.7955 1.5026,1.32583 0.61872,0.53033 1.76777,3.44714 2.12132,3.88909 0.35356,0.44194 0.35356,0.79549 0.53033,2.38648 0.17678,1.59099 0,1.23744 -0.17677,1.85616 -0.17678,0.61871 -0.26517,0.53033 -0.53033,1.5026 -0.26517,0.97227 0,1.14905 0,1.5026 0,0.35355 0.53033,0.61872 2.29809,-0.26517 1.76777,-0.88388 1.06066,-0.61871 2.20971,-0.97227 1.14905,-0.35355 0.88389,-0.44194 1.94455,-0.17677 1.06066,0.26516 0.88388,0.44194 1.85615,1.41421 0.97227,0.97227 0.35356,1.14905 0.61872,1.85615 0.26517,0.70711 -0.0884,0.61872 -0.35355,1.32583 -0.26517,0.70711 -0.26517,0.61872 -0.70711,1.5026 -0.44194,0.88389 -0.17678,0.70711 -0.53033,1.23744 -0.35355,0.53033 -0.61872,0.26516 -1.67938,0.53033 -1.06066,0.26516 -0.88388,0.88388 -1.41421,1.41421 -0.53033,0.53033 -0.35356,0.70711 -0.44194,1.14905 -0.0884,0.44194 0.44194,1.23744 0.44194,1.23744 0,0 0.79549,0.35355 1.23743,0.79549 0.44195,0.44194 0.26517,0.7955 -0.26516,1.67938 -0.53033,0.88389 -0.70711,0.44194 -1.76777,0.88389 -1.06066,0.44194 -1.41421,0 -2.47487,-0.0884 -1.06066,-0.0884 -0.97227,0.35355 -2.47487,0.88388 -1.50261,0.53033 -1.41422,0.0884 -2.56327,0 -1.14905,-0.0884 -1.06066,-0.0884 -2.20971,0 -1.14904,0.0884 -1.06066,0.44194 -2.38648,1.23744 -1.32583,0.79549 -0.7955,0 -1.23744,-0.35356 -0.44194,-0.35355 -0.7071,-0.44194 -1.32582,-1.06066 -0.61872,-0.61871 -0.61872,-0.35355 -1.14905,-0.17677 -0.53033,0.17677 -1.67938,2.20971 -2.47488,2.56326 -0.79549,0.35355 -0.88388,0.17678 -2.03293,0.17678 -1.14905,0 -0.79549,0 -1.32582,0.0884 -0.53033,0.0884 -0.88389,0.97228 -1.59099,1.76777 -0.70711,0.7955 -0.53033,0.26517 -1.85616,0.44194 -1.32582,0.17678 -1.23743,-0.0884 -1.41421,-0.44194 -0.17678,-0.35355 0.17678,-0.35355 0.61872,-0.97227 0.44194,-0.61872 1.23743,-1.76777 1.76776,-2.65165 0.53033,-0.88388 0.7955,-0.44194 2.12132,-1.23744 1.32583,-0.79549 0.26517,-0.35355 0.88389,-1.67938 0.61872,-1.32582 0.7071,-1.32582 2.03293,-1.76776 0,0 0.57164,-1.17044 -0.55336,-1.79544 C 475,295 474.5,295.25 473.375,294.75 c -1.125,-0.5 -2,-0.25 -1.75,-0.9375 C 472.75,292.5 473,291.875 473.375,291.25 473.75,290.625 473.5,290 474,290 c 0.5,0 0.75,0.25 1.375,-0.125 0.625,-0.375 0.75,-0.625 0.75,-1.375 0,-0.75 -0.125,-1 0.125,-1.75 0.25,-0.75 1,-1.375 0.375,-1.875 C 476,284.375 476.5,284.5 475.75,284.25 475,284 474.5,283.5 474.5,283.5 l 0.25,-1 0.1875,-1.75 c 0,0 0.1875,0.125 1.4375,0.625 1.25,0.5 2,2.125 2,2.125 0.26575,0.47231 0.6515,0.45957 0.33629,-0.2217 z"
     id="alaska"
     sodipodi:nodetypes="csssssssssssssssssssssssssssssssssssssscsssssssssssssssscsssssssssscssccsscssccssccssssc"
     inkscape:connector-curvature="0"
     transform="matrix(6.836934,0,0,6.6968079,-3042.896,-1605.2969)" />
</svg>
