<?xml version="1.0" encoding="UTF-8" standalone="no"?>
<svg
   xmlns:dc="http://purl.org/dc/elements/1.1/"
   xmlns:cc="http://creativecommons.org/ns#"
   xmlns:rdf="http://www.w3.org/1999/02/22-rdf-syntax-ns#"
   xmlns:svg="http://www.w3.org/2000/svg"
   xmlns="http://www.w3.org/2000/svg"
   xmlns:sodipodi="http://sodipodi.sourceforge.net/DTD/sodipodi-0.dtd"
   xmlns:inkscape="http://www.inkscape.org/namespaces/inkscape"
   id="svg2"
   sodipodi:version="0.32"
   inkscape:version="0.48.5 r10040"
   viewBox="0 0 750 520"
   preserveAspectRatio="xMidYMid meet"
   version="1.2"
   sodipodi:docname="argentina.svg"
   inkscape:output_extension="org.inkscape.output.svg.inkscape"
   inkscape:export-filename="/home/kris/worldmap.png"
   inkscape:export-xdpi="90"
   inkscape:export-ydpi="90"
   style="enable-background:new"
   enable-background="new"
   width="100%"
   height="100%">
  <metadata
     id="metadata3188">
    <rdf:RDF>
      <cc:Work
         rdf:about="">
        <dc:format>image/svg+xml</dc:format>
        <dc:type
           rdf:resource="http://purl.org/dc/dcmitype/StillImage" />
        <dc:title></dc:title>
      </cc:Work>
    </rdf:RDF>
  </metadata>
  <defs
     id="defs3186" />
  <sodipodi:namedview
     pagecolor="#ffffff"
     bordercolor="#666666"
     borderopacity="1"
     objecttolerance="10"
     gridtolerance="10"
     guidetolerance="10"
     inkscape:pageopacity="0"
     inkscape:pageshadow="2"
     inkscape:window-width="1278"
     inkscape:window-height="726"
     id="namedview3184"
     showgrid="false"
     inkscape:zoom="0.45384615"
     inkscape:cx="375"
     inkscape:cy="348.13559"
     inkscape:window-x="0"
     inkscape:window-y="24"
     inkscape:window-maximized="1"
     inkscape:current-layer="svg2" />
  <filter
     inkscape:collect="always"
     id="filter12871">
    <feGaussianBlur
       inkscape:collect="always"
       stdDeviation="0.5805759"
       id="feGaussianBlur12873" />
  </filter>
  <path
     style="fill:blue;fill-opacity:1;fill-rule:evenodd;stroke:#000000;stroke-width:1.20000005;stroke-linecap:butt;stroke-linejoin:miter;stroke-miterlimit:4.32165003;stroke-opacity:0.58527132;stroke-dasharray:none;stroke-dashoffset:0;display:inline;filter:url(#filter12871)"
     d="m 474,212.5 c 0,0 2,1.875 2.50001,0.875 0.5,-0.99999 -0.625,-2.25 0.875,-1.125 1.49999,1.125 1.37499,0.75 1.875,1.375 0.5,0.625 3.49999,-1.5 2.37499,0.5 -1.125,2.00001 -1.87499,2.75 -1.125,2.62501 0.75001,-0.12501 -0.125,-0.75001 0.87501,0.5 1,1.24999 0.875,2.24999 2.25,1.125 l 1.24999,-3.875 c 0,0 3.50001,0.12499 3.25,1.37499 -0.24999,1.25 -1.125,1.125 0.75001,0.125 1.87499,-1 0.87499,-2.75 2.125,-1.625 1.25,1.125 1.875,2.25 2.375,1.125 0.5,-1.125 -1.125,-2.375 0.375,-2.125 1.49999,0.25 1.625,1.625 2.49999,0 0.87501,-1.62499 -0.12499,-2.5 1.25,-2.25 1.37501,0.25 0.75001,0.62501 1.75001,-0.25 0.99999,-0.875 0.75,-1.75 1.75,-0.875 1,0.875 1,1.25001 1,1.25001 0,0 1.99999,0.24999 2.49999,0.5 0.5,0.24999 -0.24999,-1.00001 0.25001,0.99999 0.5,2 0.625,2.625 1.25,2.375 0.62499,-0.25 1,-1.12499 1,0.50001 0,1.625 -1.125,2.12499 0.37499,1.87499 1.5,-0.24999 1.87501,-0.375 2,0.75 0.125,1.125 0.75001,2 0.75001,2 0,0 0.125,0.87501 0,1.37501 C 510,222.125 509.75001,222.375 510,223 c 0.25001,0.625 0.5,1.625 0,1.87501 -0.5,0.24999 -1.24999,0.74999 -2.125,0.87499 -0.87499,0.125 -1.37499,0.75 -1.625,1.37501 -0.24999,0.62499 0.75001,0.24999 -0.37499,1.625 -1.125,1.37499 -0.75001,1.625 -1.5,1.87499 -0.75,0.25001 -1.625,0.75 -1.625,0.75 l -3.375,0.5 -0.75001,-1.375 c 0,0 -0.49999,-1.125 -0.99999,-0.62499 -0.5,0.5 0.125,1.49999 -0.375,1.625 -0.5,0.12499 -1.75,-2.12501 -1.75,-1.125 0,0.99999 0.625,2.75 0.625,2.75 0,0 0.12499,1.49999 -0.5,1.74999 -0.625,0.25 -0.625,1.00001 -2.25,1.125 -1.625,0.125 -1.75,0.875 -2.62501,1 -0.875,0.125 -1.12499,1.875 -2.74999,0.625 -1.62501,-1.24999 -6.125,-3.25 -7.00001,-3 -0.87499,0.25 -1.24999,0.62501 -2.99999,0.12501 -1.75,-0.50001 -2.50001,0.62499 -2.87501,-0.12501 -0.37499,-0.75 -0.49999,0.375 -0.125,-1.375 0.37501,-1.74999 2.00001,-2.625 2.00001,-2.625 0,0 0.625,-0.375 0.5,-1 -0.125,-0.625 0,-0.87499 -0.75001,-1 -0.75,-0.125 -0.49999,-0.5 -0.87499,-1.49999 C 475.5,226.125 475.125,226.25 474.12501,226.5 c -1,0.25 -1.25001,1.375 -2.37501,0.125 -1.125,-1.25 -1.625,-1 -1.125,-1.74999 0.5,-0.75001 0.37501,-1.00001 1.625,-1.25001 1.25001,-0.25 1.37501,1 1.87501,-0.5 0.5,-1.49999 0.99999,-2.125 0.99999,-2.125 0,0 -0.49999,-0.25 -1.37499,-0.125 -0.87501,0.125 -0.625,1.125 -1.625,-0.87499 C 471.125,218 470,218 470,218 c 0,0 -0.24999,0 0.37501,-1 0.625,-1 1.24999,-1 1.87499,-2 0.625,-0.99999 -0.5,-1.875 0.37501,-2.75 0.875,-0.875 1.125,-0.25 1.125,-0.25 L 474,212.5 z"
     id="alaska"
     sodipodi:nodetypes="csssssssssssssssssssssssssssssssssssssscsssssssssssssssscsssssssssscssccsscssccssccssssc"
     inkscape:connector-curvature="0"
     transform="matrix(10.020945,0,0,12.617925,-4655.1187,-2609.78)" />
     <text
          xml:space="preserve"
          style="font-size:107.87071991px;font-style:normal;font-variant:normal;font-weight:bold;font-stretch:normal;text-align:start;line-height:125%;letter-spacing:0px;word-spacing:0px;writing-mode:lr-tb;text-anchor:start;fill:#800000;fill-opacity:1;stroke:none;display:inline;enable-background:new;font-family:Latin Modern Mono;-inkscape-font-specification:Latin Modern Mono Bold"
          x="40.32494"
          y="440.29465"
          id="alberta_text"
          sodipodi:linespacing="125%"
          inkscape:label="alberta"
          transform="scale(0.94301946,1.0604235)"><tspan
            sodipodi:role="line"
            id="tspan7513-9-23"
            x="40.32494"
            y="440.29465"
            style="font-size:107.87071991px;font-style:normal;font-variant:normal;font-weight:bold;font-stretch:normal;text-align:start;line-height:125%;writing-mode:lr-tb;text-anchor:start;fill:#800000;font-family:Latin Modern Mono;-inkscape-font-specification:Latin Modern Mono Bold">ICELAND</tspan></text>

</svg>
