<?xml version="1.0" encoding="UTF-8" standalone="no"?>
<svg
   xmlns:dc="http://purl.org/dc/elements/1.1/"
   xmlns:cc="http://creativecommons.org/ns#"
   xmlns:rdf="http://www.w3.org/1999/02/22-rdf-syntax-ns#"
   xmlns:svg="http://www.w3.org/2000/svg"
   xmlns="http://www.w3.org/2000/svg"
   xmlns:sodipodi="http://sodipodi.sourceforge.net/DTD/sodipodi-0.dtd"
   xmlns:inkscape="http://www.inkscape.org/namespaces/inkscape"
   id="svg2"
   sodipodi:version="0.32"
   inkscape:version="0.48.5 r10040"
   viewBox="0 0 750 520"
   preserveAspectRatio="xMidYMid meet"
   version="1.2"
   sodipodi:docname="middle_east.svg"
   inkscape:output_extension="org.inkscape.output.svg.inkscape"
   inkscape:export-filename="/home/kris/worldmap.png"
   inkscape:export-xdpi="90"
   inkscape:export-ydpi="90"
   style="enable-background:new"
   enable-background="new"
   width="100%"
   height="100%">
  <metadata
     id="metadata3188">
    <rdf:RDF>
      <cc:Work
         rdf:about="">
        <dc:format>image/svg+xml</dc:format>
        <dc:type
           rdf:resource="http://purl.org/dc/dcmitype/StillImage" />
        <dc:title></dc:title>
      </cc:Work>
    </rdf:RDF>
  </metadata>
  <defs
     id="defs3186" />
  <sodipodi:namedview
     pagecolor="#ffffff"
     bordercolor="#666666"
     borderopacity="1"
     objecttolerance="10"
     gridtolerance="10"
     guidetolerance="10"
     inkscape:pageopacity="0"
     inkscape:pageshadow="2"
     inkscape:window-width="1278"
     inkscape:window-height="726"
     id="namedview3184"
     showgrid="false"
     inkscape:zoom="0.45384615"
     inkscape:cx="969.84328"
     inkscape:cy="348.13559"
     inkscape:window-x="0"
     inkscape:window-y="24"
     inkscape:window-maximized="1"
     inkscape:current-layer="svg2" />
  <filter
     inkscape:collect="always"
     id="filter12871">
    <feGaussianBlur
       inkscape:collect="always"
       stdDeviation="0.5805759"
       id="feGaussianBlur12873" />
  </filter>
  <path
     style="fill:#a52a2a;fill-opacity:1;fill-rule:evenodd;stroke:#000000;stroke-width:1.20000005;stroke-linecap:butt;stroke-linejoin:miter;stroke-miterlimit:4.32165003;stroke-opacity:0.58527132;stroke-dasharray:none;stroke-dashoffset:0;display:inline;filter:url(#filter12871)"
     d="m 701.41304,335.5 c 0,0.86956 -1.08695,2.5 -2.2826,3.80435 -1.19566,1.30434 -4.89131,0.76087 -4.89131,0.76087 0,0 -2.71739,-1.52174 -3.69565,-2.5 -0.97826,-0.97826 -1.84783,-0.1087 -3.36957,0 -1.52174,0.10869 -1.41304,2.93478 -1.84782,3.91304 -0.43478,0.97826 -1.95652,0.65217 -2.71739,0.54348 -0.76087,-0.1087 -3.04348,0.65217 -3.58696,0.76087 -0.54348,0.10869 -0.54348,1.30435 -0.54348,2.06522 0,0.76086 -2.28261,2.2826 -2.71739,3.47826 -0.43478,1.19565 -3.20652,1.68478 -3.09782,1.52174 0.10869,-0.16304 -0.39171,2.28389 -0.37359,2.26578 0.0181,-0.0181 0.0488,1.66555 -0.84546,8.22396 -0.37369,2.7405 1.35322,1.19787 1.99835,2.76694 0.496,1.20636 0.46116,1.99834 0.46116,2.76694 0,0.76859 0.46115,2.15206 1.22975,3.38181 0.76859,1.22975 0.30743,1.22975 0.30743,2.45951 0,1.22975 1.53719,2.15206 2.45951,3.07437 0.92231,0.92232 0.30743,2.4595 -0.30744,3.68926 -0.61488,1.22975 1.22975,1.38347 1.38347,2.92065 0.15372,1.53719 1.15179,5.48613 1.23332,5.622 0.78863,0.13587 1.44139,-0.85671 2.14849,-1.03349 0.70711,-0.17678 3.00521,-0.88388 3.35876,0.35355 0.35355,1.23744 0.17678,3.18199 0.53033,3.88909 0.35355,0.70711 2.65165,1.59099 2.65165,1.59099 0,0 0.70711,0 1.41421,0 0.70711,0 1.06067,-0.88388 1.23744,0.35356 0.17678,1.23743 -0.17677,1.76776 0.17678,2.47487 0.35355,0.70711 2.65165,0.70711 2.65165,0.70711 0,0 2.2981,0 1.23744,1.06066 -1.06066,1.06066 -1.76777,1.23743 -2.12132,1.94454 -0.35356,0.70711 -1.06066,0.88388 -0.17678,1.23744 0.88388,0.35355 0.70711,-0.53033 1.41421,0.7071 0.70711,1.23744 0.53033,0.88389 1.06066,1.59099 0.53033,0.70711 -0.35355,0.88389 1.23744,1.06066 1.59099,0.17678 2.12132,0 2.12132,0 l 0.70711,-1.76776 c 0,0 0.88388,-1.23744 1.59099,0.17677 0.7071,1.41422 0.009,1.38389 -0.1679,3.15165 -0.17677,1.76777 -0.35355,3.51409 -0.35355,4.75153 0,1.23744 -0.75,1.94454 -0.57322,3.18198 0.17677,1.23744 0.42677,2.01777 0.42677,3.43198 0,1.41421 1.375,0.86244 1.375,2.09987 0,1.23744 -0.17677,1.59099 0.53033,2.2981 0.70711,0.70711 1.47488,2.24632 1.47488,2.95343 0,0.7071 0.68566,0.98743 0.68566,2.22487 0,1.23744 -0.0518,2.37132 0.65533,2.72488 0.7071,0.35355 1.86243,0.55177 1.86243,1.96599 0,1.41421 1.15533,2.93198 1.15533,2.93198 0,0 0.56066,1.28033 0.56066,1.98743 0,0.70711 1.20711,1.12132 1.20711,1.82843 0,0.70711 1.41422,0 2.2981,4.77297 0.88388,4.77297 1.41421,1.76777 2.82843,5.83363 1.41421,4.06587 2.12132,5.12653 3.0052,5.12653 0.88388,0 1.94454,-0.35356 2.12132,-1.23744 0.17678,-0.88388 0,-0.88388 0.88388,-1.23744 0.88389,-0.35355 0.70711,-0.17677 0.88389,-1.23743 0.17677,-1.06067 -0.70711,-1.23744 -0.35356,-1.94455 0.35356,-0.70711 -0.53033,-2.12132 0.88389,-2.12132 1.41421,0 2.47487,-1.23744 2.47487,-1.23744 0,0 -0.53033,-0.7071 -0.53033,-1.59099 0,-0.88388 -0.70711,1.76777 0,-2.12132 0.70711,-3.88908 1.06066,-4.59619 0.88388,-6.89429 -0.17677,-2.29809 -1.06066,-1.23743 0,-4.24264 1.06066,-3.0052 1.59099,-1.59099 1.59099,-3.88909 0,-2.29809 1.06066,-4.77297 1.23744,-6.18718 0.17678,-1.41421 0.70711,-0.35355 0.70711,-1.94454 0,-1.59099 -0.88389,-2.47488 0.17677,-3.53554 1.06066,-1.06066 2.47488,-1.41421 2.47488,-2.65165 0,-1.23743 0,-1.76776 0,-2.65165 0,-0.88388 0.35355,-2.65165 0.35355,-2.65165 0,0 2.2981,-0.17678 1.76777,-1.23744 -0.53033,-1.06066 -0.35355,-2.29809 0,-3.18198 0.35355,-0.88388 1.39816,-4.5848 2.89816,-3.5848 1.5,1 2,1 2,1 0,0 1.375,-1.375 1.25,-2 -0.125,-0.625 0.5,-1.75 0.5,-1.75 0,0 0.25,-1.75 0.75,-1.875 0.5,-0.125 2.875,-0.25 2.875,-0.25 0,0 -0.40441,-3.83002 0.5179,-3.90688 0.92232,-0.0769 1.38347,0.0769 1.61405,-0.92231 0.23058,-0.99917 0.99917,-1.99835 1.53719,-2.22893 0.53802,-0.23057 0.69173,-2.61322 0.69173,-2.61322 l 1.76777,-0.61487 c 0,0 0.46116,-3.91983 1.15289,-4.61157 0.69174,-0.69173 1.69091,-2.53636 1.69091,-2.53636 0,0 -2.53636,-6.99421 -2.92066,-7.3785 -0.3843,-0.3843 -9.76115,-0.53802 -9.83801,-0.23058 -0.0769,0.30744 -1.15289,1.76776 -1.61404,1.76776 -0.46116,0 -1.69091,-1.30661 -1.69091,-1.30661 0,0 0.3843,-3.61239 0.0769,-3.99669 -0.30744,-0.38429 -2.92066,-1.38347 -3.2281,-1.22975 -0.30744,0.15372 -0.92231,2.15207 -1.38347,2.15207 -0.46115,0 -3.68925,-1.76777 -3.99669,-2.99752 -0.30744,-1.22975 0.61488,-1.22975 -0.76859,-1.30661 -1.38347,-0.0769 -0.30744,1.38347 -2.38265,0.92231 -2.0752,-0.46115 -2.30578,-0.76859 -2.61322,-1.07603 -0.30743,-0.30744 -1.22975,-1.46033 -2.30578,-1.46033 -1.07603,0 -3.22809,-1.15289 -3.38181,-1.53719 -0.15372,-0.3843 -0.53802,-0.84545 -0.84546,-1.22975 -0.30744,-0.3843 -0.30744,-1.69091 -0.76859,-2.0752 -0.46116,-0.3843 -2.07521,0.92231 -2.4595,0.99917 -0.3843,0.0769 -1.69091,-0.46116 -1.46033,-1.22975 0.23058,-0.7686 0.61487,-1.76777 1.07603,-1.99835 0.46116,-0.23058 1.38347,-0.99917 1.46033,-1.53719 0.0769,-0.53801 0.3843,-0.76859 0.53801,-1.99834 0.15372,-1.22975 -0.53801,-4.07355 -0.69173,-4.99586 -0.15372,-0.92232 -0.15372,-3.76612 -0.15372,-3.76612 0,0 0.0769,-1.07603 0.0769,-1.38347 0,-0.30743 0.23058,-0.99917 0.23058,-0.99917 0,0 -1.38347,0.3843 -1.69091,0.46116 -0.30744,0.0769 -3.38181,0.0769 -3.68925,0.0769 -0.30744,0 -1.99835,-0.92232 -2.07521,-1.22975 -0.0769,-0.30744 -0.23057,-2.07521 -0.38429,-2.38265 -0.15372,-0.30743 -0.23058,-1.38347 -0.53802,-1.07603 l -1.38347,1.99835 0.0769,0.15372 c -1.92149,0.99917 -2.99752,0.61487 -3.08052,0.44918 z"
     id="india"
     sodipodi:nodetypes="csssssssssssssssssssssssssssssssssssssscsssssssssssssssscsssssssssscssccsscssccssccssssc"
     inkscape:connector-curvature="0"
     transform="matrix(4.4185,0,0,3.7561214,-2950.8609,-1233.5947)" />
</svg>
