<?xml version="1.0" encoding="UTF-8" standalone="no"?>
<svg
   xmlns:dc="http://purl.org/dc/elements/1.1/"
   xmlns:cc="http://creativecommons.org/ns#"
   xmlns:rdf="http://www.w3.org/1999/02/22-rdf-syntax-ns#"
   xmlns:svg="http://www.w3.org/2000/svg"
   xmlns="http://www.w3.org/2000/svg"
   xmlns:sodipodi="http://sodipodi.sourceforge.net/DTD/sodipodi-0.dtd"
   xmlns:inkscape="http://www.inkscape.org/namespaces/inkscape"
   id="svg2"
   sodipodi:version="0.32"
   inkscape:version="0.48.5 r10040"
   viewBox="0 0 750 520"
   preserveAspectRatio="xMidYMid meet"
   version="1.2"
   sodipodi:docname="afghanistan.svg"
   inkscape:output_extension="org.inkscape.output.svg.inkscape"
   inkscape:export-filename="/home/kris/worldmap.png"
   inkscape:export-xdpi="90"
   inkscape:export-ydpi="90"
   style="enable-background:new"
   enable-background="new"
   width="100%"
   height="100%">
  <metadata
     id="metadata3188">
    <rdf:RDF>
      <cc:Work
         rdf:about="">
        <dc:format>image/svg+xml</dc:format>
        <dc:type
           rdf:resource="http://purl.org/dc/dcmitype/StillImage" />
        <dc:title></dc:title>
      </cc:Work>
    </rdf:RDF>
  </metadata>
  <defs
     id="defs3186" />
  <sodipodi:namedview
     pagecolor="#ffffff"
     bordercolor="#666666"
     borderopacity="1"
     objecttolerance="10"
     gridtolerance="10"
     guidetolerance="10"
     inkscape:pageopacity="0"
     inkscape:pageshadow="2"
     inkscape:window-width="1278"
     inkscape:window-height="726"
     id="namedview3184"
     showgrid="false"
     inkscape:zoom="0.45384615"
     inkscape:cx="969.84328"
     inkscape:cy="348.13559"
     inkscape:window-x="0"
     inkscape:window-y="24"
     inkscape:window-maximized="1"
     inkscape:current-layer="svg2" />
  <filter
     inkscape:collect="always"
     id="filter12871">
    <feGaussianBlur
       inkscape:collect="always"
       stdDeviation="0.5805759"
       id="feGaussianBlur12873" />
  </filter>
  <path
     style="fill:#a52a2a;fill-opacity:1;fill-rule:evenodd;stroke:#000000;stroke-width:1.20000005;stroke-linecap:butt;stroke-linejoin:miter;stroke-miterlimit:4.32165003;stroke-opacity:0.58527132;stroke-dasharray:none;stroke-dashoffset:0;display:inline;filter:url(#filter12871)"
     d="m 807.42756,271.61104 c 0.26517,1.94454 -0.0884,0.97227 -0.0884,0.97227 0,0 -0.90167,0.91669 -2.02667,0.60419 -1.125,-0.3125 -1.875,-0.6875 -2,-1.5625 -0.125,-0.875 -1.25,-1.3125 -1.25,-1.3125 0,0 -1.5625,-0.0625 -1.625,-0.5625 -0.0625,-0.5 -0.3125,-0.875 -0.5,-2.4375 -0.1875,-1.5625 -0.0625,-1.9375 -0.6875,-1.9375 -0.625,0 -1.375,0.125 -1.625,-0.125 -0.25,-0.25 -0.5625,-0.4375 -0.625,-1.25 -0.0625,-0.8125 -0.125,-1.625 -0.5,-1.75 -0.375,-0.125 -1,-0.4375 -1.375,-0.4375 -0.375,0 -1.625,0.25 -1.75,-0.25 -0.125,-0.5 -0.25,-1.1875 -0.125,-1.6875 0.125,-0.5 0.3125,-0.8125 0.3125,-1.25 0,-0.4375 -0.25,-1.4375 -0.25,-1.4375 0,0 -0.4375,0 -0.875,-0.375 C 792,256.4375 792,255.875 791.375,255.75 c -0.625,-0.125 -1,-0.3125 -1.5625,0.3125 -0.5625,0.625 -0.9375,1.1875 -1.25,1.3125 -0.3125,0.125 -2.1875,0.3125 -2.8125,0.3125 -0.625,0 -1.5625,-0.375 -1.5625,-0.375 l -0.4375,-0.5 c 0,0 -0.875,-0.3125 -0.875,0.0625 0,0.375 0.3125,0.75 0,1.25 -0.3125,0.5 -0.125,0.5 -0.8125,1.0625 -0.6875,0.5625 -1.125,0.6875 -1.1875,1.125 -0.0625,0.4375 -0.0625,0.625 0.3125,1.0625 0.375,0.4375 0.5625,0.3125 0.75,0.875 0.1875,0.5625 0.25,0.6875 0.25,1.3125 0,0.625 0.0625,1.5 -0.375,1.875 -0.4375,0.375 -0.5625,0.3125 -0.875,1.125 -0.3125,0.8125 -0.5625,0.9375 -0.75,1.3125 -0.1875,0.375 -0.4375,0.5625 -0.0625,1.3125 0.375,0.75 0.75,1.25 1,1.5625 0.25,0.3125 0.5625,0.8125 0.3125,1.625 -0.25,0.8125 -0.3125,1.25 -0.8125,1.75 -0.5,0.5 -0.9375,1.5625 -1.3125,2 -0.375,0.4375 -0.25,0.9375 -0.875,0.625 -0.625,-0.3125 -1.0625,-0.875 -1.125,-1.125 -0.0625,-0.25 -0.125,-0.5 -0.3125,-1.25 -0.1875,-0.75 -0.4375,-1.6875 -0.5625,-1.9375 -0.125,-0.25 -1.71363,-1.09163 -2.11138,-0.29613 -0.39775,0.79549 -0.26516,1.54679 -0.88388,1.81196 -0.61872,0.26516 -0.7513,0.26516 -1.01647,0.66291 -0.26516,0.39775 -1.01646,1.5026 -1.59099,1.37002 -0.57452,-0.13258 -0.70711,-0.26516 -1.63518,-0.39775 -0.92808,-0.13258 -1.67938,-0.44194 -2.07713,0.13259 -0.39775,0.57452 -1.41421,1.41421 -2.12132,1.14905 -0.70711,-0.26517 -1.63518,-0.7955 -1.85615,-1.01647 -0.22098,-0.22097 -1.59099,-0.83969 -2.2981,-0.7513 -0.70711,0.0884 -0.70711,0.26516 -2.07713,0.17677 -1.37002,-0.0884 -2.69584,-0.61871 -3.57973,-0.61871 -0.88388,0 -3.18198,-1.14905 -3.88908,-1.01647 -0.70711,0.13258 -0.57453,0.13258 -1.32583,0.44194 -0.7513,0.30936 -1.28163,-0.17677 -1.59099,0.35356 -0.30936,0.53033 -0.30936,1.28163 -1.23744,1.14904 -0.92807,-0.13258 -1.41421,-0.13258 -1.76776,-0.48613 -0.35356,-0.35356 -0.61872,-0.88389 -0.61872,-0.88389 0,0 -0.57453,-0.22097 -0.92808,-0.13258 -0.35355,0.0884 -1.28163,0 -1.28163,0 0,0 -0.79549,-0.79549 -0.97227,-0.83969 -0.17678,-0.0442 -0.92808,-0.48613 -1.23744,-0.44194 -0.30936,0.0442 -1.63518,0.26517 -1.63518,0.26517 0,0 -1.94455,0.13258 -1.62366,0.57068 -1.69091,-0.61488 -0.61487,-0.46116 -1.69091,-0.92232 -1.07603,-0.46115 -0.30743,-1.38347 -0.92231,-2.92065 -0.61488,-1.53719 -0.92231,0.30743 -0.92231,0.30743 0,0 -1.22975,0 -1.69091,-1.84462 -0.46116,-1.84463 0.30744,-0.92232 0.61487,-2.4595 0.30744,-1.53719 -0.46115,-1.38347 -0.46115,-3.2281 0,-1.84463 1.07603,-1.07603 1.07603,-1.07603 0,0 0.30744,-1.69091 0.46116,-4.45785 0.15372,-2.76694 -1.38347,-0.76859 -1.99835,-2.15206 -0.61487,-1.38347 0,-1.22975 0.30744,-1.99835 0.30744,-0.76859 0.76859,-1.22975 1.69091,-2.76694 0.92231,-1.53719 0.61487,-0.76859 2.92066,-1.22975 2.30578,-0.46116 1.38346,-2.61322 3.22809,-3.2281 1.84463,-0.61487 0.61488,-0.30743 1.84463,0.92232 1.22975,1.22975 1.84462,-0.30744 3.38181,-0.61488 1.53719,-0.30744 1.22975,-1.22975 3.38182,-0.92231 2.15206,0.30744 1.22975,0.61487 1.84462,1.84463 0.61488,1.22975 1.53719,1.22975 3.38182,-0.92232 1.84463,-2.15206 0.30744,-8.30082 -0.92231,-11.68263 C 751.37782,230.90628 755.5,223.25 755.5,223.25 c 0,0 4.875,-1.5 6.125,-2.25 1.25,-0.75 1.125,-0.875 1.5,-2.625 0.375,-1.75 0.5,-4.625 1.875,-4.875 1.375,-0.25 1.125,1.75 1.125,1.75 0.125,0.75 1.5,0.5 3,0.75 1.058,0.17633 0.62351,-0.7667 0.40718,-1.68867 -0.0904,-0.38517 -0.14268,-0.76666 -0.0322,-1.06133 0.375,-1 12.29494,0.11312 12.29494,0.11312 -0.44195,1.06066 -0.35356,2.47487 -0.0884,2.91681 0.26516,0.44195 1.41421,2.91682 1.06066,4.94975 -0.35356,2.03293 -0.88389,8.13173 -0.61872,9.28078 0.26516,1.14905 0.35355,3.97747 1.14905,4.77297 0.79549,0.79549 1.14905,1.41421 1.5026,2.12132 0.35355,0.70711 3.97748,1.85615 4.59619,3.35876 0.61872,1.5026 0.26517,1.85615 1.32583,2.47487 1.06066,0.61872 2.03293,1.94454 2.12132,3.18198 0.0884,1.23744 0.0884,3.09359 0.97227,2.82843 0.88388,-0.26517 1.85616,-1.5026 2.20971,-1.85616 0.35355,-0.35355 1.67938,-0.79549 2.82843,-0.35355 1.14905,0.44194 1.41421,0.44194 2.56326,0.26516 1.14905,-0.17677 2.20971,0.17678 2.20971,0.17678 0,0 0.88388,1.32583 0.97227,2.03293 0.0884,0.70711 -0.44194,1.23744 1.14905,1.14905 1.59099,-0.0884 1.94454,-0.17678 2.12132,1.59099 0.17677,1.76777 1.14905,2.74004 1.14905,2.74004 0,0 0.26516,1.85616 0.17677,2.2981 -0.0884,0.44194 -0.7071,1.5026 -0.44194,2.65165 0.26517,1.14905 0.88389,2.29809 0.35356,3.09359 -0.53034,0.79549 -1.41422,2.56326 -1.41422,3.27037 0,0.70711 -0.17678,2.56326 0,3.18198 0.17678,0.61872 -0.53033,0.17678 -0.26516,2.12132 z"
     id="irkutsk"
     sodipodi:nodetypes="csssssssssssssssssssssssssssssssssssssscsssssssssssssssscsssssssssscssccsscssccssccssssc"
     inkscape:connector-curvature="0"
     transform="matrix(5.2246763,0,0,4.7935765,-3802.4291,-1002.2032)" />
</svg>
