<?xml version="1.0" encoding="UTF-8" standalone="no"?>
<svg
   xmlns:dc="http://purl.org/dc/elements/1.1/"
   xmlns:cc="http://creativecommons.org/ns#"
   xmlns:rdf="http://www.w3.org/1999/02/22-rdf-syntax-ns#"
   xmlns:svg="http://www.w3.org/2000/svg"
   xmlns="http://www.w3.org/2000/svg"
   xmlns:sodipodi="http://sodipodi.sourceforge.net/DTD/sodipodi-0.dtd"
   xmlns:inkscape="http://www.inkscape.org/namespaces/inkscape"
   id="svg2"
   sodipodi:version="0.32"
   inkscape:version="0.48.5 r10040"
   viewBox="0 0 750 520"
   preserveAspectRatio="xMidYMid meet"
   version="1.2"
   sodipodi:docname="mongolia.svg"
   inkscape:output_extension="org.inkscape.output.svg.inkscape"
   inkscape:export-filename="/home/kris/worldmap.png"
   inkscape:export-xdpi="90"
   inkscape:export-ydpi="90"
   style="enable-background:new"
   enable-background="new"
   width="100%"
   height="100%">
  <metadata
     id="metadata3188">
    <rdf:RDF>
      <cc:Work
         rdf:about="">
        <dc:format>image/svg+xml</dc:format>
        <dc:type
           rdf:resource="http://purl.org/dc/dcmitype/StillImage" />
        <dc:title></dc:title>
      </cc:Work>
    </rdf:RDF>
  </metadata>
  <defs
     id="defs3186" />
  <sodipodi:namedview
     pagecolor="#ffffff"
     bordercolor="#666666"
     borderopacity="1"
     objecttolerance="10"
     gridtolerance="10"
     guidetolerance="10"
     inkscape:pageopacity="0"
     inkscape:pageshadow="2"
     inkscape:window-width="1278"
     inkscape:window-height="726"
     id="namedview3184"
     showgrid="false"
     inkscape:zoom="0.45384615"
     inkscape:cx="969.84328"
     inkscape:cy="348.13559"
     inkscape:window-x="0"
     inkscape:window-y="24"
     inkscape:window-maximized="1"
     inkscape:current-layer="svg2" />
  <filter
     inkscape:collect="always"
     id="filter12871">
    <feGaussianBlur
       inkscape:collect="always"
       stdDeviation="0.5805759"
       id="feGaussianBlur12873" />
  </filter>
  <path
     style="fill:#a52a2a;fill-opacity:1;fill-rule:evenodd;stroke:#000000;stroke-width:1.20000005;stroke-linecap:butt;stroke-linejoin:miter;stroke-miterlimit:4.32165003;stroke-opacity:0.58527132;stroke-dasharray:none;stroke-dashoffset:0;display:inline;filter:url(#filter12871)"
     d="m 829.43626,335.25065 c 0,-1.23744 0.53033,-4.41942 -0.17678,-4.59619 -0.70711,-0.17678 -0.70711,-0.70711 -1.94454,-0.53033 -1.23744,0.17677 -2.65166,-0.53033 -2.65166,-0.53033 0,0 -0.35355,-1.23744 1.76777,-2.47488 2.12132,-1.23744 3.35876,-1.94454 3.35876,-1.94454 l -1.06066,-0.70711 c 0,0 -2.2981,-0.17678 -1.23744,-0.88388 1.06066,-0.70711 1.23744,-1.59099 2.12132,-2.65165 0.88389,-1.06066 3.00521,-6.54074 4.24264,-8.66206 1.23744,-2.12132 4.06587,-1.41421 4.06587,-1.41421 l 1.94454,-4.94975 c 0,0 -1.59099,-3.71231 1.06066,-4.94975 2.65165,-1.23744 2.82843,0.17678 3.53553,-2.82843 0.70711,-3.0052 2.82843,-2.47487 3.18199,-3.53553 0.35355,-1.06066 0.7071,-1.06066 0.17677,-2.82843 -0.53033,-1.76776 -1.94454,-3.35875 -1.94454,-3.35875 0,0 -0.70711,-2.65166 -0.70711,-4.06587 0,-1.41421 -0.35355,-3.71231 0.88388,-4.24264 1.23744,-0.53033 -1.06066,-3.35876 -1.06066,-3.35876 0,0 0.70711,-1.06066 -0.17677,-1.76776 -0.88389,-0.70711 -1.41422,-1.59099 -1.41422,-2.47488 0,-0.88388 0.17678,-3.18198 0.17678,-3.18198 0,0 0.88388,-1.41421 1.59099,-1.59099 0.70711,-0.17678 1.41421,0.17678 1.41421,-1.59099 0,-1.76777 -0.88388,-4.41942 -0.88388,-4.41942 0,0 -3.71231,-5.48007 -4.41942,-5.83363 -0.7071,-0.35355 -0.7071,-0.7071 -0.17677,-1.76776 0.53033,-1.06066 4.06586,4.24264 6.54074,4.59619 2.47487,0.35355 4.77297,0 4.77297,0 l 2.29809,-1.06066 4.5962,0.17678 c 0,0 1.94454,0.17677 2.29809,2.12132 0.35356,1.94454 2.82843,1.23743 1.59099,3.0052 -1.23743,1.76777 -1.06066,2.65165 -2.29809,2.47487 -1.23744,-0.17677 -1.06066,-1.06066 -1.94455,-0.88388 -0.88388,0.17678 -1.59099,0 -1.59099,1.94454 0,1.94455 1.41422,2.12133 0.17678,3.71232 -1.23744,1.59099 -0.70711,2.29809 -2.47487,2.29809 -1.76777,0 -3.35876,-0.17677 -5.12653,0.17678 -1.76776,0.35355 -2.65165,-0.88388 -2.65165,0.70711 0,1.59099 0,1.94454 0.88389,2.12132 0.88388,0.17677 1.59099,0 1.23743,1.06066 -0.35355,1.06066 -1.41421,1.76776 -0.7071,2.12132 0.7071,0.35355 1.59099,-0.53033 1.59099,0.35355 l 3.0052,0.17678 0.53033,1.76776 c 0,0 0.35355,0 1.41421,0.17678 1.06066,0.17678 1.76777,-0.70711 2.12132,0.53033 0.35356,1.23744 0.88389,1.76777 0.88389,1.76777 0,0 0.53033,0 0.7071,1.23743 0.17678,1.23744 0.35356,1.59099 0.35356,2.47488 0,0.88388 -0.88389,3.71231 -0.88389,3.71231 0,0 -0.7071,0.70711 -0.53033,2.12132 0.17678,1.41421 0.88389,0 1.06066,1.76777 0.17678,1.76776 0.17678,2.29809 0.17678,3.53553 0,1.23744 -0.17678,1.06066 0.88388,1.94454 1.06066,0.88389 1.41422,1.76777 1.41422,1.76777 0,0 0.88388,0.53033 0.88388,1.76777 0,1.23743 0,2.29809 0,2.29809 0,0 -0.53033,0.17678 -1.23744,0.17678 -0.7071,0 -1.59099,-0.17678 -1.59099,-0.17678 0,0 -0.17677,0.53033 -0.53033,1.76777 -0.35355,1.23744 -1.94454,1.94455 -1.94454,1.94455 0,0 0,1.76776 -0.70711,1.94454 -0.7071,0.17678 -1.23743,0.17678 -1.94454,0.35355 -0.70711,0.17678 -1.23744,0 -1.59099,0.88389 -0.35355,0.88388 0,1.06066 -0.88388,1.23743 -0.88389,0.17678 -1.76777,-1.41421 -1.94455,0.88389 -0.17677,2.29809 1.23744,3.18198 -0.53033,3.71231 -1.76776,0.53033 -2.82843,0.88388 -2.82843,0.88388 0,0 0.35356,1.41421 -0.88388,1.06066 -1.23744,-0.35355 -2.65165,-1.59099 -2.65165,-2.47487 0,-0.88389 -0.17678,-1.41422 -0.17678,-1.41422 l -2.47487,1.59099 c 0,0 0.35355,0.88389 -1.41421,0.88389 -1.76777,0 -2.47488,-1.94455 -2.12132,0 0.35355,1.94454 1.06066,3.35875 1.23743,4.06586 0.17678,0.70711 1.23744,0.17678 1.06066,1.23744 -0.17677,1.06066 0.17678,1.06066 -0.53033,1.76776 -0.7071,0.70711 -2.12132,0.88389 -2.82842,0.88389 -0.70711,0 -0.88389,-0.17678 -2.2981,0 -1.41421,0.17677 -2.12712,6.8293 -2.12712,6.8293 l -1.25,1.125 -0.68874,6.5e-4 z"
     id="japan"
     sodipodi:nodetypes="csssssssssssssssssssssssssssssssssssssscsssssssssssssssscsssssssssscssccsscssccssccssssc"
     inkscape:connector-curvature="0"
     transform="matrix(5.2246763,0,0,4.7935765,-4278.3613,-1198.3049)" />
     <text
          xml:space="preserve"
          style="font-size:107.87071991px;font-style:normal;font-variant:normal;font-weight:bold;font-stretch:normal;text-align:start;line-height:125%;letter-spacing:0px;word-spacing:0px;writing-mode:lr-tb;text-anchor:start;fill:#800000;fill-opacity:1;stroke:none;display:inline;enable-background:new;font-family:Latin Modern Mono;-inkscape-font-specification:Latin Modern Mono Bold"
          x="40.32494"
          y="440.29465"
          id="alberta_text"
          sodipodi:linespacing="125%"
          inkscape:label="alberta"
          transform="scale(0.94301946,1.0604235)"><tspan
            sodipodi:role="line"
            id="tspan7513-9-23"
            x="40.32494"
            y="440.29465"
            style="font-size:107.87071991px;font-style:normal;font-variant:normal;font-weight:bold;font-stretch:normal;text-align:start;line-height:125%;writing-mode:lr-tb;text-anchor:start;fill:#800000;font-family:Latin Modern Mono;-inkscape-font-specification:Latin Modern Mono Bold">JAPAN</tspan></text>

</svg>
