<?xml version="1.0" encoding="UTF-8" standalone="no"?>
<svg
   xmlns:dc="http://purl.org/dc/elements/1.1/"
   xmlns:cc="http://creativecommons.org/ns#"
   xmlns:rdf="http://www.w3.org/1999/02/22-rdf-syntax-ns#"
   xmlns:svg="http://www.w3.org/2000/svg"
   xmlns="http://www.w3.org/2000/svg"
   xmlns:sodipodi="http://sodipodi.sourceforge.net/DTD/sodipodi-0.dtd"
   xmlns:inkscape="http://www.inkscape.org/namespaces/inkscape"
   id="svg2"
   sodipodi:version="0.32"
   inkscape:version="0.48.5 r10040"
   viewBox="0 0 750 520"
   preserveAspectRatio="xMidYMid meet"
   version="1.2"
   sodipodi:docname="yakutsk.svg"
   inkscape:output_extension="org.inkscape.output.svg.inkscape"
   inkscape:export-filename="/home/kris/worldmap.png"
   inkscape:export-xdpi="90"
   inkscape:export-ydpi="90"
   style="enable-background:new"
   enable-background="new"
   width="100%"
   height="100%">
  <metadata
     id="metadata3188">
    <rdf:RDF>
      <cc:Work
         rdf:about="">
        <dc:format>image/svg+xml</dc:format>
        <dc:type
           rdf:resource="http://purl.org/dc/dcmitype/StillImage" />
        <dc:title></dc:title>
      </cc:Work>
    </rdf:RDF>
  </metadata>
  <defs
     id="defs3186" />
  <sodipodi:namedview
     pagecolor="#ffffff"
     bordercolor="#666666"
     borderopacity="1"
     objecttolerance="10"
     gridtolerance="10"
     guidetolerance="10"
     inkscape:pageopacity="0"
     inkscape:pageshadow="2"
     inkscape:window-width="1278"
     inkscape:window-height="726"
     id="namedview3184"
     showgrid="false"
     inkscape:zoom="0.45384615"
     inkscape:cx="969.84328"
     inkscape:cy="348.13559"
     inkscape:window-x="0"
     inkscape:window-y="24"
     inkscape:window-maximized="1"
     inkscape:current-layer="svg2" />
  <filter
     inkscape:collect="always"
     id="filter12871">
    <feGaussianBlur
       inkscape:collect="always"
       stdDeviation="0.5805759"
       id="feGaussianBlur12873" />
  </filter>
  <path
     style="fill:#a52a2a;fill-opacity:1;fill-rule:evenodd;stroke:#000000;stroke-width:1.20000005;stroke-linecap:butt;stroke-linejoin:miter;stroke-miterlimit:4.32165003;stroke-opacity:0.58527132;stroke-dasharray:none;stroke-dashoffset:0;display:inline;filter:url(#filter12871)"
     d="m 818.375,289.5 c 1,-0.75 0.75,0.125 1.625,-1.75 0.875,-1.875 0.625,-2.5 1.25,-3.125 0.625,-0.625 2,-2.875 1.875,-4.5 -0.125,-1.625 -0.625,-1.5 -0.25,-3 0.375,-1.5 0.5,-1.5 0.75,-3.5 0.25,-2 -0.25,-1.75 0.375,-4.125 0.625,-2.375 0.75,-2.875 0.375,-3.75 -0.375,-0.875 -0.625,-1.875 -0.625,-3.375 0,-1.5 0.125,-2.75 0,-3.25 -0.125,-0.5 -0.25,-1 -0.625,-2.375 -0.375,-1.375 -1.375,-2.375 -1.375,-2.375 0,0 -0.25,1 -0.75,-0.625 -0.5,-1.625 -0.375,-1.125 -0.625,-2.125 -0.25,-1 -1,0.5 -0.625,-2.875 0.375,-3.375 0.25,-4.5 0.25,-4.5 0,0 -0.125,-3.375 -2.375,-3.375 -2.25,0 -3,0.625 -3.25,-1.25 -0.25,-1.875 -1.25,-2.25 -2.75,-2.5 -1.5,-0.25 -1.75,0 -2.5,-0.375 -0.75,-0.375 -0.375,-0.625 -1.625,-0.625 -1.25,0 -0.5,0.5 -2.25,0 -1.75,-0.5 -1.75,0.75 -2,-0.5 -0.25,-1.25 -0.125,-2.125 1.625,-4.875 1.75,-2.75 1.625,-3.375 1.875,-4.75 0.25,-1.375 -1.25,-0.75 1,-2.75 2.25,-2 1.625,-2.625 4.25,-2.625 2.625,0 3,0 4.875,-0.875 1.875,-0.875 0.375,-1.875 2.625,-0.875 2.25,1 2,2 3.25,0.875 1.25,-1.125 1.625,-1.875 2.25,-1.875 0.625,0 3,1.375 3,1.375 0,0 1,0.5 1.875,0.25 0.875,-0.25 1.625,1.625 2.5,-0.125 0.875,-1.75 0.5,-2.25 -0.375,-2.75 -0.875,-0.5 -1.875,1.75 -1.375,-1.25 0.5,-3 1,-4.125 0.625,-5.125 -0.375,-1 -3,-4.5 0.125,-2.375 3.125,2.125 2.375,2.5 3.5,3.125 1.125,0.625 0.625,0.625 1,3 0.375,2.375 4.125,1.875 3.625,4.875 -0.5,3 -0.5,3.875 -0.75,5.125 -0.25,1.25 -1.625,0.375 -1.25,5.5 0.375,5.125 0.75,14.25 5.25,18.25 4.5,4 5.625,4.5 6.25,2.75 0.625,-1.75 1.25,-2.5 0.875,-4.5 -0.375,-2 -1.375,-2.75 -0.625,-4.125 0.75,-1.375 1.375,-2.25 1.5,-3.375 0.125,-1.125 0.375,-2 0.25,-3.25 -0.125,-1.25 0,-2.75 -0.25,-3.75 -0.25,-1 -0.5,-2.625 -0.625,-3.625 -0.125,-1 -1.125,-2.75 -1.5,-3.625 -0.375,-0.875 -1.5,-2.625 -1.75,-3.875 -0.25,-1.25 -0.75,-1.75 0.5,-3.5 1.25,-1.75 -1.125,-2.75 1.75,-2.375 2.875,0.375 2.75,0.75 4.25,0.5 1.5,-0.25 3,0.625 3.5,-1.125 0.5,-1.75 0.125,-1.5 1,-2.75 0.875,-1.25 1.25,-1 2.25,-2.5 1,-1.5 -0.5,-2 2,-4 2.5,-2 4,-2.75 4.625,-3.5 0.625,-0.75 1.875,-1.125 0.875,-2.125 -1,-1 -1.125,-1.875 -2.5,-2.75 -1.375,-0.875 -2.125,-1.5 -2.75,-1.625 -0.625,-0.125 -1.5,-0.375 -0.875,-0.875 0.625,-0.5 1.625,-1.375 2.625,-1.375 1,0 1,1 2.5,0.25 1.5,-0.75 2.125,-1.25 3.125,-0.5 1,0.75 0.375,0.125 1.125,1.625 0.75,1.5 -0.75,1 1.25,2.125 2,1.125 3.875,1.375 4.5,1.375 0.625,0 0.25,0.75 1.75,-0.125 1.5,-0.875 1.25,-0.5 2.25,-1.875 1,-1.375 1.625,-1.625 1.25,-3.375 -0.375,-1.75 -1,-2.875 -1,-3.375 l -1.125,-1.875 c 0,0 0,-0.875 -1.75,-0.875 -1.75,0 -2.75,0.125 -2.75,-0.5 0,-0.625 0.5,-1.75 -0.625,-1.75 -1.125,0 -1.75,-1 -2.5,-0.125 -0.75,0.875 -1.25,1.875 -2.125,1.375 -0.875,-0.5 -1.875,-1.75 -1.875,-1.75 0,0 0.25,-1.25 -0.125,-1.75 -0.375,-0.5 -1.5,-1.625 -1.5,-1.625 l -1.625,-0.75 c 0,0 -3.375,-3.375 -4.625,-3.5 -1.25,-0.125 -2.375,0.125 -2.75,-0.875 -0.375,-1 1.75,-1 -1.375,-1.5 -3.125,-0.5 -3.25,0 -4.25,-1.375 -1,-1.375 0.375,-1.75 -2.125,-1.875 -2.5,-0.125 -3.625,0.25 -5.75,-0.625 -2.125,-0.875 -2.125,-1.75 -3.125,-0.75 -1,1 -0.5,1.125 -1.875,2.25 -1.375,1.125 -0.625,2.125 -2.75,2.125 -2.125,0 -1.75,0.25 -3,-0.25 -1.25,-0.5 -1,-0.875 -2.5,-1 -1.5,-0.125 -1.125,0 -2.625,0.125 -1.5,0.125 -0.25,1 -2.625,-0.125 -2.375,-1.125 -2.375,-1.375 -4.125,-2.25 -1.75,-0.875 -2.25,-1.125 -3.125,-1.125 -0.875,0 -4.5,-0.375 -5.5,0.5 0,0 -1.34497,1.42783 -1.34497,2.84204 0,1.41421 0.7955,2.74004 -0.44194,2.91682 -0.58189,0.0831 -1.14423,0.0294 -1.6135,0.0411 -0.52868,0.0132 -0.93924,0.10934 -1.12654,0.57759 -0.35355,0.88388 -1.06066,0.7071 -1.14905,1.59099 -0.0884,0.88388 -0.79549,2.03293 -1.32582,2.03293 -0.53033,0 -2.03293,0.26516 -2.47488,0.79549 -0.44194,0.53033 -0.17677,-0.17677 -0.61871,2.82843 -0.44195,3.0052 -0.44195,7.68979 0.53033,7.77817 0.97227,0.0884 3.44714,0.26517 4.06586,0.44195 0.61872,0.17677 1.23744,1.14904 1.32582,1.94454 0.0884,0.79549 0.35356,2.47487 0.0884,3.09359 -0.26516,0.61872 -1.14905,0.88389 -1.23743,1.67938 -0.0884,0.7955 0.35355,2.56326 -0.26517,3.09359 -0.61872,0.53033 -1.59099,1.23744 -2.03293,1.32583 -0.44194,0.0884 -2.03293,0.26516 -2.47487,0.0884 -0.44195,-0.17678 0,-1.59099 -0.97228,-1.59099 -0.97227,0 -1.67937,0.35355 -2.74003,0.44194 -1.06067,0.0884 -0.70711,0.79549 -1.32583,-0.44194 -0.61872,-1.23744 -0.35355,-3.00521 -0.7955,-3.18198 -0.44194,-0.17678 -4.33102,-0.35356 -5.03813,0.88388 -0.70711,1.23744 -2.74004,3.0052 -2.74004,3.0052 0,0 -0.97227,-2.20971 -1.76777,0.7955 -0.79549,3.0052 -2.47487,4.41942 -2.56326,4.86136 -0.0884,0.44194 0.97227,2.65165 -0.35355,3.88908 -1.32583,1.23744 -2.12132,1.94455 -2.56326,3.00521 -0.44195,1.06066 -0.35356,2.47487 -0.0884,2.91681 0.26516,0.44195 1.41421,2.91682 1.06066,4.94975 -0.35356,2.03293 -0.88389,8.13173 -0.61872,9.28078 0.26516,1.14905 0.35355,3.97747 1.14905,4.77297 0.79549,0.79549 1.14905,1.41421 1.5026,2.12132 0.35355,0.70711 3.97748,1.85615 4.59619,3.35876 0.61872,1.5026 0.26517,1.85615 1.32583,2.47487 1.06066,0.61872 2.03293,1.94454 2.12132,3.18198 0.0884,1.23744 0.0884,3.09359 0.97227,2.82843 0.88388,-0.26517 1.85616,-1.5026 2.20971,-1.85616 0.35355,-0.35355 1.67938,-0.79549 2.82843,-0.35355 1.14905,0.44194 1.41421,0.44194 2.56326,0.26516 1.14905,-0.17677 2.20971,0.17678 2.20971,0.17678 0,0 0.88388,1.32583 0.97227,2.03293 0.0884,0.70711 -0.44194,1.23744 1.14905,1.14905 1.59099,-0.0884 1.94454,-0.17678 2.12132,1.59099 0.17677,1.76777 1.14905,2.74004 1.14905,2.74004 0,0 0.26516,1.85616 0.17677,2.2981 -0.0884,0.44194 -0.7071,1.5026 -0.44194,2.65165 0.26517,1.14905 0.88389,2.29809 0.35356,3.09359 -0.53034,0.79549 -1.41422,2.56326 -1.41422,3.27037 0,0.70711 -0.17678,2.56326 0,3.18198 0.17678,0.61872 -0.53033,0.17678 -0.26516,2.12132 0.26516,1.94454 0.44194,2.2981 0.44194,3.0052 0,0.70711 -3.88909,0.53033 -2.12132,2.65165 1.76776,2.12132 2.12132,4.68459 4.06586,4.5962 1.94455,-0.0884 2.82843,2.74004 3.09359,3.71231 0.26517,0.97227 1.06066,1.67938 2.2981,1.76777 1.23744,0.0884 1.41421,1.94454 2.38649,2.12132 0.97227,0.17677 0.97227,0.0884 0.78278,0.0345 z"
     id="kamchatka"
     sodipodi:nodetypes="csssssssssssssssssssssssssssssssssssssscsssssssssssssssscsssssssssscssccsscssccssccssssc"
     inkscape:connector-curvature="0"
     transform="matrix(3.8237869,0,0,3.0694019,-2968.1431,-502.93678)" />
</svg>
