<?xml version="1.0" encoding="UTF-8" standalone="no"?>
<svg
   xmlns:dc="http://purl.org/dc/elements/1.1/"
   xmlns:cc="http://creativecommons.org/ns#"
   xmlns:rdf="http://www.w3.org/1999/02/22-rdf-syntax-ns#"
   xmlns:svg="http://www.w3.org/2000/svg"
   xmlns="http://www.w3.org/2000/svg"
   xmlns:sodipodi="http://sodipodi.sourceforge.net/DTD/sodipodi-0.dtd"
   xmlns:inkscape="http://www.inkscape.org/namespaces/inkscape"
   id="svg2"
   sodipodi:version="0.32"
   inkscape:version="0.48.5 r10040"
   viewBox="0 0 750 520"
   preserveAspectRatio="xMidYMid meet"
   version="1.2"
   sodipodi:docname="south_africa.svg"
   inkscape:output_extension="org.inkscape.output.svg.inkscape"
   inkscape:export-filename="/home/kris/worldmap.png"
   inkscape:export-xdpi="90"
   inkscape:export-ydpi="90"
   style="enable-background:new"
   enable-background="new"
   width="100%"
   height="100%">
  <metadata
     id="metadata3188">
    <rdf:RDF>
      <cc:Work
         rdf:about="">
        <dc:format>image/svg+xml</dc:format>
        <dc:type
           rdf:resource="http://purl.org/dc/dcmitype/StillImage" />
        <dc:title></dc:title>
      </cc:Work>
    </rdf:RDF>
  </metadata>
  <defs
     id="defs3186" />
  <sodipodi:namedview
     pagecolor="#ffffff"
     bordercolor="#666666"
     borderopacity="1"
     objecttolerance="10"
     gridtolerance="10"
     guidetolerance="10"
     inkscape:pageopacity="0"
     inkscape:pageshadow="2"
     inkscape:window-width="1278"
     inkscape:window-height="726"
     id="namedview3184"
     showgrid="false"
     inkscape:zoom="0.45384615"
     inkscape:cx="375"
     inkscape:cy="290.61062"
     inkscape:window-x="0"
     inkscape:window-y="24"
     inkscape:window-maximized="1"
     inkscape:current-layer="svg2" />
  <filter
     inkscape:collect="always"
     id="filter12871">
    <feGaussianBlur
       inkscape:collect="always"
       stdDeviation="0.5805759"
       id="feGaussianBlur12873" />
  </filter>
  <path
     style="fill:green;fill-opacity:1;fill-rule:evenodd;stroke:#000000;stroke-width:1.20000005;stroke-linecap:butt;stroke-linejoin:miter;stroke-miterlimit:4.32165003;stroke-opacity:0.58527132;stroke-dasharray:none;stroke-dashoffset:0;display:inline;filter:url(#filter12871)"
     d="m 659.75,534 c 0.25,1 1,0.75 1,3 0,2.25 0.5,5.5 -1,3.5 -1.5,-2 -1.5,-2.75 -1.5,-1.5 0,1.25 0.25,3.5 0.25,3.5 0,0 1.23063,1.7007 -0.36036,1.7007 -1.59099,0 -1.76777,-0.17677 -1.76777,0.53033 0,0.70711 0.17678,2.12132 0.17678,2.12132 l -1.06066,1.06066 -0.53033,2.2981 c 0,0 1.76776,0.17678 0.7071,1.94454 -1.06066,1.76777 -1.41421,2.2981 -1.41421,2.2981 0,0 0.17678,-1.59099 -0.17678,1.94455 -0.35355,3.53553 -0.35355,4.06586 -0.35355,4.06586 0,0 1.06066,-0.35355 -0.35355,1.41421 -1.41422,1.76777 -1.94455,2.2981 -2.2981,3.18198 -0.35355,0.88389 0.35355,1.76777 -0.70711,2.65165 -1.06066,0.88389 -1.59099,1.59099 -1.59099,1.59099 l -1.06066,1.06066 c 0,0 -0.35355,1.41422 -0.35355,2.12132 0,0.70711 -0.53033,1.23744 -0.53033,1.23744 0,0 -0.53033,0.53033 -0.53033,1.23744 0,0.70711 0.17678,1.06066 -0.70711,1.76777 -0.88388,0.7071 -0.53033,0.88388 -1.59099,1.76776 -1.06066,0.88389 -1.41421,-0.35355 -1.41421,1.59099 0,1.94455 -0.53033,2.82843 -1.41422,2.82843 -0.88388,0 -9.36916,0.17678 -10.78337,0 -1.41422,-0.17678 0.88388,-7.24784 -1.06066,-8.48528 -1.94455,-1.23744 -3.18198,-5.48008 -1.94455,-6.36396 1.23744,-0.88389 0.53033,0 1.41422,-0.88389 0.88388,-0.88388 0.88388,-0.88388 1.41421,-1.94454 0.53033,-1.06066 1.41421,-1.06066 1.41421,-1.06066 0,0 -1.06066,-2.2981 -0.35355,-2.2981 0.70711,0 0.35355,-2.65165 0.35355,-2.65165 0,0 0.35356,-1.23743 0.88389,-2.12132 0.53033,-0.88388 -0.53033,-1.76776 0.88388,-1.94454 1.41421,-0.17678 2.12132,0.17678 2.12132,-0.70711 0,-0.88388 -0.88388,-1.06066 -1.59099,-1.23744 -0.70711,-0.17677 -1.06066,0 -1.06066,-1.23743 0,-1.23744 -0.53033,-0.70711 -0.88388,-1.94455 -0.35356,-1.23743 -1.41422,-0.53033 -0.17678,-2.12132 1.23744,-1.59099 1.23744,-0.53033 1.59099,-2.12132 0.35355,-1.59099 -1.06066,-2.65165 0.70711,-2.65165 1.76776,0 2.29809,0.53033 4.06586,-0.17677 1.76777,-0.70711 -0.17678,-0.88389 2.65165,-0.70711 2.82843,0.17678 3.00521,1.06066 4.06587,0 1.06066,-1.06066 1.59099,-0.70711 1.76776,-1.94454 0.17678,-1.23744 0,-1.59099 1.23744,-2.12132 1.23744,-0.53033 1.23744,0 2.12132,-0.70711 0.88388,-0.70711 1.59099,-1.59099 1.41421,-2.65165 -0.17677,-1.06066 -1.06066,-1.59099 0.53033,-1.59099 1.59099,0 1.41422,0.53033 2.12132,-0.35356 0.70711,-0.88388 0.53033,-0.88388 0.88389,-2.47487 0.35355,-1.59099 0,-1.94454 0.88388,-2.47487 0.88388,-0.53033 2.47487,-2.2981 2.47487,-2.2981 0,0 0.53033,-1.59099 1.23744,0.88388 0.70711,2.47488 0,2.12132 0.88388,2.82843 0.88389,0.70711 1.06066,0.17678 1.06066,1.06066 0,0.88388 -0.35355,2.65165 -0.35355,2.65165 L 659.75,534 z"
     id="alaska"
     sodipodi:nodetypes="csssssssssssssssssssssssssssssssssssssscsssssssssssssssscsssssssssscssccsscssccssccssssc"
     inkscape:connector-curvature="0"
     transform="matrix(6.5107569,0,0,6.7144237,-4052.3561,-3498.4298)" />
</svg>
