<?xml version="1.0" encoding="UTF-8" standalone="no"?>
<svg
   xmlns:dc="http://purl.org/dc/elements/1.1/"
   xmlns:cc="http://creativecommons.org/ns#"
   xmlns:rdf="http://www.w3.org/1999/02/22-rdf-syntax-ns#"
   xmlns:svg="http://www.w3.org/2000/svg"
   xmlns="http://www.w3.org/2000/svg"
   xmlns:sodipodi="http://sodipodi.sourceforge.net/DTD/sodipodi-0.dtd"
   xmlns:inkscape="http://www.inkscape.org/namespaces/inkscape"
   id="svg2"
   sodipodi:version="0.32"
   inkscape:version="0.48.5 r10040"
   viewBox="0 0 750 520"
   preserveAspectRatio="xMidYMid meet"
   version="1.2"
   sodipodi:docname="middle_east.svg"
   inkscape:output_extension="org.inkscape.output.svg.inkscape"
   inkscape:export-filename="/home/kris/worldmap.png"
   inkscape:export-xdpi="90"
   inkscape:export-ydpi="90"
   style="enable-background:new"
   enable-background="new"
   width="100%"
   height="100%">
  <metadata
     id="metadata3188">
    <rdf:RDF>
      <cc:Work
         rdf:about="">
        <dc:format>image/svg+xml</dc:format>
        <dc:type
           rdf:resource="http://purl.org/dc/dcmitype/StillImage" />
        <dc:title />
      </cc:Work>
    </rdf:RDF>
  </metadata>
  <defs
     id="defs3186" />
  <sodipodi:namedview
     pagecolor="#ffffff"
     bordercolor="#666666"
     borderopacity="1"
     objecttolerance="10"
     gridtolerance="10"
     guidetolerance="10"
     inkscape:pageopacity="0"
     inkscape:pageshadow="2"
     inkscape:window-width="1278"
     inkscape:window-height="726"
     id="namedview3184"
     showgrid="false"
     inkscape:zoom="0.45384615"
     inkscape:cx="969.84326"
     inkscape:cy="348.13559"
     inkscape:window-x="0"
     inkscape:window-y="24"
     inkscape:window-maximized="1"
     inkscape:current-layer="svg2" />
  <filter
     inkscape:collect="always"
     id="filter12871">
    <feGaussianBlur
       inkscape:collect="always"
       stdDeviation="0.5805759"
       id="feGaussianBlur12873" />
  </filter>
  <path
     style="fill:#a52a2a;fill-opacity:1;fill-rule:evenodd;stroke:#000000;stroke-width:1.20000005;stroke-linecap:butt;stroke-linejoin:miter;stroke-miterlimit:4.32165003;stroke-opacity:0.58527132;stroke-dasharray:none;stroke-dashoffset:0;display:inline;filter:url(#filter12871)"
     d="m 652.65956,343.02882 c -0.17678,1.06066 0.53033,1.59099 -0.88388,1.94455 -1.41422,0.35355 -2.47488,1.41421 -2.47488,1.41421 0,0 1.59099,1.59099 -1.76777,0.88389 -3.35875,-0.70711 -2.82842,-1.23744 -4.24264,-1.59099 -1.41421,-0.35356 -1.23743,0.35355 -2.29809,-0.35356 -1.06066,-0.70711 -1.41422,-0.35355 -1.76777,-1.41421 -0.35355,-1.06066 -2.97453,-2.53771 -2.97453,-2.53771 0,0 -0.875,0 -1,0.875 -0.125,0.875 1.75,0.875 -0.375,1.25 0,0 -1.25,0.125 -1.875,0.25 -0.625,0.125 -1.25,-0.25 -1.875,0.25 -0.625,0.5 -0.625,0.875 -1.5,1 -0.875,0.125 -0.75,0 -1.75,0.125 -1,0.125 -1.75,1 -1.75,1 0,0 0.25,0.5 -1.375,0.375 -1.625,-0.125 -2.25,0.25 -2.25,0.25 0,0 0,1.5 -1.375,0.5 -1.375,-1 -2,-1 -2,-1.5 0,-0.5 0.625,-1 1.125,-1.5 0,0 -0.47091,-1.48634 -2.32706,-1.13279 -1.85616,0.35356 -3.00521,0.26517 -3.44715,0.88389 -0.44194,0.61871 -0.88388,1.85615 -1.59099,1.94454 -0.7071,0.0884 -2.74004,0.26516 -3.27037,-0.35355 C 609.0841,344.97337 608.125,343 605.625,342.25 c -2.5,-0.75 -4.625,-1.375 -5.5,-0.75 -0.875,0.625 -0.125,1.375 -1.875,0.875 -1.75,-0.5 -3.5,-1.25 -4,-1 -0.5,0.25 -2.125,0 -2.125,0.625 0,0.625 0.75,1.625 -0.25,1.75 -1,0.125 -2.25,0.625 -2.875,0.875 -0.625,0.25 -0.25,0.5 -2.5,0.5 -2.25,0 -4.5,0.375 -5.375,-0.375 -0.875,-0.75 -1.25,-1.625 -1.625,-2.125 -0.375,-0.5 -1.375,-1 -1.375,-1 l -1.25,0 c 0,0 -1.375,0.375 -1.875,1 -0.5,0.625 -0.5,1 -1,1.375 -0.5,0.375 -0.5,0.25 -1.125,1 -0.625,0.75 -0.125,1.125 -0.625,1.75 -0.5,0.625 -0.875,0.125 -1.125,1 -0.25,0.875 0,0.5 0.125,1.375 0.125,0.875 0.75,0.875 0,1.875 0,0 1.0625,2.1875 1.5,3.25 0.4375,1.0625 1.875,1.625 0.75,2 -1.125,0.375 -2.5,0.4375 -2.25,1.4375 0.25,1 2.625,3.375 3.3125,4.5625 0.6875,1.1875 0.1875,3.875 1.3125,4.875 1.125,1 2.875,1.875 3.5,1.875 0.625,0 2.5,-1.375 2.75,-0.125 0.25,1.25 -0.25,3.625 0.5,3.75 0.75,0.125 2.5,1 2.875,0.375 0.375,-0.625 -1.25302,-2.39401 -0.0156,-2.92434 1.23744,-0.53033 0,-3.0052 2.65166,-1.76777 2.65165,1.23744 2.65165,2.12132 4.24264,2.2981 1.59099,0.17678 2.65165,-0.35355 3.71231,-0.17678 1.06066,0.17678 2.29809,1.23744 2.65165,0 0.35355,-1.23743 1.23743,-1.94454 2.12132,-1.94454 0.88388,0 2.82842,-0.53033 3.18198,0.53033 0.35355,1.06066 -0.53033,2.2981 -0.35356,3.35876 0.17678,1.06066 1.23744,1.41421 0.88389,7.42462 -0.35356,6.0104 1.06066,9.01561 0.17677,9.54594 -0.88388,0.53033 -2.12132,2.12132 -1.76776,3.0052 0.35355,0.88389 1.76776,3.88909 1.94454,6.01041 0.17678,2.12132 0.88388,2.65165 1.06066,3.71231 0.17678,1.06066 -1.23744,1.23744 0.17678,3.0052 1.41421,1.76777 4.41942,2.82843 4.24264,4.06587 -0.17678,1.23744 1.94454,1.76777 2.82843,3.0052 0.88388,1.23744 2.29809,4.77297 2.65165,6.36396 0.35355,1.59099 1.59099,-0.7071 2.29809,1.94455 0.70711,2.65165 2.82843,2.29809 3.35876,4.24264 C 622.07719,426.6442 624,428.5 625,429 c 1,0.5 4.25,1.25 4,3 -0.25,1.75 2.75,3.5 2.75,4.75 0,1.25 -0.25,3.75 -0.25,3.75 0,0 -0.5,0.5 0.5,1.5 1,1 1.75,1.75 2,3.25 0.25,1.5 1.25,1.25 1.25,1.25 0,0 9.75,-1 13,-2 3.25,-1 7.25,-2.75 7.25,-3.75 0,-1 0,-0.75 1.5,-1.25 1.5,-0.5 2.5,-2.5 2.5,-2.5 l 1.5,-1.25 c 0,0 0.25,-2 1.5,-1.75 1.25,0.25 2.75,1 2.75,0 0,-1 -0.75,0.25 2.25,-4.75 3,-5 3.5,-6.75 3.25,-7.75 -0.25,-1 -0.25,-1 0.75,-1.75 1,-0.75 1.5,-3.25 1.5,-3.25 l -0.5,-2.25 1,-2.25 c 0,0 1.43342,-3.91735 0.19599,-4.44768 -1.23744,-0.53033 -1.06066,-0.88389 -1.06066,-2.2981 0,-1.41421 -1.59099,-2.2981 -1.59099,-2.2981 0,0 0,0.53033 -1.41422,0 -1.41421,-0.53033 -3.18198,-2.12132 -3.18198,-2.12132 0,0 -1.59099,0.70711 -1.76777,-0.35355 -0.17677,-1.06066 0.35356,-2.65165 -0.53033,-2.12132 -0.88388,0.53033 -1.94454,0.35355 -2.47487,1.06066 -0.53033,0.70711 0.70711,1.76777 -2.47487,1.76777 -3.18198,0 -3.88909,1.06066 -4.5962,-0.17678 -0.7071,-1.23744 -0.7071,-1.23744 -1.06066,-2.65165 -0.35355,-1.41421 0.70711,-0.70711 -0.88388,-1.76777 -1.59099,-1.06066 -1.94454,-1.06066 -1.94454,-1.94454 0,-0.88388 -0.53033,-1.41421 -0.53033,-1.41421 0,0 -1.23744,0.7071 -1.76777,-0.70711 -0.53033,-1.41421 0.7071,-2.2981 -0.70711,-3.53553 -1.41421,-1.23744 -1.41421,-1.41422 -1.94454,-2.47488 -0.53033,-1.06066 -1.06066,-1.76777 -1.06066,-1.76777 0,0 -1.23744,-0.7071 -0.70711,-1.41421 0.53033,-0.70711 0.17678,-0.88388 1.76777,-1.06066 1.59099,-0.17678 1.94454,-0.53033 2.65165,-1.06066 0.7071,-0.53033 0.35355,-0.88388 1.59099,-1.06066 1.23744,-0.17678 1.41421,-1.23744 1.94454,0.17678 0.53033,1.41421 0.35356,1.94454 0.35356,3.88908 0,1.94455 -0.17678,3.35876 0.35355,4.41942 0.53033,1.06066 0.88388,1.59099 1.06066,2.2981 0.17678,0.70711 0.35355,1.23744 0.35355,1.23744 0,0 0.17678,0.17677 1.06066,0.17677 0.88389,0 1.06066,-0.7071 1.41422,0.17678 0.35355,0.88388 0,0.53033 0.53033,1.23744 0.53033,0.7071 0.35355,1.06066 1.23743,0.7071 0.88389,-0.35355 1.06066,-1.23743 1.94455,-0.88388 0.88388,0.35355 1.59099,0.53033 1.59099,0.53033 0,0 1.23743,0.17678 1.23743,-0.88388 0,-1.06066 -0.17677,-1.59099 0.35356,-2.2981 0.53033,-0.70711 0.88388,-2.47487 1.94454,-0.17678 1.06066,2.2981 0.53033,2.65165 1.06066,3.53554 0.53033,0.88388 0.88388,1.59099 1.94454,1.23743 1.06066,-0.35355 1.59099,-0.35355 2.2981,-1.06066 0.70711,-0.7071 1.41422,-1.06066 1.41422,-1.06066 0,0 -0.17678,-1.76776 0.88388,-2.12132 1.06066,-0.35355 2.2981,-1.41421 2.2981,-1.41421 l 1.23743,-1.41421 1.06066,-1.41422 c 0,0 1.94455,0 2.65165,0 0,0 -1.10677,-4.11198 -1.26049,-5.64917 -0.15372,-1.53718 -1.99835,-1.6909 -1.38347,-2.92065 0.61487,-1.22976 1.22975,-2.76694 0.30744,-3.68926 -0.92232,-0.92231 -2.45951,-1.84462 -2.45951,-3.07437 0,-1.22976 0.46116,-1.22976 -0.30743,-2.45951 -0.7686,-1.22975 -1.22975,-2.61322 -1.22975,-3.38181 0,-0.7686 0.0348,-1.56058 -0.46116,-2.76694 -0.64513,-1.56907 -2.37204,-0.0264 -1.99835,-2.76694 0.89428,-6.55841 0.86358,-8.24207 0.84546,-8.22396 -0.0181,0.0181 0.31924,-2.26578 0.31924,-2.26578 0,0 -1.19566,-0.43479 -1.30435,-0.86957 -0.1087,-0.43478 -1.30435,-2.06522 -1.79348,-2.44565 -0.48913,-0.38044 -2.11956,-0.16305 -2.3913,-0.21739 -0.27174,-0.0543 -1.14131,-0.21739 -1.52174,-0.76087 -0.38044,-0.54348 -0.38044,-1.30435 -0.54348,-1.57609 -0.16304,-0.27174 -0.48913,-0.76087 -1.25,-1.52174 -0.76087,-0.76087 -1.14131,-0.92391 -1.68478,-1.03261 -0.54348,-0.10869 -1.14131,0 -1.73913,-0.54348 -0.59783,-0.54347 -1.14131,-0.10869 -2.01087,-0.16304 -0.86957,-0.0543 -1.68479,1.3587 -2.11957,1.52174 -0.43478,0.16304 -1.35869,0.1087 -2.28261,-0.43478 -0.38043,-0.1087 -1.03261,-0.16305 -1.03261,-0.16305 l -0.27522,1.38752 z"
     id="middle_east"
     sodipodi:nodetypes="csssssssssssssssssssssssssssssssssssssscsssssssssssssssscsssssssssscssccsscssccssccssssc"
     inkscape:connector-curvature="0"
     transform="matrix(4.4185,0,0,3.7561214,-2505.7762,-1262.2388)" />
  <text
     xml:space="preserve"
     style="font-size:96.01512146px;font-style:normal;font-variant:normal;font-weight:bold;font-stretch:normal;text-align:start;line-height:125%;letter-spacing:0px;word-spacing:0px;writing-mode:lr-tb;text-anchor:start;fill:#800000;fill-opacity:1;stroke:none;display:inline;enable-background:new;font-family:Latin Modern Mono;-inkscape-font-specification:Latin Modern Mono Bold"
     x="14.231708"
     y="428.89325"
     id="alberta_text"
     sodipodi:linespacing="125%"
     inkscape:label="alberta"
     transform="scale(0.8393763,1.1913608)"><tspan
       sodipodi:role="line"
       id="tspan7513-9-23"
       x="14.231708"
       y="428.89325"
       style="font-size:96.01512146px;font-style:normal;font-variant:normal;font-weight:bold;font-stretch:normal;text-align:start;line-height:125%;writing-mode:lr-tb;text-anchor:start;fill:#800000;font-family:Latin Modern Mono;-inkscape-font-specification:Latin Modern Mono Bold">MIDDLE EAST</tspan></text>
</svg>
