<?xml version="1.0" encoding="UTF-8" standalone="no"?>
<svg
   xmlns:dc="http://purl.org/dc/elements/1.1/"
   xmlns:cc="http://creativecommons.org/ns#"
   xmlns:rdf="http://www.w3.org/1999/02/22-rdf-syntax-ns#"
   xmlns:svg="http://www.w3.org/2000/svg"
   xmlns="http://www.w3.org/2000/svg"
   xmlns:sodipodi="http://sodipodi.sourceforge.net/DTD/sodipodi-0.dtd"
   xmlns:inkscape="http://www.inkscape.org/namespaces/inkscape"
   id="svg2"
   sodipodi:version="0.32"
   inkscape:version="0.48.5 r10040"
   viewBox="0 0 750 520"
   preserveAspectRatio="xMidYMid meet"
   version="1.2"
   sodipodi:docname="irkutsk.svg"
   inkscape:output_extension="org.inkscape.output.svg.inkscape"
   inkscape:export-filename="/home/kris/worldmap.png"
   inkscape:export-xdpi="90"
   inkscape:export-ydpi="90"
   style="enable-background:new"
   enable-background="new"
   width="100%"
   height="100%">
  <metadata
     id="metadata3188">
    <rdf:RDF>
      <cc:Work
         rdf:about="">
        <dc:format>image/svg+xml</dc:format>
        <dc:type
           rdf:resource="http://purl.org/dc/dcmitype/StillImage" />
        <dc:title></dc:title>
      </cc:Work>
    </rdf:RDF>
  </metadata>
  <defs
     id="defs3186" />
  <sodipodi:namedview
     pagecolor="#ffffff"
     bordercolor="#666666"
     borderopacity="1"
     objecttolerance="10"
     gridtolerance="10"
     guidetolerance="10"
     inkscape:pageopacity="0"
     inkscape:pageshadow="2"
     inkscape:window-width="1278"
     inkscape:window-height="726"
     id="namedview3184"
     showgrid="false"
     inkscape:zoom="0.45384615"
     inkscape:cx="969.84328"
     inkscape:cy="348.13559"
     inkscape:window-x="0"
     inkscape:window-y="24"
     inkscape:window-maximized="1"
     inkscape:current-layer="svg2" />
  <filter
     inkscape:collect="always"
     id="filter12871">
    <feGaussianBlur
       inkscape:collect="always"
       stdDeviation="0.5805759"
       id="feGaussianBlur12873" />
  </filter>
  <path
     style="fill:#a52a2a;fill-opacity:1;fill-rule:evenodd;stroke:#000000;stroke-width:1.20000005;stroke-linecap:butt;stroke-linejoin:miter;stroke-miterlimit:4.32165003;stroke-opacity:0.58527132;stroke-dasharray:none;stroke-dashoffset:0;display:inline;filter:url(#filter12871)"
     d="m 737.08196,273.64013 c 0,0 0.69174,0 0.99917,0.92231 0.30744,0.92231 1.1529,2.38264 0.30744,3.53553 -0.84545,1.1529 -1.53719,3.30496 -0.61487,5.38017 0.92231,2.0752 2.53636,2.30578 2.38264,3.53553 -0.15372,1.22975 -0.3843,0.92231 -0.53802,2.61322 -0.15372,1.69091 0.15372,2.76694 -0.23695,3.47839 -0.19387,0.95722 -1.14652,2.05549 -1.14652,2.05549 0,0 1.13368,1.90611 1.7524,2.08289 0.61872,0.17678 1.14905,6.45235 1.14905,6.45235 0,0 0.97227,-0.61872 1.23743,0.17678 0.26517,0.79549 0.61872,2.12132 0.61872,2.12132 0,0 1.32583,0.79549 1.32583,1.23743 0,0.44194 -0.0884,1.5026 0.26516,1.67938 0.35356,0.17678 1.76777,0.7955 1.76777,0.7955 l 0.35355,1.32582 c 0,0 0.17678,1.14905 0.70711,1.23744 0.53033,0.0884 0.79549,-0.0884 1.5026,0.26516 0.70711,0.35356 0.88388,0.44195 1.5026,0.44195 0.61872,0 0.88389,-0.0884 0.88389,0.44194 0,0.53033 -0.0884,1.41421 0.26516,1.5026 0.35355,0.0884 1.23744,0.17678 1.23744,0.17678 0,0 0.26516,0.53033 0.61872,0.88388 0.35355,0.35355 1.41421,0.44194 1.59099,0.79549 0.17677,0.35356 0.26516,0.97228 0.35355,1.32583 0.0884,0.35355 -0.26516,1.14905 1.06066,1.23744 1.32583,0.0884 9.01561,-1.06066 9.01561,-1.06066 l 0.53033,0.88388 c 0,0 0.53033,0.53033 1.14905,0.70711 0.61872,0.17677 1.76777,-0.26517 2.74004,0.17677 0.97227,0.44195 1.76777,0.70711 2.20971,0.70711 0.44194,0 1.32582,0 1.32582,0 0,0 0.26517,1.23744 0.70711,1.32583 0.44194,0.0884 2.20971,-0.61872 2.20971,-0.61872 0,0 0.35355,-0.53033 0.88388,-0.44194 0.53033,0.0884 0.61872,-1.14905 1.59099,-1.23744 0.97227,-0.0884 1.5026,-0.0884 1.85616,-0.0884 0.35355,0 2.47487,-1.06066 2.56326,-0.17678 0.0884,0.88389 0.17678,1.41422 0.61872,1.94455 0.44194,0.53033 1.67938,0.88388 2.12132,0.88388 0.44194,0 1.41421,-0.61872 2.03293,-0.97227 0.61872,-0.35355 0.88388,-0.70711 1.67938,-0.53033 0.79549,0.17678 1.59099,0.70711 1.94454,0.88388 0.35356,0.17678 0.53033,0.17678 1.59099,0.53033 1.06066,0.35356 2.47488,0.26517 2.47488,0.26517 0,0 2.56326,0.26516 3.46306,0.59755 0.42753,0.25472 2.30253,0.94222 2.99003,0.87972 1,-0.5 0.875,0.5 2.25,-1 1.375,-1.5 0.5,-0.25 1.875,-2.25 1.375,-2 3.625,-2.25 1.125,-2.5 -2.5,-0.25 -2.125,0.5 -3,-0.375 -0.875,-0.875 -0.125,-1.125 -1.625,-1 -1.5,0.125 -1.5,0.375 -1.875,-0.125 -0.375,-0.5 0.75,-0.875 -1.125,-0.875 -1.875,0 -1.25,0.75 -2.75,-0.125 -1.5,-0.875 -1.625,-0.5 -1.5,-1.5 0.125,-1 0.125,-1.875 1.125,-2.125 1,-0.25 0.75,0 1.375,-0.5 0.625,-0.5 1,-0.625 1,-1.375 0,-0.75 1.375,-1.125 1.75,-2.125 0.375,-1 0.375,-2.5 1.125,-2.5 0.75,0 0.75,-0.125 1.375,1.625 0.625,1.75 -0.875,2.5 0.875,2.625 1.75,0.125 2.75,0.25 3.5,0.125 0.75,-0.125 0.25,0.125 1.125,1.125 0.875,1 0.75,1.5 1.625,2.125 0.875,0.625 1,1.75 1,1.75 0,0 0,0.625 1.125,0.375 1.125,-0.25 2.875,-0.25 2.875,-0.25 0,0 -0.5,-0.625 0.125,1.5 0.625,2.125 1,1.625 1,3.5 0,1.875 -0.875,2.875 0,3.5 0.875,0.625 1.875,0.875 1.875,0.875 0,0 2.625,-2.5 2.875,-3.625 0.25,-1.125 1,-1.5 0.875,-2.375 -0.125,-0.875 -0.375,-0.25 0.125,-1.375 0.5,-1.125 0.5,-3.125 0.5,-3.125 0,0 -0.5,-0.125 -1,-0.375 -0.5,-0.25 -0.75,-0.125 -1,-1.5 -0.25,-1.375 0.25,-1.375 -0.625,-1.75 -0.875,-0.375 -1.25,-1 -1.5,-1.75 -0.25,-0.75 -0.125,-1.25 -0.75,-1.375 -0.625,-0.125 -0.5,-0.25 -1.875,-1.25 -1.375,-1 -1.125,-0.5 -2.125,-1.125 -1,-0.625 -1.25,-1 -1.25,-1.875 0,-0.875 -0.25,-1.125 0.375,-1.75 0.625,-0.625 1,0.75 1.125,-1.5 0.125,-2.25 -0.625,-2.375 0.5,-4.625 1.125,-2.25 0.875,-3.125 1.75,-3.875 0.5625,-0.4375 0.4375,0 2.09375,-1.75 0.0957,0.0539 0.0957,0.14226 -0.87653,-0.0345 -0.97228,-0.17678 -1.14905,-2.03294 -2.38649,-2.12132 -1.23744,-0.0884 -2.03293,-0.7955 -2.2981,-1.76777 -0.26516,-0.97227 -1.14904,-3.8007 -3.09359,-3.71231 -1.94454,0.0884 -2.2981,-2.47488 -4.06586,-4.5962 -1.76777,-2.12132 2.12132,-1.94454 2.12132,-2.65165 0,-0.7071 -0.26517,-0.0884 -0.53033,-2.03293 0,0 -0.90167,0.91669 -2.02667,0.60419 -1.125,-0.3125 -1.875,-0.6875 -2,-1.5625 -0.125,-0.875 -1.25,-1.3125 -1.25,-1.3125 0,0 -1.5625,-0.0625 -1.625,-0.5625 -0.0625,-0.5 -0.3125,-0.875 -0.5,-2.4375 -0.1875,-1.5625 -0.0625,-1.9375 -0.6875,-1.9375 -0.625,0 -1.375,0.125 -1.625,-0.125 -0.25,-0.25 -0.5625,-0.4375 -0.625,-1.25 -0.0625,-0.8125 -0.125,-1.625 -0.5,-1.75 -0.375,-0.125 -1,-0.4375 -1.375,-0.4375 -0.375,0 -1.625,0.25 -1.75,-0.25 -0.125,-0.5 -0.25,-1.1875 -0.125,-1.6875 0.125,-0.5 0.3125,-0.8125 0.3125,-1.25 0,-0.4375 -0.25,-1.4375 -0.25,-1.4375 0,0 -0.4375,0 -0.875,-0.375 C 792,256.4375 792,255.875 791.375,255.75 c -0.625,-0.125 -1,-0.3125 -1.5625,0.3125 -0.5625,0.625 -0.9375,1.1875 -1.25,1.3125 -0.3125,0.125 -2.1875,0.3125 -2.8125,0.3125 -0.625,0 -1.5625,-0.375 -1.5625,-0.375 l -0.4375,-0.5 c 0,0 -0.875,-0.3125 -0.875,0.0625 0,0.375 0.3125,0.75 0,1.25 -0.3125,0.5 -0.125,0.5 -0.8125,1.0625 -0.6875,0.5625 -1.125,0.6875 -1.1875,1.125 -0.0625,0.4375 -0.0625,0.625 0.3125,1.0625 0.375,0.4375 0.5625,0.3125 0.75,0.875 0.1875,0.5625 0.25,0.6875 0.25,1.3125 0,0.625 0.0625,1.5 -0.375,1.875 -0.4375,0.375 -0.5625,0.3125 -0.875,1.125 -0.3125,0.8125 -0.5625,0.9375 -0.75,1.3125 -0.1875,0.375 -0.4375,0.5625 -0.0625,1.3125 0.375,0.75 0.75,1.25 1,1.5625 0.25,0.3125 0.5625,0.8125 0.3125,1.625 -0.25,0.8125 -0.3125,1.25 -0.8125,1.75 -0.5,0.5 -0.9375,1.5625 -1.3125,2 -0.375,0.4375 -0.25,0.9375 -0.875,0.625 -0.625,-0.3125 -1.0625,-0.875 -1.125,-1.125 -0.0625,-0.25 -0.125,-0.5 -0.3125,-1.25 -0.1875,-0.75 -0.4375,-1.6875 -0.5625,-1.9375 -0.125,-0.25 -1.71363,-1.09163 -2.11138,-0.29613 -0.39775,0.79549 -0.26516,1.54679 -0.88388,1.81196 -0.61872,0.26516 -0.7513,0.26516 -1.01647,0.66291 -0.26516,0.39775 -1.01646,1.5026 -1.59099,1.37002 -0.57452,-0.13258 -0.70711,-0.26516 -1.63518,-0.39775 -0.92808,-0.13258 -1.67938,-0.44194 -2.07713,0.13259 -0.39775,0.57452 -1.41421,1.41421 -2.12132,1.14905 -0.70711,-0.26517 -1.63518,-0.7955 -1.85615,-1.01647 -0.22098,-0.22097 -1.59099,-0.83969 -2.2981,-0.7513 -0.70711,0.0884 -0.70711,0.26516 -2.07713,0.17677 -1.37002,-0.0884 -2.69584,-0.61871 -3.57973,-0.61871 -0.88388,0 -3.18198,-1.14905 -3.88908,-1.01647 -0.70711,0.13258 -0.57453,0.13258 -1.32583,0.44194 -0.7513,0.30936 -1.28163,-0.17677 -1.59099,0.35356 -0.30936,0.53033 -0.30936,1.28163 -1.23744,1.14904 -0.92807,-0.13258 -1.41421,-0.13258 -1.76776,-0.48613 -0.35356,-0.35356 -0.61872,-0.88389 -0.61872,-0.88389 0,0 -0.57453,-0.22097 -0.92808,-0.13258 -0.35355,0.0884 -1.28163,0 -1.28163,0 0,0 -0.79549,-0.79549 -0.97227,-0.83969 -0.17678,-0.0442 -0.92808,-0.48613 -1.23744,-0.44194 -0.30936,0.0442 -1.63518,0.26517 -1.63518,0.26517 0,0 -1.94455,0.13258 -1.62366,0.57068 z"
     id="mongolia"
     sodipodi:nodetypes="csssssssssssssssssssssssssssssssssssssscsssssssssssssssscsssssssssscssccsscssccssccssssc"
     inkscape:connector-curvature="0"
     transform="matrix(5.2246763,0,0,4.7935765,-3824.463,-1200.5083)" />
</svg>
