<?xml version="1.0" encoding="UTF-8" standalone="no"?>
<svg
   xmlns:dc="http://purl.org/dc/elements/1.1/"
   xmlns:cc="http://creativecommons.org/ns#"
   xmlns:rdf="http://www.w3.org/1999/02/22-rdf-syntax-ns#"
   xmlns:svg="http://www.w3.org/2000/svg"
   xmlns="http://www.w3.org/2000/svg"
   xmlns:sodipodi="http://sodipodi.sourceforge.net/DTD/sodipodi-0.dtd"
   xmlns:inkscape="http://www.inkscape.org/namespaces/inkscape"
   id="svg2"
   sodipodi:version="0.32"
   inkscape:version="0.48.5 r10040"
   viewBox="0 0 750 520"
   preserveAspectRatio="xMidYMid meet"
   version="1.2"
   sodipodi:docname="western_australia.svg"
   inkscape:output_extension="org.inkscape.output.svg.inkscape"
   inkscape:export-filename="/home/kris/worldmap.png"
   inkscape:export-xdpi="90"
   inkscape:export-ydpi="90"
   style="enable-background:new"
   enable-background="new"
   width="100%"
   height="100%">
  <metadata
     id="metadata3188">
    <rdf:RDF>
      <cc:Work
         rdf:about="">
        <dc:format>image/svg+xml</dc:format>
        <dc:type
           rdf:resource="http://purl.org/dc/dcmitype/StillImage" />
        <dc:title></dc:title>
      </cc:Work>
    </rdf:RDF>
  </metadata>
  <defs
     id="defs3186" />
  <sodipodi:namedview
     pagecolor="#ffffff"
     bordercolor="#666666"
     borderopacity="1"
     objecttolerance="10"
     gridtolerance="10"
     guidetolerance="10"
     inkscape:pageopacity="0"
     inkscape:pageshadow="2"
     inkscape:window-width="1278"
     inkscape:window-height="726"
     id="namedview3184"
     showgrid="false"
     inkscape:zoom="0.45384615"
     inkscape:cx="285.17169"
     inkscape:cy="171.86441"
     inkscape:window-x="0"
     inkscape:window-y="24"
     inkscape:window-maximized="1"
     inkscape:current-layer="svg2" />
  <filter
     inkscape:collect="always"
     id="filter12871">
    <feGaussianBlur
       inkscape:collect="always"
       stdDeviation="0.5805759"
       id="feGaussianBlur12873" />
  </filter>
  <path
     style="fill:#ff00ff;fill-opacity:1;fill-rule:evenodd;stroke:#000000;stroke-width:1.20000005;stroke-linecap:butt;stroke-linejoin:miter;stroke-miterlimit:4.32165003;stroke-opacity:0.58527132;stroke-dasharray:none;stroke-dashoffset:0;display:inline;filter:url(#filter12871)"
     d="m 832.75,455.5 c 0,0 0.5,-2.75 1.5,-3.5 1,-0.75 0.25,-1 0.25,-2.25 0,-1.25 -1,-2.5 0.25,-2.75 1.25,-0.25 1.5,0 3.25,-0.25 1.75,-0.25 3.5,-1.25 3.5,-1.25 l 1.5,1.5 c 0,0 0.75,0.75 3,0.75 2.25,0 3,1 4,2.75 1,1.75 0.5,2.5 3.25,4.25 2.75,1.75 5.5,2.5 7,3 1.5,0.5 2.75,1.25 2.5,2.75 -0.25,1.5 1.5,2.25 -0.5,2.75 0,0 5.72358,2.46185 6.43068,4.05284 0.70711,1.59099 1.94455,2.2981 0.53033,3.18198 -1.41421,0.88388 -3.0052,0.17678 -2.82843,1.23744 0.17678,1.06066 1.23744,1.76777 1.591,3.0052 0.35355,1.23744 1.59099,1.94455 1.59099,3.35876 0,1.41421 -0.35356,2.2981 1.06066,3.18198 1.41421,0.88388 1.59099,0.88388 1.59099,1.94454 0,1.06066 0,2.47488 0,2.47488 0,0 -1.06066,1.06066 -2.82843,1.06066 -1.76777,0 -2.65165,-1.41422 -3.35876,-1.41422 -0.70711,0 -2.47487,-0.35355 -2.47487,-0.35355 0,0 -1.23744,-4.94975 -4.77297,-5.83363 -3.53554,-0.88388 -3.53554,-1.41421 -3.53554,-0.70711 0,0.70711 1.23744,2.2981 -0.17677,2.82843 -1.41422,0.53033 -2.12132,0.53033 -3.00521,0.53033 -0.88388,0 3.00521,1.59099 -1.41421,1.41421 -4.41942,-0.17677 -4.77297,-1.76776 -6.71752,-0.53033 -1.94454,1.23744 -7.77817,-3.71231 -7.77817,-3.71231 0,0 -2.65165,0.17678 -2.65165,-1.23743 0,-1.41422 -0.70711,-1.59099 0.17678,-2.82843 0.88388,-1.23744 0.88388,-1.41421 0.88388,-2.82843 0,-1.41421 0.35355,-1.76777 0.35355,-3.18198 0,-1.41421 0.88389,-1.94454 -0.35355,-2.47487 -1.23744,-0.53033 -2.2981,-0.88389 -2.47487,-2.12132 -0.17678,-1.23744 -0.17678,-1.41422 -1.06066,-1.41422 -0.88389,0 0,0.17678 -1.41422,0.17678 -1.41421,0 -2.47487,1.06066 -3.71231,-0.53033 -1.23744,-1.59099 -1.41421,-1.59099 -3.71231,-1.59099 -2.2981,0 -7.24784,3.35876 -3.35876,0 3.88909,-3.35876 4.5962,-3.53553 4.5962,-3.53553 0,0 -4.06587,0 -4.24264,-1.41422 -0.17678,-1.41421 -0.53033,-3.71231 -1.41422,-4.06586 -0.88388,-0.35355 -1.94454,-0.88389 -1.59099,-2.12132 0.35356,-1.23744 1.06066,-5.65686 4.5962,-5.48008 3.53553,0.17678 4.24264,1.59099 5.3033,2.12132 1.06066,0.53033 3.0052,-1.41421 3.35876,0.35355 0.35355,1.76777 0,4.77298 0,4.77298 0,0 1.23743,0.88388 1.59099,2.65165 L 832.75,455.5 z"
     id="new_guinea"
     sodipodi:nodetypes="csssssssssssssssssssssssssssssssssssssscsssssssssssssssscsssssssssscssccsscssccssccssssc"
     inkscape:connector-curvature="0"
     transform="matrix(8.3135425,0,0,7.3246705,-6761.63,-3235.2661)" />
</svg>
