<?xml version="1.0" encoding="UTF-8" standalone="no"?>
<svg
   xmlns:dc="http://purl.org/dc/elements/1.1/"
   xmlns:cc="http://creativecommons.org/ns#"
   xmlns:rdf="http://www.w3.org/1999/02/22-rdf-syntax-ns#"
   xmlns:svg="http://www.w3.org/2000/svg"
   xmlns="http://www.w3.org/2000/svg"
   xmlns:sodipodi="http://sodipodi.sourceforge.net/DTD/sodipodi-0.dtd"
   xmlns:inkscape="http://www.inkscape.org/namespaces/inkscape"
   id="svg2"
   sodipodi:version="0.32"
   inkscape:version="0.48.5 r10040"
   viewBox="0 0 750 520"
   preserveAspectRatio="xMidYMid meet"
   version="1.2"
   sodipodi:docname="northwest_territory.svg"
   inkscape:output_extension="org.inkscape.output.svg.inkscape"
   inkscape:export-filename="/home/kris/worldmap.png"
   inkscape:export-xdpi="90"
   inkscape:export-ydpi="90"
   style="enable-background:new"
   enable-background="new"
   width="100%"
   height="100%">
  <metadata
     id="metadata3188">
    <rdf:RDF>
      <cc:Work
         rdf:about="">
        <dc:format>image/svg+xml</dc:format>
        <dc:type
           rdf:resource="http://purl.org/dc/dcmitype/StillImage" />
        <dc:title />
      </cc:Work>
    </rdf:RDF>
  </metadata>
  <defs
     id="defs3186" />
  <sodipodi:namedview
     pagecolor="#ffffff"
     bordercolor="#666666"
     borderopacity="1"
     objecttolerance="10"
     gridtolerance="10"
     guidetolerance="10"
     inkscape:pageopacity="0"
     inkscape:pageshadow="2"
     inkscape:window-width="1278"
     inkscape:window-height="726"
     id="namedview3184"
     showgrid="false"
     inkscape:zoom="0.45384615"
     inkscape:cx="375"
     inkscape:cy="260"
     inkscape:window-x="0"
     inkscape:window-y="24"
     inkscape:window-maximized="1"
     inkscape:current-layer="svg2" />
  <filter
     inkscape:collect="always"
     id="filter12871">
    <feGaussianBlur
       inkscape:collect="always"
       stdDeviation="0.5805759"
       id="feGaussianBlur12873" />
  </filter>
  <path
     style="fill:yellow;fill-opacity:1;fill-rule:evenodd;stroke:#000000;stroke-width:1.20000005;stroke-linecap:butt;stroke-linejoin:miter;stroke-miterlimit:4.32165003;stroke-opacity:0.58527132;stroke-dasharray:none;stroke-dashoffset:0;display:inline;filter:url(#filter12871)"
     d="m 334.83614,217.06934 c 0.70712,-2.47487 8.81776,-10.15857 8.81776,-10.15857 0,0 3.18198,-0.35355 4.59619,-1.41421 1.41421,-1.06067 -1.76777,-4.24265 -1.76777,-4.24265 l 0.70711,-2.12132 2.12132,1.76777 c 0,0 0.70711,1.41421 2.82843,1.41421 2.12132,0 1.41421,-2.12132 2.82842,-2.47487 1.41422,-0.35355 2.82843,-3.88909 2.82843,-3.88909 0,0 2.82843,1.06066 5.65686,-1.76776 2.82842,-2.82843 0.7071,-1.41422 0,-2.82843 -0.70711,-1.41421 0.7071,-2.47487 0.7071,-2.47487 l -2.12132,-0.70711 c 0,0 1.41422,-1.06066 0,-3.18198 -1.41421,-2.12132 -1.76776,1.06066 -3.18198,2.12132 -1.41421,1.06066 -1.06066,2.12132 -4.94975,1.41421 -3.88908,-0.7071 0,-2.12132 -0.35355,-3.53553 -0.35355,-1.41422 -4.24264,0.70711 -4.94975,-1.41422 -0.7071,-2.12132 -1.76776,1.06067 -1.41421,-1.06066 0.35355,-2.12132 -0.35355,-5.3033 -1.76777,-6.0104 -1.41421,-0.70711 2.82843,-7.42462 2.82843,-7.42462 0,0 2.82843,1.41421 3.18198,-1.06066 0.35355,-2.47488 1.76777,-2.12132 1.76777,-3.53554 0,-1.41421 -3.53554,-0.35355 -3.53554,-0.35355 l -0.7071,2.82843 c 0,0 -4.24264,-3.18199 -4.24264,0 0,3.18198 -1.41422,3.18198 -3.53554,7.42462 -2.12132,4.24264 -0.35355,6.71751 -0.35355,6.71751 0,0 2.12132,0.70711 1.41421,2.82843 -0.7071,2.12132 -4.94975,1.76777 -4.94975,1.76777 l -0.35355,-3.88909 -2.82843,0 c 0,0 -0.35355,3.88909 0,5.3033 0.35356,1.41421 -7.77817,0.35355 -9.89949,-1.41421 -2.12132,-1.76777 -4.59619,1.41421 -6.71751,2.47487 -2.12133,1.06066 -3.88909,0.35355 -6.01041,-0.35355 -2.12132,-0.70711 -1.06066,2.82842 -5.65686,2.47487 -4.59619,-0.35355 -2.12132,-6.36396 -3.18198,-4.24264 -1.06066,2.12132 -5.65685,-1.76777 -8.13173,-3.88909 -2.47487,-2.12132 -7.07106,-1.41421 -7.07106,-1.41421 l -0.35356,-2.47488 -2.47487,0 -3.18198,0.70711 c 0,0 -2.47487,1.06066 -4.59619,0.70711 -2.12133,-0.35356 -1.76777,1.76776 -1.76777,1.76776 0,0 -2.47488,1.06066 -5.65686,0.70711 -3.18198,-0.35355 -2.82842,1.06066 -4.24264,2.12132 -1.41421,1.06066 -6.36396,-1.41421 -9.54594,-2.82843 -3.18198,-1.41421 -5.26041,1.53922 -8.44239,0.47856 0,0 -1.67671,31.31652 -1.42671,32.06652 0.25,0.75 82.625,3 86.75,2.875 4.125,-0.125 2.33614,0.19434 2.33614,0.19434 z"
     id="alaska"
     sodipodi:nodetypes="csssssssssssssssssssssssssssssssssssssscsssssssssssssssscsssssssssscssccsscssccssccssssc"
     inkscape:connector-curvature="0"
     transform="matrix(5.5995085,0,0,5.9791367,-1353.8621,-961.04689)" />
  <text
     xml:space="preserve"
     style="font-size:78.45033264px;font-style:normal;font-variant:normal;font-weight:bold;font-stretch:normal;text-align:start;line-height:125%;letter-spacing:0px;word-spacing:0px;writing-mode:lr-tb;text-anchor:start;fill:#800000;fill-opacity:1;stroke:none;display:inline;enable-background:new;font-family:Latin Modern Mono;-inkscape-font-specification:Latin Modern Mono Bold"
     x="8.8657026"
     y="467.46533"
     id="alberta_text"
     sodipodi:linespacing="125%"
     inkscape:label="alberta"
     transform="scale(0.9065033,1.1031399)"><tspan
       sodipodi:role="line"
       id="tspan7513-9-23"
       x="8.8657026"
       y="467.46533"
       style="font-size:78.45033264px;font-style:normal;font-variant:normal;font-weight:bold;font-stretch:normal;text-align:start;line-height:125%;writing-mode:lr-tb;text-anchor:start;fill:#800000;font-family:Latin Modern Mono;-inkscape-font-specification:Latin Modern Mono Bold">NORTHWEST TERRITORY</tspan></text>
</svg>
