<?xml version="1.0" encoding="UTF-8" standalone="no"?>
<svg
   xmlns:dc="http://purl.org/dc/elements/1.1/"
   xmlns:cc="http://creativecommons.org/ns#"
   xmlns:rdf="http://www.w3.org/1999/02/22-rdf-syntax-ns#"
   xmlns:svg="http://www.w3.org/2000/svg"
   xmlns="http://www.w3.org/2000/svg"
   xmlns:sodipodi="http://sodipodi.sourceforge.net/DTD/sodipodi-0.dtd"
   xmlns:inkscape="http://www.inkscape.org/namespaces/inkscape"
   id="svg2"
   sodipodi:version="0.32"
   inkscape:version="0.48.5 r10040"
   viewBox="0 0 750 520"
   preserveAspectRatio="xMidYMid meet"
   version="1.2"
   sodipodi:docname="alberta.svg"
   inkscape:output_extension="org.inkscape.output.svg.inkscape"
   inkscape:export-filename="/home/kris/worldmap.png"
   inkscape:export-xdpi="90"
   inkscape:export-ydpi="90"
   style="enable-background:new"
   enable-background="new"
   width="100%"
   height="100%">
  <metadata
     id="metadata3188">
    <rdf:RDF>
      <cc:Work
         rdf:about="">
        <dc:format>image/svg+xml</dc:format>
        <dc:type
           rdf:resource="http://purl.org/dc/dcmitype/StillImage" />
        <dc:title></dc:title>
      </cc:Work>
    </rdf:RDF>
  </metadata>
  <defs
     id="defs3186" />
  <sodipodi:namedview
     pagecolor="#ffffff"
     bordercolor="#666666"
     borderopacity="1"
     objecttolerance="10"
     gridtolerance="10"
     guidetolerance="10"
     inkscape:pageopacity="0"
     inkscape:pageshadow="2"
     inkscape:window-width="1278"
     inkscape:window-height="726"
     id="namedview3184"
     showgrid="false"
     inkscape:zoom="0.45384615"
     inkscape:cx="375"
     inkscape:cy="348.13559"
     inkscape:window-x="0"
     inkscape:window-y="24"
     inkscape:window-maximized="1"
     inkscape:current-layer="svg2" />
  <filter
     inkscape:collect="always"
     id="filter12871">
    <feGaussianBlur
       inkscape:collect="always"
       stdDeviation="0.5805759"
       id="feGaussianBlur12873" />
  </filter>
  <path
     style="fill:yellow;fill-opacity:1;fill-rule:evenodd;stroke:#000000;stroke-width:1.20000005;stroke-linecap:butt;stroke-linejoin:miter;stroke-miterlimit:4.32165003;stroke-opacity:0.58527132;stroke-dasharray:none;stroke-dashoffset:0;display:inline;filter:url(#filter12871)"
     d="m 333.04729,219.63869 c -0.7071,2.47487 -1.06066,9.19239 -1.06066,9.19239 l 1.76777,1.41421 c 0,0 1.41421,2.47488 3.18198,4.24264 1.76777,1.76777 2.82843,5.3033 5.65686,4.5962 2.82842,-0.70711 3.88908,2.47487 3.88908,2.47487 l 2.12132,-1.41421 c 0,0 2.12132,-1.23744 2.47488,-0.53033 0.35355,0.7071 2.47487,1.41421 2.47487,1.41421 0,0 2.12132,-1.23744 4.06587,-1.41421 1.94454,-0.17678 0.35355,1.59099 0.35355,1.59099 l -4.06587,1.94454 c 0,0 0.88389,2.65165 1.94455,2.2981 1.06066,-0.35356 1.59099,4.06586 0.35355,4.94975 -1.23744,0.88388 0.35355,2.65165 0.35355,2.65165 l 0.70711,2.47487 1.94455,1.41421 0.53033,2.2981 -0.17678,0 c -0.70711,1.94454 -1.06066,18.91511 -1.06066,18.91511 0,0 1.06066,-1.41422 1.76777,-1.59099 0.7071,-0.17678 1.76776,1.41421 2.47487,1.59099 0.70711,0.17677 0.35355,-1.41422 1.06066,-2.12132 0.70711,-0.70711 0.88388,0 1.59099,0.53033 0.70711,0.53033 0.53033,0 1.59099,-0.17678 1.06066,-0.17678 1.06066,2.82843 1.06066,3.71231 0,0.88388 -1.76777,1.41421 -1.76777,1.41421 0,0 -2.47487,0.88389 -3.53553,0.70711 -1.06066,-0.17678 -2.2981,1.41421 -3.0052,2.2981 -0.70711,0.88388 -2.12132,0.35355 -3.00521,0.7071 -0.88388,0.35356 -0.35355,1.23744 -0.17678,2.47488 0.17678,1.23744 -3.88908,4.41942 -4.77297,3.53553 -0.88388,-0.88388 -2.29809,-2.29809 -3.88908,-3.18198 -1.59099,-0.88388 0.35355,-2.65165 1.06066,-3.88909 0.7071,-1.23743 0.17677,-4.06586 -0.88389,-6.89429 -1.06066,-2.82842 -1.23743,-3.88908 -1.76776,-4.59619 -0.53033,-0.70711 -1.76777,-2.65165 -2.2981,-4.94975 -0.53033,-2.2981 -2.82843,1.59099 -5.3033,0.88389 -2.47488,-0.70711 -5.83363,1.06066 -5.83363,1.06066 0,0 0.35355,-4.94975 -0.35356,-5.30331 -0.7071,-0.35355 -19.79899,0.35356 -19.79899,0.35356 0,0 0,-0.53033 0,-2.82843 0,-2.2981 3.88909,-45.43161 3.88909,-45.43161 l 18.38478,0.53033 -1.94455,2.65165 z"
     id="alaska"
     sodipodi:nodetypes="csssssssssssssssssssssssssssssssssssssscsssssssssssssssscsssssssssscssccsscssccssccssssc"
     inkscape:connector-curvature="0"
     transform="matrix(4.7361533,0,0,6.0569955,-1454.8408,-1291.3578)" />
     <text
          xml:space="preserve"
          style="font-size:107.87071991px;font-style:normal;font-variant:normal;font-weight:bold;font-stretch:normal;text-align:start;line-height:125%;letter-spacing:0px;word-spacing:0px;writing-mode:lr-tb;text-anchor:start;fill:#800000;fill-opacity:1;stroke:none;display:inline;enable-background:new;font-family:Latin Modern Mono;-inkscape-font-specification:Latin Modern Mono Bold"
          x="40.32494"
          y="440.29465"
          id="alberta_text"
          sodipodi:linespacing="125%"
          inkscape:label="alberta"
          transform="scale(0.94301946,1.0604235)"><tspan
            sodipodi:role="line"
            id="tspan7513-9-23"
            x="40.32494"
            y="440.29465"
            style="font-size:107.87071991px;font-style:normal;font-variant:normal;font-weight:bold;font-stretch:normal;text-align:start;line-height:125%;writing-mode:lr-tb;text-anchor:start;fill:#800000;font-family:Latin Modern Mono;-inkscape-font-specification:Latin Modern Mono Bold">ONTARIO</tspan></text>

</svg>
