<?xml version="1.0" encoding="UTF-8" standalone="no"?>
<svg
   xmlns:dc="http://purl.org/dc/elements/1.1/"
   xmlns:cc="http://creativecommons.org/ns#"
   xmlns:rdf="http://www.w3.org/1999/02/22-rdf-syntax-ns#"
   xmlns:svg="http://www.w3.org/2000/svg"
   xmlns="http://www.w3.org/2000/svg"
   xmlns:sodipodi="http://sodipodi.sourceforge.net/DTD/sodipodi-0.dtd"
   xmlns:inkscape="http://www.inkscape.org/namespaces/inkscape"
   id="svg2"
   sodipodi:version="0.32"
   inkscape:version="0.48.5 r10040"
   viewBox="0 0 750 520"
   preserveAspectRatio="xMidYMid meet"
   version="1.2"
   sodipodi:docname="ontario.svg"
   inkscape:output_extension="org.inkscape.output.svg.inkscape"
   inkscape:export-filename="/home/kris/worldmap.png"
   inkscape:export-xdpi="90"
   inkscape:export-ydpi="90"
   style="enable-background:new"
   enable-background="new"
   width="100%"
   height="100%">
  <metadata
     id="metadata3188">
    <rdf:RDF>
      <cc:Work
         rdf:about="">
        <dc:format>image/svg+xml</dc:format>
        <dc:type
           rdf:resource="http://purl.org/dc/dcmitype/StillImage" />
        <dc:title></dc:title>
      </cc:Work>
    </rdf:RDF>
  </metadata>
  <defs
     id="defs3186" />
  <sodipodi:namedview
     pagecolor="#ffffff"
     bordercolor="#666666"
     borderopacity="1"
     objecttolerance="10"
     gridtolerance="10"
     guidetolerance="10"
     inkscape:pageopacity="0"
     inkscape:pageshadow="2"
     inkscape:window-width="1278"
     inkscape:window-height="726"
     id="namedview3184"
     showgrid="false"
     inkscape:zoom="0.45384615"
     inkscape:cx="375"
     inkscape:cy="348.13559"
     inkscape:window-x="0"
     inkscape:window-y="24"
     inkscape:window-maximized="1"
     inkscape:current-layer="svg2" />
  <filter
     inkscape:collect="always"
     id="filter12871">
    <feGaussianBlur
       inkscape:collect="always"
       stdDeviation="0.5805759"
       id="feGaussianBlur12873" />
  </filter>
  <path
     style="fill:yellow;fill-opacity:1;fill-rule:evenodd;stroke:#000000;stroke-width:1.20000005;stroke-linecap:butt;stroke-linejoin:miter;stroke-miterlimit:4.32165003;stroke-opacity:0.58527132;stroke-dasharray:none;stroke-dashoffset:0;display:inline;filter:url(#filter12871)"
     d="m 359.74058,259.23667 c 0,0 0.7071,-3.71231 1.94454,-4.59619 1.23744,-0.88389 1.94454,-5.65686 1.41421,-6.71752 -0.53033,-1.06066 -1.41421,-1.41421 -0.7071,-3.0052 0.7071,-1.59099 0.35355,-4.24264 2.12132,-3.71231 1.76776,0.53033 3.53553,0.35355 3.88908,-0.88389 0.35356,-1.23743 -0.17677,-1.23743 0,-2.29809 0.17678,-1.06066 1.06066,-1.41422 1.76777,-1.59099 0.70711,-0.17678 1.23744,0.35355 0.70711,-2.12132 -0.53033,-2.47488 0,-1.41422 -0.70711,-3.18198 -0.70711,-1.76777 -0.17678,-0.70711 -0.88388,-2.2981 -0.70711,-1.59099 -1.23744,-4.06587 0.53033,-4.24264 1.76776,-0.17678 -0.17678,-2.2981 1.06066,-2.82843 1.23743,-0.53033 3.53553,0.17678 3.0052,-1.94454 -0.53033,-2.12132 -3.18198,-6.36396 -1.41421,-6.54074 C 374.23626,213.09795 376.75,214 376.75,214 l 6.25,0.375 c 0,0 -0.625,2.375 1.25,2.625 1.875,0.25 2.125,1.375 2.75,1.75 0.625,0.375 1.625,1.25 1.375,1.75 -0.25,0.5 -0.25,1 -0.125,1.875 0.125,0.875 0.75,2.125 0.25,2.375 -0.5,0.25 -1,1 -0.875,2 0.125,1 0.5,2.5 0.5,2.5 0,0 1,1.375 2.25,0.75 1.25,-0.625 0.875,-1.125 2.5,-1.875 1.625,-0.75 1.625,0.875 2.625,-0.75 1,-1.625 0.875,-1.875 1.125,-2.5 0.25,-0.625 1.5,-2.25 2.5,-1.75 1,0.5 -0.31677,4.99897 0.74389,6.58996 1.06066,1.59099 2.50611,-0.58996 2.63111,0.16004 0.125,0.75 0.25,1.625 0.375,2.25 0.125,0.625 -0.75,1.125 0,2.125 0.75,1 0.875,1.25 0.75,2 -0.125,0.75 0.375,1.375 0.375,1.375 0,0 1.375,-1.25 2,0.25 0.625,1.5 0.125,2.375 1.25,2.375 1.125,0 2.375,1.75 2.375,1.75 l 0.5,2.625 2.875,-2 2.75,0.875 c 0,0 -3.8125,1.75 -3.0625,3.5625 0.75,1.8125 4.625,-2.125 4.5625,0.3125 -0.0625,2.4375 -0.5,4.9375 -1.4375,5.0625 -0.9375,0.125 -2.4375,0.9375 -2.5625,1.5 -0.125,0.5625 -1.875,1.6875 -3,1.9375 -1.125,0.25 0.625,1.25 -1.75,1.625 -2.375,0.375 -3.125,0.25 -3.625,0.25 -0.5,0 -0.5,0.5 -1.125,1.625 -0.625,1.125 -0.125,1.5 -0.75,2 -0.625,0.5 2.25,0 -1.625,0.875 -3.875,0.875 -4.5,1.125 -4.5,1.125 0,0 -0.25,0.375 -1.5,0.375 -1.25,0 -1.75,-0.625 -1.75,-0.625 0,0 -0.25,-0.625 -2,-0.625 -1.75,0 -3.375,1.625 -3.375,1.625 0,0 -0.5,0.625 -1.5,0.75 -1,0.125 -2.375,1.375 -2.375,1.375 0,0 -1.375,0.375 -1,1.875 0.375,1.5 1.75,2.875 2.625,1.875 0.875,-1 2.25,-5 4.125,-4.625 1.875,0.375 4.375,1.125 3.875,3.875 -0.5,2.75 -0.625,2.25 -0.25,3.625 0.375,1.375 1.25,2.125 1.125,3.375 -0.125,1.25 -1.25,0.875 0.125,2 1.375,1.125 2.875,2.875 3.375,1.25 0.5,-1.625 1.125,-2.75 1.75,-2.5 0.625,0.25 2.375,-0.5 1.125,2 -1.25,2.5 -1,2.625 -2.125,3.375 -1.125,0.75 -1,-1.25 -3,1.75 0.0316,0.30235 -1.82458,1.00946 -2.35491,0.83268 -0.53033,-0.17678 -0.7955,-0.97227 -1.06066,-2.03293 -0.26517,-1.06066 -1.5026,-0.88389 -3.09359,-0.97227 -1.59099,-0.0884 -0.0884,-3.71232 0.35355,-5.65686 0.44194,-1.94454 -3.07843,-4.02297 -4.0507,-4.19975 -0.97227,-0.17677 -2.0481,-0.13128 -2.7552,0.57583 -0.70711,0.70711 -1.5026,0.97227 -1.85616,1.23744 -0.35355,0.26516 0.35356,4.15425 0.35356,4.15425 0,0 -0.17678,-0.17678 -1.76777,0.79549 -1.59099,0.97228 -11.84404,1.23744 -11.84404,1.23744 0,-0.88388 0,-3.88909 -1.06066,-3.71231 -1.06066,0.17678 -0.88388,0.70711 -1.59099,0.17678 -0.70711,-0.53033 -0.88388,-1.23744 -1.59099,-0.53033 -0.70711,0.7071 -0.35355,2.29809 -1.06066,2.12132 -0.70711,-0.17678 -1.76777,-1.76777 -2.47487,-1.59099 -0.70711,0.17677 -1.76777,1.59099 -1.76777,1.59099 0,0 0.35355,-16.97057 1.06066,-18.91511 l 0.17678,0 z"
     id="alaska"
     sodipodi:nodetypes="csssssssssssssssssssssssssssssssssssssscsssssssssssssssscsssssssssscssccsscssccssccssssc"
     inkscape:connector-curvature="0"
     transform="matrix(4.7361533,0,0,6.0569955,-1686.1967,-1273.7307)" />
     <text
          xml:space="preserve"
          style="font-size:107.87071991px;font-style:normal;font-variant:normal;font-weight:bold;font-stretch:normal;text-align:start;line-height:125%;letter-spacing:0px;word-spacing:0px;writing-mode:lr-tb;text-anchor:start;fill:#800000;fill-opacity:1;stroke:none;display:inline;enable-background:new;font-family:Latin Modern Mono;-inkscape-font-specification:Latin Modern Mono Bold"
          x="40.32494"
          y="440.29465"
          id="alberta_text"
          sodipodi:linespacing="125%"
          inkscape:label="alberta"
          transform="scale(0.94301946,1.0604235)"><tspan
            sodipodi:role="line"
            id="tspan7513-9-23"
            x="40.32494"
            y="440.29465"
            style="font-size:107.87071991px;font-style:normal;font-variant:normal;font-weight:bold;font-stretch:normal;text-align:start;line-height:125%;writing-mode:lr-tb;text-anchor:start;fill:#800000;font-family:Latin Modern Mono;-inkscape-font-specification:Latin Modern Mono Bold">QUEBEC</tspan></text>

</svg>
