<?xml version="1.0" encoding="UTF-8" standalone="no"?>
<svg
   xmlns:dc="http://purl.org/dc/elements/1.1/"
   xmlns:cc="http://creativecommons.org/ns#"
   xmlns:rdf="http://www.w3.org/1999/02/22-rdf-syntax-ns#"
   xmlns:svg="http://www.w3.org/2000/svg"
   xmlns="http://www.w3.org/2000/svg"
   xmlns:sodipodi="http://sodipodi.sourceforge.net/DTD/sodipodi-0.dtd"
   xmlns:inkscape="http://www.inkscape.org/namespaces/inkscape"
   id="svg2"
   sodipodi:version="0.32"
   inkscape:version="0.48.5 r10040"
   viewBox="0 0 750 520"
   preserveAspectRatio="xMidYMid meet"
   version="1.2"
   sodipodi:docname="great_britain.svg"
   inkscape:output_extension="org.inkscape.output.svg.inkscape"
   inkscape:export-filename="/home/kris/worldmap.png"
   inkscape:export-xdpi="90"
   inkscape:export-ydpi="90"
   style="enable-background:new"
   enable-background="new"
   width="100%"
   height="100%">
  <metadata
     id="metadata3188">
    <rdf:RDF>
      <cc:Work
         rdf:about="">
        <dc:format>image/svg+xml</dc:format>
        <dc:type
           rdf:resource="http://purl.org/dc/dcmitype/StillImage" />
        <dc:title></dc:title>
      </cc:Work>
    </rdf:RDF>
  </metadata>
  <defs
     id="defs3186" />
  <sodipodi:namedview
     pagecolor="#ffffff"
     bordercolor="#666666"
     borderopacity="1"
     objecttolerance="10"
     gridtolerance="10"
     guidetolerance="10"
     inkscape:pageopacity="0"
     inkscape:pageshadow="2"
     inkscape:window-width="1278"
     inkscape:window-height="726"
     id="namedview3184"
     showgrid="false"
     inkscape:zoom="0.45384615"
     inkscape:cx="375"
     inkscape:cy="348.13559"
     inkscape:window-x="0"
     inkscape:window-y="24"
     inkscape:window-maximized="1"
     inkscape:current-layer="svg2" />
  <filter
     inkscape:collect="always"
     id="filter12871">
    <feGaussianBlur
       inkscape:collect="always"
       stdDeviation="0.5805759"
       id="feGaussianBlur12873" />
  </filter>
  <path
     style="fill:blue;fill-opacity:1;fill-rule:evenodd;stroke:#000000;stroke-width:1.20000005;stroke-linecap:butt;stroke-linejoin:miter;stroke-miterlimit:4.32165003;stroke-opacity:0.58527132;stroke-dasharray:none;stroke-dashoffset:0;display:inline;filter:url(#filter12871)"
     d="m 579.125,237 c -0.625,-0.125 -1.5,-0.5 -1.875,-1.25 -0.375,-0.75 -1.25,-1.625 -1.875,-1.375 -0.625,0.25 -0.375,0.375 -1.625,0.375 -1.25,0 -1.875,-1.75 -2.875,-1.125 -1,0.625 -0.25,1 -1.5,1.25 -1.25,0.25 -2.625,0.375 -3.875,0.375 -1.25,0 -1,-0.25 -2.375,0 -1.375,0.25 -2.375,1 -2.875,-0.25 -0.5,-1.25 -0.625,-0.875 -0.625,-2.125 0,-1.25 0.75,-2.125 1,-3.25 0.25,-1.125 -0.5,-2.25 0.375,-3.375 0.875,-1.125 1.5,-1.375 1.875,-2 0.375,-0.625 0.75,-1.375 0.875,-2.25 0.125,-0.875 0.125,-0.625 0.125,-1.5 0,-0.875 -0.375,-1.625 -0.875,-2 -0.5,-0.375 -0.375,-0.375 -1.5,-0.5 -1.125,-0.125 -0.75,-0.875 -1.875,0.375 -1.125,1.25 -2.125,1.375 -2.25,2.375 -0.125,1 0.5,1.375 -0.125,2.625 -0.625,1.25 -0.75,1.125 -1,1.625 -0.25,0.5 0.25,1.25 -0.25,1.75 -0.5,0.5 -0.875,0.5 -1.75,1 -0.875,0.5 -1.5,0.125 -1.625,1.625 -0.125,1.5 -0.375,1.125 0,2.125 0.375,1 0.625,1.125 0.875,1.875 0.25,0.75 0.75,1.125 0.75,2.625 0,1.5 0.375,2 0.375,2 0,0 0.5,1.75 0.375,2.625 -0.125,0.875 -0.5,2.375 -0.875,3.25 -0.375,0.875 -0.75,1.375 -1.375,2 -0.625,0.625 -0.375,0.75 -1.125,1.5 -0.75,0.75 -1.625,1 -2.25,1.375 -0.625,0.375 -0.75,1.625 -0.75,1.625 l 0,2.375 c 0,0 0.625,1.625 -0.5,2.125 -1.125,0.5 -1.375,0.625 -2.125,1.75 -0.75,1.125 0,2 -0.875,2.75 -0.875,0.75 -0.625,0.875 -2.125,0.75 -1.5,-0.125 -1.75,-0.125 -2.25,-0.75 -0.5,-0.625 -1.125,-1.75 -1.875,-1.875 -0.75,-0.125 -0.625,0.125 -1.125,-0.125 -0.5,-0.25 -0.125,-0.75 -0.875,-0.75 -0.75,0 -1.125,0.5 -1.125,0 0,-0.5 0,-0.25 0,-1.375 0,-1.125 0,-4.625 0,-4.625 l -1.875,-2.875 0.625,-1.625 -0.75,-1.25 -0.875,-0.5 c 0,0 -1.375,0.5 -1.5,1 -0.125,0.5 -0.125,0.875 -0.375,1.375 -0.25,0.5 -1.375,2 -2.25,2.125 -0.875,0.125 -2,0.25 -2,0.25 0,0 -0.375,1 -1.125,0.625 -0.75,-0.375 -0.5,-0.25 -1.375,-1.25 -0.875,-1 -1.125,-2.125 -1.125,-2.625 0,-0.5 0.25,-0.625 -0.375,-1.125 -0.625,-0.5 -0.625,-0.5 -1.25,-1.125 -0.625,-0.625 -1.5,-1.125 -1.375,-2.25 0.125,-1.125 0.375,-2.25 0.625,-3.375 0.25,-1.125 -0.375,-2.25 -0.375,-2.25 l -0.47474,-0.90851 c -0.53033,-1.06066 0,-0.88389 -0.88388,-1.76777 -0.88389,-0.88388 -1.59099,-1.23744 -1.06066,-2.65165 0.53033,-1.41421 -0.35356,-2.2981 1.06066,-2.65165 1.41421,-0.35355 1.23743,1.59099 1.59099,-0.88389 0.35355,-2.47487 -0.70711,-1.76776 0.70711,-3.35875 1.41421,-1.59099 1.59099,-1.94455 1.59099,-1.94455 0,0 0.88388,0 1.23743,1.23744 0.35356,1.23744 0.35356,2.2981 1.06066,1.41421 0.70711,-0.88388 0.88389,-1.94454 1.41422,-2.65165 0.53033,-0.7071 1.41421,-1.59099 1.41421,-1.59099 0,0 -1.59099,-2.65165 0.35355,-2.47487 1.94455,0.17678 1.94455,0.53033 2.47488,-0.17678 0.53033,-0.7071 0.35355,-0.7071 1.59099,-1.06066 1.23743,-0.35355 1.41421,-0.17677 1.59099,-1.23743 0.17677,-1.06066 0.7071,-1.06066 1.41421,-1.76777 0.70711,-0.70711 0.70711,-1.06066 0.88388,-2.47487 0.17678,-1.41422 -0.17677,-1.23744 1.41422,-3.35876 1.59099,-2.12132 1.59099,-1.94455 2.12132,-3.35876 0.53033,-1.41421 0.53033,-1.23744 1.06066,-2.12132 0.53033,-0.88388 1.23744,-0.53033 1.76777,-1.23744 0.53033,-0.7071 0.7071,-1.59099 0.7071,-1.59099 l 0.88389,-1.59099 c 0,0 -1.76777,-0.7071 -0.17678,-1.41421 1.59099,-0.70711 1.76777,-0.88388 3.0052,-1.23744 1.23744,-0.35355 2.12132,-0.35355 2.12132,-0.35355 0,0 1.14905,1.67938 1.32583,0.44194 0.17678,-1.23744 -0.53033,-1.41421 0.53033,-2.20971 1.06066,-0.79549 1.67938,-0.7071 2.03293,-0.44194 0.35355,0.26517 0.17678,0.53033 0.97227,0.35355 0.7955,-0.17677 1.67938,0.88389 1.94455,-0.35355 0.26516,-1.23744 -1.14905,-2.20971 0.53033,-2.91681 1.67937,-0.70711 2.56326,-0.0884 3.09359,-0.61872 0.53033,-0.53033 -0.26517,-0.7955 0.79549,-1.32583 1.06066,-0.53033 1.41422,-0.26516 2.47488,-0.61872 1.06066,-0.35355 1.14905,-1.5026 1.67938,-1.59099 0.53033,-0.0884 1.23743,0 1.76776,0.53033 0.53033,0.53033 -0.97227,0.97227 1.14905,0.61872 2.12132,-0.35355 4.94975,-1.67938 5.74524,-1.06066 0.7955,0.61872 0.0884,1.67938 1.14905,1.67938 1.06066,0 2.12132,-0.44194 2.65165,-0.0884 0.53033,0.35355 0.44194,0.61872 1.23744,0.97227 0,0 0.92504,3.96773 0.30004,4.46773 -0.625,0.5 0.75,3.625 0,4.125 -0.75,0.5 -1.125,6.25 -1.125,8.875 0,2.625 1.375,6.75 1,8.875 -0.375,2.125 0.625,5.125 0.625,5.125 0,0 0.625,0.625 0.625,2.25 0,1.625 0.875,2.5 0.875,2.5 0,0 0.4375,0.125 0.5,0.6875 0.0625,0.5625 0.0625,1.4375 -0.1875,1.6875 -0.25,0.25 -0.8125,0.6875 -0.8125,1.625 0,0.9375 0.25,1.3125 -0.0625,1.75 -0.3125,0.4375 -0.5625,0.5625 -0.6875,1.625 -0.125,1.0625 -0.3125,2.5 -0.0625,3.0625 0.25,0.5625 0.6875,2.6875 -0.1875,2.4375 z"
     id="alaska"
     sodipodi:nodetypes="csssssssssssssssssssssssssssssssssssssscsssssssssssssssscsssssssssscssccsscssccssccssssc"
     inkscape:connector-curvature="0"
     transform="matrix(5.2000526,0,0,5.2473841,-2667.8914,-925.59801)" />
     <text
          xml:space="preserve"
          style="font-size:107.87071991px;font-style:normal;font-variant:normal;font-weight:bold;font-stretch:normal;text-align:start;line-height:125%;letter-spacing:0px;word-spacing:0px;writing-mode:lr-tb;text-anchor:start;fill:#800000;fill-opacity:1;stroke:none;display:inline;enable-background:new;font-family:Latin Modern Mono;-inkscape-font-specification:Latin Modern Mono Bold"
          x="40.32494"
          y="440.29465"
          id="alberta_text"
          sodipodi:linespacing="125%"
          inkscape:label="alberta"
          transform="scale(0.94301946,1.0604235)"><tspan
            sodipodi:role="line"
            id="tspan7513-9-23"
            x="40.32494"
            y="440.29465"
            style="font-size:107.87071991px;font-style:normal;font-variant:normal;font-weight:bold;font-stretch:normal;text-align:start;line-height:125%;writing-mode:lr-tb;text-anchor:start;fill:#800000;font-family:Latin Modern Mono;-inkscape-font-specification:Latin Modern Mono Bold">SCANDINAVIA</tspan></text>

</svg>
