<?xml version="1.0" encoding="UTF-8" standalone="no"?>
<svg
   xmlns:dc="http://purl.org/dc/elements/1.1/"
   xmlns:cc="http://creativecommons.org/ns#"
   xmlns:rdf="http://www.w3.org/1999/02/22-rdf-syntax-ns#"
   xmlns:svg="http://www.w3.org/2000/svg"
   xmlns="http://www.w3.org/2000/svg"
   xmlns:sodipodi="http://sodipodi.sourceforge.net/DTD/sodipodi-0.dtd"
   xmlns:inkscape="http://www.inkscape.org/namespaces/inkscape"
   id="svg2"
   sodipodi:version="0.32"
   inkscape:version="0.48.5 r10040"
   viewBox="0 0 750 520"
   preserveAspectRatio="xMidYMid meet"
   version="1.2"
   sodipodi:docname="india.svg"
   inkscape:output_extension="org.inkscape.output.svg.inkscape"
   inkscape:export-filename="/home/kris/worldmap.png"
   inkscape:export-xdpi="90"
   inkscape:export-ydpi="90"
   style="enable-background:new"
   enable-background="new"
   width="100%"
   height="100%">
  <metadata
     id="metadata3188">
    <rdf:RDF>
      <cc:Work
         rdf:about="">
        <dc:format>image/svg+xml</dc:format>
        <dc:type
           rdf:resource="http://purl.org/dc/dcmitype/StillImage" />
        <dc:title></dc:title>
      </cc:Work>
    </rdf:RDF>
  </metadata>
  <defs
     id="defs3186" />
  <sodipodi:namedview
     pagecolor="#ffffff"
     bordercolor="#666666"
     borderopacity="1"
     objecttolerance="10"
     gridtolerance="10"
     guidetolerance="10"
     inkscape:pageopacity="0"
     inkscape:pageshadow="2"
     inkscape:window-width="1278"
     inkscape:window-height="726"
     id="namedview3184"
     showgrid="false"
     inkscape:zoom="0.45384615"
     inkscape:cx="969.84328"
     inkscape:cy="348.13559"
     inkscape:window-x="0"
     inkscape:window-y="24"
     inkscape:window-maximized="1"
     inkscape:current-layer="svg2" />
  <filter
     inkscape:collect="always"
     id="filter12871">
    <feGaussianBlur
       inkscape:collect="always"
       stdDeviation="0.5805759"
       id="feGaussianBlur12873" />
  </filter>
  <path
     style="fill:#a52a2a;fill-opacity:1;fill-rule:evenodd;stroke:#000000;stroke-width:1.20000005;stroke-linecap:butt;stroke-linejoin:miter;stroke-miterlimit:4.32165003;stroke-opacity:0.58527132;stroke-dasharray:none;stroke-dashoffset:0;display:inline;filter:url(#filter12871)"
     d="m 788.375,388 c -1.875,-0.375 0.375,-1.875 -3.25,-2.375 -3.625,-0.5 -3.375,9.125 -3.125,10.125 0.25,1 1.25,1.5 3.5,1.25 2.25,-0.25 1.75,0 2.25,2.25 0.5,2.25 -0.25,4 -0.25,4 0,0 0.75,-0.25 2,-0.75 1.25,-0.5 3,0.75 3.75,4.25 0.75,3.5 1,3.5 2.25,5.5 1.25,2 1,3 1.5,5.75 0.5,2.75 -0.5,6 -0.75,7.75 -0.25,1.75 -3.5,5.25 -3.5,6.25 0,1 -3.25,3.5 -3.5,4.5 -0.25,1 -1.5,-0.75 -1.5,-0.75 0,0 -1.25,-3.5 -1.75,-4.5 -0.5,-1 -1.25,-1.5 -1.25,-1.5 L 785,427.5 c 0,0 -1.25,-0.75 -2.25,-0.75 -1,0 -1,-1 -1,-1 L 779.5,424 c 0,0 -0.25,-0.25 -1.5,-0.5 -1.25,-0.25 -1,0 -1.25,1 -0.25,1 -0.75,1 -2,2.25 -1.25,1.25 0.5,0.75 1.75,2 1.25,1.25 0.75,0.75 0.75,2.75 0,2 0,2.75 1.75,7.5 1.75,4.75 1.5,1.75 1.5,1.75 0,0 0.5,0.75 0.5,2 0,1.25 -1,1.25 -1,1.25 0,0 -1.75,0.25 -3.25,0 -1.5,-0.25 -0.5,-0.5 -3,-3.75 -2.5,-3.25 -2.5,-3.5 -3.5,-4.25 -1,-0.75 0.25,-1.75 0,-3 -0.25,-1.25 0,-3 -0.75,-4 -0.75,-1 -0.75,-1.5 -1.25,-3.25 -0.5,-1.75 0,-3.25 0.25,-4.75 0.25,-1.5 -1.25,-1.75 -1.5,-3.75 -0.25,-2 -0.5,-1.75 -0.5,-1.75 0,0 -4.5,-2.75 -5.25,-1.75 -0.75,1 -2,-2 -2,-2 0,0 -3.25,1 -3.5,-0.5 -0.25,-1.5 -6.75,-8.25 -7,-10 -0.25,-1.75 -0.25,-3.5 -1.5,-3.75 -1.25,-0.25 -2.125,-3 -2.125,-3 l -0.875,-2.125 c -0.27311,-3.37269 0.21372,-3.61591 0.5179,-3.90688 0.92232,-0.0769 1.38347,0.0769 1.61405,-0.92231 0.23058,-0.99917 0.99917,-1.99835 1.53719,-2.22893 0.53802,-0.23057 0.69173,-2.61322 0.69173,-2.61322 l 1.76777,-0.61487 c 0,0 0.46116,-3.91983 1.15289,-4.61157 0.69174,-0.69173 1.69091,-2.53636 1.69091,-2.53636 0.69174,-0.92231 1.07603,-0.3843 1.07603,-0.3843 l 1.22975,-0.92231 c 0,0 0.69174,-1.15289 0.99918,-1.69091 0.30743,-0.53801 0.46115,-0.61487 0.99917,-0.46115 0.53801,0.15372 0.84545,1.07603 1.61405,1.46033 0.76859,0.38429 1.15289,0.53801 1.53719,0.84545 0.38429,0.30744 0.53801,1.76777 0.84545,2.69008 0.30744,0.92231 0.53801,0.69173 1.46033,1.22975 0.92231,0.53802 0.3843,0.69174 0.30744,0.99917 -0.0769,0.30744 1.38347,2.30579 2.15206,2.22893 0.76859,-0.0769 2.22892,1.99834 2.76694,2.61322 0.53802,0.61487 2.30578,0.84545 3.30496,0.69173 0.99917,-0.15372 0.69173,-1.46033 0.69173,-1.92148 0,-0.46116 0.69173,-1.92149 1.07603,-1.99835 0.3843,-0.0769 2.30579,0 3.15124,-0.15372 0.84545,-0.15372 0.46116,-0.69173 0.46116,-0.69173 0,0 1.07603,-0.92232 1.15289,-1.38347 0.0769,-0.46116 0.76859,-0.99917 1.07603,-1.22975 0.30744,-0.23058 1.07603,-0.0769 1.46033,0 0.3843,0.0769 0.99917,1.22975 0.99917,1.22975 0,0 1.46033,0.15372 1.84463,0.15372 0.38429,0 0.69173,0.76859 0.69173,1.53719 0,0.76859 0,0.92231 0,1.46032 0,0.53802 0.84546,0.61488 0.84546,0.61488 0,0 0.53801,0.0769 0.69173,0.53802 0.15372,0.46115 0.15372,0.61487 0.61488,0.61487 0.46115,0 0.46115,0.84546 0.46115,0.84546 0,0 1.53719,1.38347 0.92232,1.6909 C 787.04059,385.8549 788.375,388 788.375,388 z"
     id="siam"
     sodipodi:nodetypes="csssssssssssssssssssssssssssssssssssssscsssssssssssssssscsssssssssscssccsscssccssccssssc"
     inkscape:connector-curvature="0"
     transform="matrix(6.396625,0,0,5.275581,-4736.4123,-1938.0026)" />
     <text
          xml:space="preserve"
          style="font-size:107.87071991px;font-style:normal;font-variant:normal;font-weight:bold;font-stretch:normal;text-align:start;line-height:125%;letter-spacing:0px;word-spacing:0px;writing-mode:lr-tb;text-anchor:start;fill:#800000;fill-opacity:1;stroke:none;display:inline;enable-background:new;font-family:Latin Modern Mono;-inkscape-font-specification:Latin Modern Mono Bold"
          x="40.32494"
          y="440.29465"
          id="alberta_text"
          sodipodi:linespacing="125%"
          inkscape:label="alberta"
          transform="scale(0.94301946,1.0604235)"><tspan
            sodipodi:role="line"
            id="tspan7513-9-23"
            x="40.32494"
            y="440.29465"
            style="font-size:107.87071991px;font-style:normal;font-variant:normal;font-weight:bold;font-stretch:normal;text-align:start;line-height:125%;writing-mode:lr-tb;text-anchor:start;fill:#800000;font-family:Latin Modern Mono;-inkscape-font-specification:Latin Modern Mono Bold">SIAM</tspan></text>

</svg>
