<?xml version="1.0" encoding="UTF-8" standalone="no"?>
<svg
   xmlns:dc="http://purl.org/dc/elements/1.1/"
   xmlns:cc="http://creativecommons.org/ns#"
   xmlns:rdf="http://www.w3.org/1999/02/22-rdf-syntax-ns#"
   xmlns:svg="http://www.w3.org/2000/svg"
   xmlns="http://www.w3.org/2000/svg"
   xmlns:sodipodi="http://sodipodi.sourceforge.net/DTD/sodipodi-0.dtd"
   xmlns:inkscape="http://www.inkscape.org/namespaces/inkscape"
   id="svg2"
   sodipodi:version="0.32"
   inkscape:version="0.48.5 r10040"
   viewBox="0 0 750 520"
   preserveAspectRatio="xMidYMid meet"
   version="1.2"
   sodipodi:docname="ural.svg"
   inkscape:output_extension="org.inkscape.output.svg.inkscape"
   inkscape:export-filename="/home/kris/worldmap.png"
   inkscape:export-xdpi="90"
   inkscape:export-ydpi="90"
   style="enable-background:new"
   enable-background="new"
   width="100%"
   height="100%">
  <metadata
     id="metadata3188">
    <rdf:RDF>
      <cc:Work
         rdf:about="">
        <dc:format>image/svg+xml</dc:format>
        <dc:type
           rdf:resource="http://purl.org/dc/dcmitype/StillImage" />
        <dc:title></dc:title>
      </cc:Work>
    </rdf:RDF>
  </metadata>
  <defs
     id="defs3186" />
  <sodipodi:namedview
     pagecolor="#ffffff"
     bordercolor="#666666"
     borderopacity="1"
     objecttolerance="10"
     gridtolerance="10"
     guidetolerance="10"
     inkscape:pageopacity="0"
     inkscape:pageshadow="2"
     inkscape:window-width="1278"
     inkscape:window-height="726"
     id="namedview3184"
     showgrid="false"
     inkscape:zoom="0.45384615"
     inkscape:cx="969.84328"
     inkscape:cy="348.13559"
     inkscape:window-x="0"
     inkscape:window-y="24"
     inkscape:window-maximized="1"
     inkscape:current-layer="svg2" />
  <filter
     inkscape:collect="always"
     id="filter12871">
    <feGaussianBlur
       inkscape:collect="always"
       stdDeviation="0.5805759"
       id="feGaussianBlur12873" />
  </filter>
  <path
     style="fill:#a52a2a;fill-opacity:1;fill-rule:evenodd;stroke:#000000;stroke-width:1.20000005;stroke-linecap:butt;stroke-linejoin:miter;stroke-miterlimit:4.32165003;stroke-opacity:0.58527132;stroke-dasharray:none;stroke-dashoffset:0;display:inline;filter:url(#filter12871)"
     d="m 683.875,193.625 c 0.625,1.75 1.125,0.75 2.25,0 1.125,-0.75 0.25,-0.625 0.375,-2.125 0.125,-1.5 -0.375,-1.25 -1,-2 -0.625,-0.75 -0.375,-0.125 -2,-0.125 -1.625,0 -1.125,0.25 -2.25,0.375 -1.125,0.125 -0.75,0 -2.625,-0.375 C 676.75,189 677.5,188 677.5,187.25 c 0,-0.75 -0.5,-2.125 -0.5,-2.125 0,0 -1,-0.375 -1.5,-1.375 -0.5,-1 0,-1.125 0.125,-1.625 0.125,-0.5 0.25,-1.125 0.125,-2.625 -0.125,-1.5 -0.5,-0.5 -1,-1.25 -0.5,-0.75 0,-1.25 0,-1.25 l 1,-1 1.75,0.625 1.125,0.375 2.25,0.75 c 0,0 0.125,0.25 2.125,2.5 2,2.25 1,0.25 2.5,0.375 1.5,0.125 1.125,-0.625 1.125,-0.625 0,0 -2,-1 -2,-1.5 0,-0.5 0.5,-1.25 0.5,-1.875 0,-0.625 -0.125,-2 -0.375,-2.5 -0.25,-0.5 -1,-0.875 -1.5,-1.375 -0.5,-0.5 -1.25,-1.875 -1.25,-1.875 0,0 -0.375,-0.75 0.5,-3.25 0.875,-2.5 1.125,0.875 1.125,0.875 l 0.75,0.375 1.5,1.25 c 0,0 1.25,-0.25 2,-0.5 0.75,-0.25 1.875,1.75 1.875,1.75 0,0 2.25,0.25 2.75,0.25 0.5,0 1.5,-1.375 1.5,-2.375 0,-1 -2,-0.125 -2,-0.125 l -3,-0.625 c 0,0 -3.875,-1.125 -4.625,-2.125 -0.75,-1 0.125,-1.5 0.125,-1.5 l 2,-2.5 c 0,0 1.375,-1.375 2,-1.375 0.625,0 3.25,0 3.25,0 0,0 0.875,-2.125 1,-3.75 0.125,-1.625 2.25,-0.5 2.25,-0.5 0,0 1.625,-0.5 2,-1 0.375,-0.5 2.5,-2 5.875,-4 3.375,-2 3.375,-1.125 4.875,-1.25 1.5,-0.125 2.875,-0.125 3.375,-0.375 0.5,-0.25 2.125,-1.375 2.625,-1.625 0.5,-0.25 3,-1.5 3,-0.875 0,0.625 0.25,2 0.5,2.5 0.25,0.5 1.625,-0.625 3.25,-1.875 1.625,-1.25 1.125,-1 1.875,-2.125 0.75,-1.125 1.5,-0.375 2.625,-0.25 1.125,0.125 0.75,1.875 0.875,2.625 0.125,0.75 2,2.125 3.125,2.875 1.125,0.75 4.25,-3.75 4.75,-1.375 0.5,2.375 3.25,3.25 3.25,4 0,0.75 -1.25,2.25 -2.125,3 -0.875,0.75 -1.625,1.625 -2.125,2.75 -0.5,1.125 0,0.75 0,1.75 0,1 -0.75,0.25 -1.875,1 -1.125,0.75 -1.125,1 -2,2 -0.875,1 -1.375,0.5 -2.25,0.875 -0.875,0.375 -0.625,1.5 -0.875,2.375 -0.25,0.875 0.5,0.75 0.5,0.75 0,0 1.25,-0.875 1.875,-1.25 0.625,-0.375 3,-1.625 3.625,-2 0.625,-0.375 2.25,-1.75 3.625,-3.25 1.375,-1.5 3.25,-0.75 4.25,-1 1,-0.25 1.625,0.375 1.625,0.375 0,0 1.25,0.125 2.375,-0.5 1.125,-0.625 4,-1.25 4.625,-1.25 0.625,0 2.25,0.25 3.125,1 0.875,0.75 2.375,1.75 3.25,2.375 l 1.4375,-0.0625 0.3125,2.5625 c 0,0.5 -0.125,2 1,3.125 1.125,1.125 1.5,0.625 2,1.125 0.5,0.5 -0.125,3.75 -0.25,4.5 C 759,175 758.5,175 758,175.875 c -0.5,0.875 -0.125,1.375 -0.5,2.875 -0.375,1.5 -0.875,0.875 -1.25,2.375 -0.375,1.5 0,1.375 0.5,2.375 0.5,1 0.5,1.875 0.5,3.375 0,1.5 -0.25,0.625 -0.875,0.75 -0.625,0.125 -1.25,0.625 -2.5,0.75 -1.25,0.125 -2.625,0.625 -3.25,-0.125 -0.625,-0.75 -1.25,-0.875 -3.5,-0.625 -2.25,0.25 -0.625,1 -0.875,2 -0.25,1 -1,0.875 -2.5,1.125 -1.5,0.25 -1,0.375 -1.125,2 -0.125,1.625 1.75,2.625 2.75,3 1,0.375 1.25,0.625 1.625,1.25 0.375,0.625 1.5,0.375 3,1.75 1.5,1.375 0.25,1.625 -0.75,2.625 -1,1 0.625,4.5 1.375,5 0.75,0.5 1.125,1.25 1.5,4.25 0.375,3 1.5,3.25 1.5,3.25 0,0 0.875,0.5 1,3.625 0.125,3.125 0.875,5.75 0.875,5.75 0,0 -4.12218,7.65628 -2.89243,11.0381 1.22975,3.38181 2.76694,9.53057 0.92231,11.68263 -1.84463,2.15207 -2.76694,2.15207 -3.38182,0.92232 -0.61487,-1.22976 0.30744,-1.53719 -1.84462,-1.84463 -2.15207,-0.30744 -1.84463,0.61487 -3.38182,0.92231 -1.53719,0.30744 -2.15206,1.84463 -3.38181,0.61488 -1.22975,-1.22975 0,-1.53719 -1.84463,-0.92232 -1.84463,0.61488 -0.92231,2.76694 -3.22809,3.2281 -2.30579,0.46116 -1.99835,-0.30744 -2.92066,1.22975 -0.92232,1.53719 -1.38347,1.99835 -1.69091,2.76694 -0.30744,0.7686 -0.92231,0.61488 -0.30744,1.99835 0.61488,1.38347 2.15207,-0.61488 1.99835,2.15206 -0.15372,2.76694 -0.46116,4.45785 -0.46116,4.45785 0,0 -1.07603,-0.7686 -1.07603,1.07603 0,1.84463 0.76859,1.69091 0.46115,3.2281 -0.30743,1.53718 -1.07603,0.61487 -0.61487,2.4595 0.46116,1.84462 1.69091,1.84462 1.69091,1.84462 0,0 0.30743,-1.84462 0.92231,-0.30743 0.61488,1.53718 -0.15372,2.4595 0.92231,2.92065 1.07604,0.46116 0,0.30744 1.69091,0.92232 0,0 0.69174,0 0.99917,0.92231 0.30744,0.92231 1.1529,2.38264 0.30744,3.53553 -0.84545,1.1529 -1.53719,3.30496 -0.61487,5.38017 0.92231,2.0752 2.53636,2.30578 2.38264,3.53553 -0.15372,1.22975 -0.3843,0.92231 -0.53802,2.61322 -0.15372,1.69091 0.15372,2.76694 -0.23058,3.45867 -0.38429,0.69174 -0.61487,1.84463 -1.15289,2.07521 -0.53801,0.23058 -1.38347,-0.30744 -1.92148,-0.61488 -0.53802,-0.30743 -0.15372,-1.99834 -1.07604,-1.30661 -0.92231,0.69174 -1.07603,1.61405 -1.84462,1.15289 -0.7686,-0.46115 -0.69174,-1.22975 -1.38347,-1.38347 -0.69174,-0.15371 -2.07521,0.30744 -1.38347,-0.99917 0.69173,-1.30661 1.53719,-1.53719 1.61405,-2.38264 0.0769,-0.84545 0.46115,-1.61405 0,-2.53636 -0.46116,-0.92231 -0.7686,-1.92149 -1.53719,-2.07521 -0.7686,-0.15372 -0.7686,-0.61487 -1.69091,-1.46033 -0.92231,-0.84545 -0.99917,-1.92148 -1.69091,-1.6909 -0.69173,0.23058 -1.84462,2.0752 -3.45867,1.76776 -1.61405,-0.30743 -2.22892,0.3843 -2.76694,-0.69173 -0.53802,-1.07603 -0.7686,-1.46033 -1.38347,-1.61405 -0.61488,-0.15372 -0.92231,-0.23058 -0.76859,-0.92231 0.15371,-0.69174 0.23057,-0.3843 0.23057,-1.61405 0,-1.22975 0.0769,-3.91983 -0.84545,-5.22644 -0.92231,-1.30661 -0.92231,-1.38347 -0.92231,-1.84463 0,-0.46115 0.46115,-0.69173 -0.30744,-0.99917 -0.7686,-0.30744 -1.92149,-2.38264 -2.15207,-3.15124 -0.23057,-0.76859 -1.38347,-0.76859 -1.76776,-0.76859 -0.3843,0 -1.30661,-2.53636 -1.30661,-2.53636 0,0 -3.91983,0.0769 -3.84297,-0.84546 0.0769,-0.92231 0.53801,-1.84462 0.61487,-2.22892 0.0769,-0.3843 0.69174,-2.76694 0.0769,-3.61239 -0.61487,-0.84546 -1.69091,-1.61405 -2.30578,-1.69091 -0.61488,-0.0769 -1.69091,-0.3843 -2.30579,0.53801 -0.61487,0.92232 -1.15289,1.53719 -1.46032,1.38347 -0.30744,-0.15371 -0.7686,-0.0768 -0.92232,-0.92231 -0.15372,-0.84545 -0.53801,-2.99752 0.61488,-4.61156 1.15289,-1.61405 0.76859,0.53801 1.46033,-0.23058 0.69173,-0.7686 1.07603,-2.22893 1.07603,-2.99752 0,-0.7686 -0.46116,-1.53719 0.53801,-2.53636 0.99918,-0.99917 1.76777,-0.69174 2.22893,-1.61405 0.46116,-0.92231 1.22975,-1.07603 0.69173,-1.92149 -0.53801,-0.84545 -1.38347,-1.61404 -1.46033,-2.69008 -0.0769,-1.07603 0.30744,-0.99917 -0.38429,-1.6909 -0.69174,-0.69174 -1.22975,-0.99918 -1.30661,-1.76777 -0.0769,-0.76859 1.38347,-0.46116 -0.0769,-1.30661 -1.46033,-0.84545 -1.92149,-0.23058 -1.69091,-1.61405 0.23058,-1.38347 0,-2.53636 0.46116,-3.30495 0.46115,-0.7686 -0.30744,-3.2281 -0.61488,-3.6124 -0.30744,-0.3843 -1.07603,-0.99917 -1.46033,-1.53719 -0.3843,-0.53801 -0.30744,-1.84462 -0.61487,-2.0752 -0.30744,-0.23058 -1.46033,-1.15289 -1.76777,-1.61405 -0.30744,-0.46116 -0.30744,-0.69173 -0.61488,-1.46033 -0.30743,-0.76859 -1.53718,-1.30661 -1.84462,-1.69091 -0.30744,-0.38429 -2.69008,-0.99917 -2.8438,-1.38347 -0.15372,-0.38429 -0.23058,-1.30661 -0.0769,-2.0752 0.15372,-0.7686 0.3843,-1.92149 0.15372,-2.8438 -0.23058,-0.92231 -0.30744,-1.84463 -0.3843,-3.15124 -0.0769,-1.30661 -0.61487,-1.92148 -1.61405,-1.92148 -0.99917,0 -1.46033,0.46115 -1.53719,0 -0.0769,-0.46116 -0.61487,-2.07521 -0.61487,-2.4595 0,-0.3843 -1.38347,-3.99669 -1.69091,-4.22727 -0.30744,-0.23058 -0.30744,-0.30744 -1.15289,-1.07604 -0.84545,-0.76859 -1.46033,-1.38346 -2.07521,-1.46032 -0.61487,-0.0769 -0.99917,-0.7686 -1.07603,-1.53719 -0.0769,-0.7686 -0.30744,-2.69008 -0.17395,-2.84826 z"
     id="siberia"
     sodipodi:nodetypes="csssssssssssssssssssssssssssssssssssssscsssssssssssssssscsssssssssscssccsscssccssccssssc"
     inkscape:connector-curvature="0"
     transform="matrix(4.1901665,0,0,2.8582221,-2810.5268,-403.44974)" />
</svg>
