<?xml version="1.0" encoding="UTF-8" standalone="no"?>
<svg
   xmlns:dc="http://purl.org/dc/elements/1.1/"
   xmlns:cc="http://creativecommons.org/ns#"
   xmlns:rdf="http://www.w3.org/1999/02/22-rdf-syntax-ns#"
   xmlns:svg="http://www.w3.org/2000/svg"
   xmlns="http://www.w3.org/2000/svg"
   xmlns:sodipodi="http://sodipodi.sourceforge.net/DTD/sodipodi-0.dtd"
   xmlns:inkscape="http://www.inkscape.org/namespaces/inkscape"
   id="svg2"
   sodipodi:version="0.32"
   inkscape:version="0.48.5 r10040"
   viewBox="0 0 750 520"
   preserveAspectRatio="xMidYMid meet"
   version="1.2"
   sodipodi:docname="southern_europe.svg"
   inkscape:output_extension="org.inkscape.output.svg.inkscape"
   inkscape:export-filename="/home/kris/worldmap.png"
   inkscape:export-xdpi="90"
   inkscape:export-ydpi="90"
   style="enable-background:new"
   enable-background="new"
   width="100%"
   height="100%">
  <metadata
     id="metadata3188">
    <rdf:RDF>
      <cc:Work
         rdf:about="">
        <dc:format>image/svg+xml</dc:format>
        <dc:type
           rdf:resource="http://purl.org/dc/dcmitype/StillImage" />
        <dc:title />
      </cc:Work>
    </rdf:RDF>
  </metadata>
  <defs
     id="defs3186" />
  <sodipodi:namedview
     pagecolor="#ffffff"
     bordercolor="#666666"
     borderopacity="1"
     objecttolerance="10"
     gridtolerance="10"
     guidetolerance="10"
     inkscape:pageopacity="0"
     inkscape:pageshadow="2"
     inkscape:window-width="1278"
     inkscape:window-height="726"
     id="namedview3184"
     showgrid="false"
     inkscape:zoom="0.45384615"
     inkscape:cx="375"
     inkscape:cy="348.13559"
     inkscape:window-x="0"
     inkscape:window-y="24"
     inkscape:window-maximized="1"
     inkscape:current-layer="svg2" />
  <filter
     inkscape:collect="always"
     id="filter12871">
    <feGaussianBlur
       inkscape:collect="always"
       stdDeviation="0.5805759"
       id="feGaussianBlur12873" />
  </filter>
  <path
     style="fill:blue;fill-opacity:1;fill-rule:evenodd;stroke:#000000;stroke-width:1.20000005;stroke-linecap:butt;stroke-linejoin:miter;stroke-miterlimit:4.32165003;stroke-opacity:0.58527132;stroke-dasharray:none;stroke-dashoffset:0;display:inline;filter:url(#filter12871)"
     d="m 567,303.3125 c 0.25,-0.0625 0.5,-0.8125 0.75,-1.1875 0.25,-0.375 1.1875,-0.4375 1.1875,-0.4375 0,0 1.625,-0.0625 2.3125,0.375 0.6875,0.4375 0.25,0.75 0.3125,2.0625 0.0625,1.3125 0.0625,1.0625 0.25,1.6875 0.1875,0.625 0.5,0.375 1.625,0.6875 1.125,0.3125 0.75,0.1875 1.625,0.3125 0.875,0.125 0.6875,0.75 1.125,1.6875 0.4375,0.9375 0.5,1.625 0.9375,2.4375 0.4375,0.8125 0.4375,1.3125 0.4375,1.5625 0,0.25 -0.3125,1.5 -0.375,2.1875 -0.0625,0.6875 -0.375,0.8125 -0.5,1.125 -0.125,0.3125 -0.0625,1.1875 -0.0625,1.5 0,0.3125 0.4375,0.75 0.8125,1.1875 0.375,0.4375 0.375,0.8125 0.375,1.5 0,0.6875 -0.5625,1.75 -0.5625,2.375 0,0.625 0.9375,1.0625 0.8125,1.625 -0.125,0.5625 2.1875,2.25 2.1875,2.25 0,0 -1.125,0.75 -0.625,1.5 0.5,0.75 1.125,1.375 0.875,1.875 -0.25,0.5 -0.125,0.5 -0.75,1 -0.625,0.5 -1,0.375 -1,1.5 0,1.125 0.875,1.375 0.25,2.375 -0.625,1 -0.375,0.875 -0.875,1.625 -0.5,0.75 -0.75,1.375 -1,2.125 -0.25,0.75 0.5,0.875 -0.375,1.625 -0.875,0.75 -1.125,0.375 -1.375,1.25 -0.25,0.875 0.125,0.875 -0.375,1.5 -0.5,0.625 -0.5,1 -1,1.375 -0.5,0.375 -0.5,0.25 -1.125,1 -0.625,0.75 -0.125,1.125 -0.625,1.75 -0.5,0.625 -0.875,0.125 -1.125,1 -0.25,0.875 0,0.5 0.125,1.375 0.125,0.875 0.75,0.875 0,1.875 -0.75,1 -1.125,1.625 -1.625,2 -0.5,0.375 -0.5,-0.125 -0.875,1 -0.375,1.125 0.25,1.5 -0.5,1.75 -0.75,0.25 -1.125,0.25 -1.875,0.375 -0.75,0.125 -1.125,-0.125 -1.625,0 -0.5,0.125 -0.75,0 -1.125,0.625 -0.375,0.625 -0.75,0.5 -0.25,1.25 0.5,0.75 0.375,0.75 0.875,1.25 0.5,0.5 0.875,0.875 1.375,1.375 0.5,0.5 0.875,0.75 1,1.375 0.125,0.625 0.125,1.125 0.125,1.125 0,0 0.625,1.875 0.125,2.125 -0.5,0.25 -1,0.25 -1.125,1 -0.125,0.75 -0.25,0.5 0,1.375 0.25,0.875 0,0.875 0.5,1.375 0.5,0.5 0.625,0.5 1.375,1.25 0.75,0.75 1.625,0.875 1.125,1.5 -0.5,0.625 -1.125,0.75 -1.875,0.5 -0.75,-0.25 -1.125,0.375 -1.625,-0.75 -0.5,-1.125 -0.75,-1.375 -0.75,-1.375 0,0 -0.75,0.125 -0.75,0.75 0,0.625 1.875,0.75 -0.5,0.75 -2.375,0 -2.125,0.75 -2.75,0 -0.625,-0.75 -0.125,-1 -1,-1.25 -0.875,-0.25 -1,0.5 -1.375,-0.25 -0.375,-0.75 -0.5,-0.75 -0.5,-1.875 0,-1.125 0.625,-1.125 0.25,-2.625 -0.375,-1.5 -0.625,-1.125 -0.875,-2 -0.25,-0.875 0,-0.875 0,-2 0,-1.125 -0.375,-1.625 -0.375,-1.625 0,0 -0.375,-0.25 -0.625,-1.5 -0.25,-1.25 -0.125,-1.375 -0.375,-2.5 -0.25,-1.125 -0.125,-1.5 -0.75,-1.5 -0.625,0 -0.25,0.5 -1.25,-0.25 -1,-0.75 -0.5,-1 -1.375,-1.375 -0.875,-0.375 -1,0.375 -1.25,-0.875 -0.25,-1.25 -0.25,-0.625 -0.25,-2.125 0,-1.5 0,-2 0,-2.625 0,-0.625 0.5,-0.625 -0.25,-1.625 -0.75,-1 -0.625,-1.25 -1.5,-1.375 -0.875,-0.125 -0.625,0.875 -1.375,-0.375 -0.75,-1.25 -0.875,-2 -1.875,-2.25 -1,-0.25 -0.875,0.375 -1.375,-0.25 -0.5,-0.625 -0.25,-0.75 -0.875,-1.375 -0.625,-0.625 0.125,-0.875 -1.5,-0.875 -1.625,0 -1.625,-0.875 -2.5,-0.5 -0.875,0.375 -1.125,1 -1.125,1.625 0,0.625 0,0.625 0.125,1.5 0.125,0.875 -0.125,1.375 0.5,1.5 0.625,0.125 0.625,-0.5 0.75,0.625 0.125,1.125 -0.125,2.25 1.375,1.625 1.5,-0.625 2.375,-1.5 2.5,-0.75 0.125,0.75 -0.125,0.875 0.125,1.875 0.25,1 0,1.875 0.875,2.5 0.875,0.625 1.25,0.625 1.625,1.125 0.375,0.5 0.25,0.375 0.75,0.625 0.5,0.25 0.5,1.375 1.125,2.25 0.625,0.875 1.375,0.125 1,1.25 -0.375,1.125 -0.375,1.625 -0.875,2 -0.5,0.375 -1.625,0.75 -2.375,0.125 -0.75,-0.625 -1.375,-1.125 -1.375,-1.125 0,0 0.625,-1.25 -0.875,-0.875 -1.5,0.375 -1.5,0.5 -2.125,0.5 -0.625,0 -1,-1 -0.75,0.375 0.25,1.375 1.25,1.875 1.25,1.875 0,0 1.125,0 1,1.25 -0.125,1.25 0.375,0.875 -0.25,2.125 -0.625,1.25 -0.5,1 -1,2.125 -0.5,1.125 0,1.125 -0.625,2 -0.625,0.875 -0.875,1.375 -1.75,1.75 -0.875,0.375 -0.875,-0.375 -1.25,1 -0.375,1.375 -0.25,1.375 -0.875,1.625 -0.625,0.25 -2,0.25 -2.5,0.625 -0.5,0.375 0.375,0.875 -1,0.5 -1.375,-0.375 -1,-0.375 -1.625,-0.5 -0.625,-0.125 -0.875,-0.125 -1.375,-0.75 -0.5,-0.625 -0.125,-1.75 -0.625,-1.375 -0.5,0.375 -0.875,1.75 -1.375,0.375 -0.5,-1.375 -0.375,-1.5 -0.875,-1.75 -0.5,-0.25 -0.75,1.25 -0.875,-0.375 -0.125,-1.625 -0.375,-1.625 0.375,-2.375 0.75,-0.75 1,-1 1.625,-1 0.625,0 0.75,0.125 1.5,0.25 0.75,0.125 0.625,0.75 1.25,0.875 0.625,0.125 2.5,-1 2.75,-0.25 0.25,0.75 -0.25,3 0.375,1 0.625,-2 0.25,-2.375 1.125,-3.125 0.875,-0.75 1.75,-1.5 2.125,-2 0.375,-0.5 0.75,-1.25 -0.125,-2.125 -0.875,-0.875 -1.125,0 -1.125,-1.625 0,-1.625 0.25,-2 -0.25,-2.875 -0.5,-0.875 0,-0.625 -1,-1.125 -1,-0.5 -1,-0.75 -1.5,-1.375 -0.5,-0.625 -1.375,-1.125 -2.25,-1.375 -0.875,-0.25 -0.25,0.375 -1.125,-1 -0.875,-1.375 -1.125,-1.75 -1.875,-1.625 -0.75,0.125 -0.375,1.125 -1.125,0.25 -0.75,-0.875 -0.5,-1 -1,-1.375 -0.5,-0.375 -0.75,0 -1.375,-0.5 -0.625,-0.5 -0.625,-0.5 -0.75,-1.5 -0.125,-1 0.125,-1.375 -0.5,-1.875 -0.625,-0.5 -1.875,-0.875 -1.875,-0.875 0,0 0.25,-0.25 -1.375,0 -1.625,0.25 -1.75,0.25 -2.25,0.625 0,0 2.42431,-0.85138 0.83332,-2.26559 -1.59099,-1.41422 -2.2981,-3.18198 -1.59099,-3.35876 0.70711,-0.17678 1.59099,-0.88388 1.76777,-1.59099 0.17677,-0.70711 0.44194,-2.12132 0.0884,-2.56326 -0.35356,-0.44194 -2.20971,-1.67938 -2.20971,-1.67938 0,0 -1.06066,-0.88389 -0.88389,-1.23744 0.17678,-0.35355 1.06066,-1.32582 1.06066,-1.32582 0,0 1.06066,0.17677 1.06066,-1.32583 0,-1.5026 0,-2.2981 -0.35355,-3.18198 -0.35355,-0.88388 -0.44194,-1.59099 0.17678,-2.20971 0.61872,-0.61872 1.32582,-1.59099 1.5026,-1.94454 0.17678,-0.35356 0.17678,-0.97227 1.32582,-0.7955 1.14905,0.17678 1.41422,-0.0884 2.20971,-0.44194 0.7955,-0.35355 1.59099,-1.32582 1.59099,-1.32582 0,0 1.32583,-0.17678 1.32583,0.26516 0,0.44194 0.88388,3.0052 1.76776,2.65165 0.88389,-0.35355 2.56327,-0.79549 3.35876,-1.23744 0.7955,-0.44194 0.70711,-0.88388 1.76777,-0.79549 1.06066,0.0884 1.23744,0.26516 2.38648,-0.0884 1.14905,-0.35355 1.76777,-0.44194 2.2981,-1.14905 0.53033,-0.7071 2.38649,-2.29809 2.38649,-3.18198 0,-0.88388 0,-2.03293 0,-2.03293 0,0 3.8007,-0.53033 4.68458,-0.61872 0.88388,-0.0884 1.76777,-0.0884 2.2981,-0.44194 0.53033,-0.35355 0.53033,-1.06066 0.97227,-1.14905 0.44194,-0.0884 1.85615,0.17678 1.85615,0.17678 0,0 0,0.26516 0.44195,0.35355 0.44194,0.0884 1.32582,1.06066 1.14904,1.85616 -0.17677,0.79549 -0.7071,1.67938 -0.88388,2.03293 -0.17678,0.35355 -0.61872,1.5026 -0.53033,1.85615 0.0884,0.35356 1.06066,1.76777 1.06066,1.76777 l 0,3.88909 9.19239,0 c 0,0 0.70711,-1.5026 0.61872,-2.20971 -0.0884,-0.70711 -0.88389,-1.76777 -0.88389,-2.12132 0,-0.35355 0.17678,-3.18198 0.17678,-3.18198 0,0 0.53033,-2.91682 1.85616,-3.8007 1.32582,-0.88388 2.12132,-1.23744 2.2097,-1.67938 0.0884,-0.44194 0.26517,-1.32582 0.70711,-1.5026 0.44194,-0.17678 1.14905,-0.88388 1.14905,-0.88388 0,0 -0.26517,0 0.43069,-1.09062 z"
     id="alaska"
     sodipodi:nodetypes="csssssssssssssssssssssssssssssssssssssscsssssssssssssssscsssssssssscssccsscssccssccssssc"
     inkscape:connector-curvature="0"
     transform="matrix(5.3517187,0,0,5.2265066,-2722.4675,-1532.1179)" />
  <text
     xml:space="preserve"
     style="font-size:74.44366455px;font-style:normal;font-variant:normal;font-weight:bold;font-stretch:normal;text-align:start;line-height:125%;letter-spacing:0px;word-spacing:0px;writing-mode:lr-tb;text-anchor:start;fill:#800000;fill-opacity:1;stroke:none;display:inline;enable-background:new;font-family:Latin Modern Mono;-inkscape-font-specification:Latin Modern Mono Bold"
     x="10.041718"
     y="460.2399"
     id="alberta_text"
     sodipodi:linespacing="125%"
     inkscape:label="alberta"
     transform="scale(0.89625469,1.1157543)"><tspan
       sodipodi:role="line"
       id="tspan7513-9-23"
       x="10.041718"
       y="460.2399"
       style="font-size:74.44366455px;font-style:normal;font-variant:normal;font-weight:bold;font-stretch:normal;text-align:start;line-height:125%;writing-mode:lr-tb;text-anchor:start;fill:#800000;font-family:Latin Modern Mono;-inkscape-font-specification:Latin Modern Mono Bold">SOUTHERN EUROPE</tspan></text>
</svg>
