<?xml version="1.0" encoding="UTF-8" standalone="no"?>
<svg
   xmlns:dc="http://purl.org/dc/elements/1.1/"
   xmlns:cc="http://creativecommons.org/ns#"
   xmlns:rdf="http://www.w3.org/1999/02/22-rdf-syntax-ns#"
   xmlns:svg="http://www.w3.org/2000/svg"
   xmlns="http://www.w3.org/2000/svg"
   xmlns:sodipodi="http://sodipodi.sourceforge.net/DTD/sodipodi-0.dtd"
   xmlns:inkscape="http://www.inkscape.org/namespaces/inkscape"
   id="svg2"
   sodipodi:version="0.32"
   inkscape:version="0.48.5 r10040"
   viewBox="0 0 750 520"
   preserveAspectRatio="xMidYMid meet"
   version="1.2"
   sodipodi:docname="south_africa.svg"
   inkscape:output_extension="org.inkscape.output.svg.inkscape"
   inkscape:export-filename="/home/kris/worldmap.png"
   inkscape:export-xdpi="90"
   inkscape:export-ydpi="90"
   style="enable-background:new"
   enable-background="new"
   width="100%"
   height="100%">
  <metadata
     id="metadata3188">
    <rdf:RDF>
      <cc:Work
         rdf:about="">
        <dc:format>image/svg+xml</dc:format>
        <dc:type
           rdf:resource="http://purl.org/dc/dcmitype/StillImage" />
        <dc:title />
      </cc:Work>
    </rdf:RDF>
  </metadata>
  <defs
     id="defs3186" />
  <sodipodi:namedview
     pagecolor="#ffffff"
     bordercolor="#666666"
     borderopacity="1"
     objecttolerance="10"
     gridtolerance="10"
     guidetolerance="10"
     inkscape:pageopacity="0"
     inkscape:pageshadow="2"
     inkscape:window-width="1278"
     inkscape:window-height="726"
     id="namedview3184"
     showgrid="false"
     inkscape:zoom="0.45384615"
     inkscape:cx="375"
     inkscape:cy="290.61062"
     inkscape:window-x="0"
     inkscape:window-y="24"
     inkscape:window-maximized="1"
     inkscape:current-layer="svg2" />
  <filter
     inkscape:collect="always"
     id="filter12871">
    <feGaussianBlur
       inkscape:collect="always"
       stdDeviation="0.5805759"
       id="feGaussianBlur12873" />
  </filter>
  <path
     style="fill:green;fill-opacity:1;fill-rule:evenodd;stroke:#000000;stroke-width:1.20000005;stroke-linecap:butt;stroke-linejoin:miter;stroke-miterlimit:4.32165003;stroke-opacity:0.58527132;stroke-dasharray:none;stroke-dashoffset:0;display:inline;filter:url(#filter12871)"
     d="m 547.125,504.125 c 0.625,0.875 2.875,-1 3.625,-0.375 0.75,0.625 2.75,2 3.5,2.375 0.75,0.375 4.875,-0.25 5.875,0.5 1,0.75 1.75,0.375 1.75,0.375 0,0 -0.625,4.25 0,4.875 0.625,0.625 2.125,1.375 3,0.125 0.875,-1.25 7.375,-2 7.75,-1 0.375,1 -0.625,3 0.625,4 1.25,1 2.125,1.75 2,2.75 -0.125,1 -1.375,2 -0.875,3.375 0.5,1.375 1.875,1.875 3.375,1.75 1.5,-0.125 1.375,1 2.625,1.25 1.25,0.25 6.125,0.25 6.625,0.625 0.5,0.375 1.75,1.25 2.125,1.875 0.375,0.625 1.75,2.875 2.625,2 0.875,-0.875 1.875,-5.5 0.5,-6 -1.375,-0.5 -2.25,-0.5 -2.25,-2 0,-1.5 0.75,-4.125 1.25,-4.125 0.5,0 1.125,-0.625 1.125,-0.625 0,0 3.875,0 2.625,-1 0.625,-0.25 2.375,-0.625 2.625,0.25 0.25,0.875 -0.25,2.5 0.75,2.5 1,0 2.125,1.5 2.5,2.25 0.375,0.75 1.375,0.625 1.75,2.375 0.375,1.75 0.875,1.5 0.25,2.625 -0.625,1.125 -0.75,1.25 -0.375,2.5 0.375,1.25 2,3.375 1.5,4.875 -0.5,1.5 -1.25,3.5 -0.5,4.75 0.75,1.25 2.75,3.25 3.375,2.75 0.625,-0.5 1.5,-1 1.5,-2.25 0,-1.25 -0.375,-3.375 0,-4.375 0.375,-1 1.625,0.75 0.75,-2.125 -0.875,-2.875 -1.5,-2.75 -0.375,-4.25 1.125,-1.5 2.125,-1.375 3.375,-1.75 1.25,-0.375 1.875,-0.5 1.875,-0.5 0,0 1.5,-1.375 2.625,-1.375 1.125,0 2.75,-1.625 2.75,-1.625 0,0 -0.25,-0.5 -0.25,-0.5 0,0 2.875,-0.875 2.375,0.125 -0.5,1 0.875,4.625 0.875,4.625 0,0 0.125,0.75 0.375,1.75 0.25,1 0.125,1.125 0.25,2.125 0.125,1 -0.375,1.5 -0.5,2.25 -0.125,0.75 0.125,1.375 0.25,2.375 0.125,1 -0.625,3.25 -0.875,3.875 -0.25,0.625 -1,0.625 -1.5,1.125 -0.5,0.5 -0.625,1.25 -1.75,2.375 -1.125,1.125 -0.875,1.125 -1.625,2.25 -0.75,1.125 -0.125,0.5 -1.25,2.25 -1.125,1.75 -0.625,0.5 -1.75,0.875 -1.125,0.375 -1.75,1.625 -2.25,1.75 -0.5,0.125 -1.875,1.375 -2.625,6 -0.75,4.625 0.75,5.5 0.375,6.375 -0.375,0.875 -2.75,4.25 -3.125,5.25 -0.375,1 -0.75,0.875 -1.875,1.375 -1.125,0.5 -0.75,2.5 -0.75,3.25 0,0.75 -0.75,3.25 -2.125,4.5 -1.375,1.25 -0.125,1.125 0.25,1.625 0.375,0.5 0.375,1.125 0.125,2.75 -0.25,1.625 -1.625,0.75 -2.375,1.25 -0.75,0.5 -3.125,3.25 -2.875,4.25 0.25,1 1.25,0.875 1.25,0.875 0,0 -1.625,1.75 -3.125,3.625 -1.5,1.875 0.125,1.125 0.5,2.375 0.375,1.25 -0.875,0.25 -1.625,0.25 -0.75,0 -0.875,0.375 -1.625,1 -0.75,0.625 -1.25,0.5 -4.75,1.25 -3.5,0.75 -1.375,1.25 -3.125,2.5 -1.75,1.25 -1.625,1.625 -6.5,1.625 -4.875,0 -3.25,0.5 -4.125,0.875 -0.875,0.375 -1.5,0.375 -2.5,0.375 -1,0 -1.75,0.5 -2.375,0.875 -0.625,0.375 -1.125,1.375 -1.125,1.375 0,0 -0.5,-0.25 -1,-1.125 -0.5,-0.875 -1.625,-0.5 -2.5,-0.625 -0.875,-0.125 -1,-0.25 -1.875,-1.375 -0.875,-1.125 0.25,-1.5 0.25,-2.125 0,-0.625 -0.75,-2.625 -0.75,-3.625 0,-1 0,-1.5 0,-2.75 0,-1.25 -0.125,-1.25 -0.125,-2.625 0,-1.375 0,-1.5 -0.375,-2.25 -0.375,-0.75 -1.375,-1.625 -1.625,-3 -0.25,-1.375 0,-1.875 0,-3 0,-1.125 -1.25,-0.5 -1.5,-1 -0.25,-0.5 -0.875,-1 -1.375,-2.5 -0.5,-1.5 0.125,-1.375 0.125,-2.625 0,-1.25 0,-1.375 0,-2.375 0,-1 -0.75,-1.375 -1,-2 -0.25,-0.625 -1.75,-3.25 -1.875,-4.125 -0.125,-0.875 -0.25,-1.375 -0.25,-2.5 0,-1.125 0.125,-1 0.25,-1.875 0.125,-0.875 -0.625,-1.375 -0.625,-2 0,-0.625 -3.25,-3.75 -3.25,-3.75 0,0 -0.375,-0.25 -0.5,-1 -0.125,-0.75 -0.75,-1.25 -1.875,-2.625 -1.125,-1.375 -0.625,-1.375 -0.5,-2.375 0.125,-1 -0.125,-2 -0.25,-2.625 -0.125,-0.625 -1.375,-3.375 -1.375,-3.375 0,0 -0.125,-1.25 0.125,-2.25 0.25,-1 0.625,-1.25 0.75,-2.75 0.125,-1.5 0,-1.125 0.125,-2 0.125,-0.875 0.25,-0.875 0.625,-1.625 0.375,-0.75 1,-1.375 1,-2.5 0,-1.125 0.75,-2.125 1,-2.625 0.25,-0.5 0.75,-1 1.5,-2.125 0.75,-1.125 -0.375,-0.75 -0.25,-1.75 0.125,-1 -0.125,-1.75 -0.25,-2.5 -0.125,-0.75 -2,-3.125 -2.5,-4.5 -0.5,-1.375 1.75,-2.75 3.5,-5.5 l 0.0625,0 c 2,-2.9375 -4.1875,-7.6875 -4.1875,-8.875 z"
     id="alaska"
     sodipodi:nodetypes="csssssssssssssssssssssssssssssssssssssscsssssssssssssssscsssssssssscssccsscssccssccssssc"
     inkscape:connector-curvature="0"
     transform="matrix(4.0005878,0,0,4.1126858,-2155.4964,-2042.577)" />
  <text
     xml:space="preserve"
     style="font-size:107.87071991px;font-style:normal;font-variant:normal;font-weight:bold;font-stretch:normal;text-align:start;line-height:125%;letter-spacing:0px;word-spacing:0px;writing-mode:lr-tb;text-anchor:start;fill:#800000;fill-opacity:1;stroke:none;display:inline;enable-background:new;font-family:Latin Modern Mono;-inkscape-font-specification:Latin Modern Mono Bold"
     x="14.62315"
     y="471.46225"
     id="alberta_text"
     sodipodi:linespacing="125%"
     inkscape:label="alberta"
     transform="scale(0.94301946,1.0604235)"><tspan
       sodipodi:role="line"
       id="tspan7513-9-23"
       x="14.62315"
       y="471.46225"
       style="font-size:107.87071991px;font-style:normal;font-variant:normal;font-weight:bold;font-stretch:normal;text-align:start;line-height:125%;writing-mode:lr-tb;text-anchor:start;fill:#800000;font-family:Latin Modern Mono;-inkscape-font-specification:Latin Modern Mono Bold">SOUTH AFRICA</tspan></text>
</svg>
