<?xml version="1.0" encoding="UTF-8" standalone="no"?>
<svg
   xmlns:dc="http://purl.org/dc/elements/1.1/"
   xmlns:cc="http://creativecommons.org/ns#"
   xmlns:rdf="http://www.w3.org/1999/02/22-rdf-syntax-ns#"
   xmlns:svg="http://www.w3.org/2000/svg"
   xmlns="http://www.w3.org/2000/svg"
   xmlns:sodipodi="http://sodipodi.sourceforge.net/DTD/sodipodi-0.dtd"
   xmlns:inkscape="http://www.inkscape.org/namespaces/inkscape"
   id="svg2"
   sodipodi:version="0.32"
   inkscape:version="0.48.5 r10040"
   viewBox="0 0 750 520"
   preserveAspectRatio="xMidYMid meet"
   version="1.2"
   sodipodi:docname="scandinavia.svg"
   inkscape:output_extension="org.inkscape.output.svg.inkscape"
   inkscape:export-filename="/home/kris/worldmap.png"
   inkscape:export-xdpi="90"
   inkscape:export-ydpi="90"
   style="enable-background:new"
   enable-background="new"
   width="100%"
   height="100%">
  <metadata
     id="metadata3188">
    <rdf:RDF>
      <cc:Work
         rdf:about="">
        <dc:format>image/svg+xml</dc:format>
        <dc:type
           rdf:resource="http://purl.org/dc/dcmitype/StillImage" />
        <dc:title></dc:title>
      </cc:Work>
    </rdf:RDF>
  </metadata>
  <defs
     id="defs3186" />
  <sodipodi:namedview
     pagecolor="#ffffff"
     bordercolor="#666666"
     borderopacity="1"
     objecttolerance="10"
     gridtolerance="10"
     guidetolerance="10"
     inkscape:pageopacity="0"
     inkscape:pageshadow="2"
     inkscape:window-width="1278"
     inkscape:window-height="726"
     id="namedview3184"
     showgrid="false"
     inkscape:zoom="0.45384615"
     inkscape:cx="375"
     inkscape:cy="348.13559"
     inkscape:window-x="0"
     inkscape:window-y="24"
     inkscape:window-maximized="1"
     inkscape:current-layer="svg2" />
  <filter
     inkscape:collect="always"
     id="filter12871">
    <feGaussianBlur
       inkscape:collect="always"
       stdDeviation="0.5805759"
       id="feGaussianBlur12873" />
  </filter>
  <path
     style="fill:blue;fill-opacity:1;fill-rule:evenodd;stroke:#000000;stroke-width:1.20000005;stroke-linecap:butt;stroke-linejoin:miter;stroke-miterlimit:4.32165003;stroke-opacity:0.58527132;stroke-dasharray:none;stroke-dashoffset:0;display:inline;filter:url(#filter12871)"
     d="m 580.44628,188.26083 c -1.23744,-0.0884 -2.12132,-0.35356 -2.12132,-0.35356 0,0 0.92504,3.96773 0.30004,4.46773 -0.625,0.5 0.75,3.625 0,4.125 -0.75,0.5 -1.125,6.25 -1.125,8.875 0,2.625 1.375,6.75 1,8.875 -0.375,2.125 0.625,5.125 0.625,5.125 0,0 0.625,0.625 0.625,2.25 0,1.625 0.875,2.5 0.875,2.5 0,0 0.4375,0.125 0.5,0.6875 0.0625,0.5625 0.0625,1.4375 -0.1875,1.6875 -0.25,0.25 -0.8125,0.6875 -0.8125,1.625 0,0.9375 0.25,1.3125 -0.0625,1.75 -0.3125,0.4375 -0.5625,0.5625 -0.6875,1.625 -0.125,1.0625 -0.3125,2.5 -0.0625,3.0625 0.25,0.5625 0.6875,2.6875 -0.1875,2.4375 -0.875,-0.25 1,0.375 1.5,0.75 0.5,0.375 -1.125,1.125 -2,1.375 -0.875,0.25 -1.625,0.25 -2.875,0.125 -1.25,-0.125 -0.875,-0.375 -1.875,-0.25 -1,0.125 -3.125,0.75 -4.25,0.5 -1.125,-0.25 -1.75,-0.125 -2.5,0.375 -0.75,0.5 -0.25,1.5 -0.25,2.625 0,1.125 0.75,0.375 0.875,1.625 0.125,1.25 0.375,1 0.75,1.75 0.375,0.75 1,0.125 1,0.125 0,0 2.125,1.75 1.875,2.875 -0.25,1.125 0.5,1.875 0.5,2.875 0,1 -1.125,0.25 -2.75,0.125 -1.625,-0.125 -0.625,-0.875 -1.25,-2.625 -0.625,-1.75 -0.5,-0.625 -1.5,-1 -1,-0.375 -1,0.25 -1.25,1.375 -0.25,1.125 -0.375,1.25 -1.25,2 -0.875,0.75 -0.125,1.375 -0.375,2.5 -0.25,1.125 -0.625,1 -1.375,1.875 -0.75,0.875 0.25,1.375 0.625,2.625 0.375,1.25 0.875,1.75 0.875,1.75 0.5,0.5 0.375,1 0.375,1.75 0,0.75 -0.5,1.125 -1,1.5 l 1.25,0.125 c 0,0 1.0625,0.9375 1.125,1.25 0.0625,0.3125 1.1875,1.25 1.1875,1.25 0,0 2.5,1.375 3.375,1.375 0.875,0 1.875,-0.5625 2.375,-0.625 0.5,-0.0625 -0.0625,0.875 -0.0625,1.1875 0,0.3125 0.6875,3.25 1,3.875 0.3125,0.625 0.375,8.0625 0.4375,9.4375 0.0625,1.375 1.375,2.75 1.75,3.0625 0.375,0.3125 0.625,1.0625 0.625,1.375 0,0.3125 -0.8125,1.375 -0.875,1.8125 -0.0625,0.4375 0.125,1.1875 0.0625,1.75 -0.0625,0.5625 -0.5,0.8125 -1,1.25 -0.5,0.4375 -0.375,1.4375 -0.6875,2.0625 -0.3125,0.625 -0.8125,0.625 -1.4375,0.875 -0.625,0.25 -2.3125,3.625 -2.5,4 -0.1875,0.375 -1.9375,1 -2.5,1 -0.5625,0 -2.0625,0.4375 -2.25,0.9375 -0.1875,0.5 -0.1875,1.5 -0.1875,1.5 L 567,303.3125 c 0.25,-0.0625 0.5,-0.8125 0.75,-1.1875 0.25,-0.375 1.1875,-0.4375 1.1875,-0.4375 0,0 1.625,-0.0625 2.3125,0.375 0.6875,0.4375 0.25,0.75 0.3125,2.0625 0.0625,1.3125 0.0625,1.0625 0.25,1.6875 0.1875,0.625 0.5,0.375 1.625,0.6875 1.125,0.3125 0.75,0.1875 1.625,0.3125 0.875,0.125 0.6875,0.75 1.125,1.6875 0.4375,0.9375 0.5,1.625 0.9375,2.4375 0.4375,0.8125 0.4375,1.3125 0.4375,1.5625 0,0.25 -0.3125,1.5 -0.375,2.1875 -0.0625,0.6875 -0.375,0.8125 -0.5,1.125 -0.125,0.3125 -0.0625,1.1875 -0.0625,1.5 0,0.3125 0.4375,0.75 0.8125,1.1875 0.375,0.4375 0.375,0.8125 0.375,1.5 0,0.6875 -0.5625,1.75 -0.5625,2.375 0,0.625 0.9375,1.0625 0.8125,1.625 -0.125,0.5625 2.1875,2.25 2.1875,2.25 l 1,-0.75 c 0,0 1,-0.125 1.75,-0.875 0.75,-0.75 0.5,-1.125 0.5,-1.125 0,0 0.25,-2.375 0.625,-2.875 0.375,-0.5 0.875,-0.25 2.5,-0.625 1.625,-0.375 1,0 1.75,0 0.75,0 1.25,0.5 2,0.75 0.75,0.25 0.625,0.75 0.875,1.75 0.25,1 0.5,1.625 0.625,2.5 0.125,0.875 0.125,1 0.5,1.875 0.375,0.875 0.75,0.75 1.75,1.375 1,0.625 0.375,0.5 1.875,1.25 1.5,0.75 0.75,-1.125 1.25,-2 0.5,-0.875 0.75,-0.875 1.25,-1.125 0.5,-0.25 0.875,-0.5 1.5,-1 0.625,-0.5 0.375,-0.5 0.75,-1.375 0.375,-0.875 -0.125,-1.25 -0.375,-1.75 -0.25,-0.5 -0.75,0.125 -1.375,0.125 -0.625,0 -1.375,-0.75 -2,-1.5 -0.625,-0.75 -0.125,-1 -0.125,-1 0,0 0.875,-1 1.75,-1.625 0.875,-0.625 0.75,-0.5 1.5,-0.75 0.75,-0.25 1.25,-0.25 1.875,-0.5 0.625,-0.25 1.125,-0.375 2.375,-0.625 1.25,-0.25 0.75,0 2.125,0 1.375,0 1.625,-0.25 1.625,-0.25 0,0 0.375,-0.5 1,-0.875 0.625,-0.375 0.875,-0.125 1.25,0.375 0.375,0.5 -0.25,1.25 -0.25,1.25 0,0 -0.625,0.625 -1.5,1.5 -0.875,0.875 -1,0.375 -2.625,0.625 -1.625,0.25 -0.5,0.25 -0.625,1.125 -0.125,0.875 -0.75,1.625 -0.75,1.625 l -0.5,1.25 0.875,0.5 c 0,0 0.375,0.75 0.625,1.75 0.25,1 0.75,0.375 1.375,0.625 0.625,0.25 -0.125,1 -0.125,1.75 0,0.75 1.125,1.375 1.75,2 0.625,0.625 0.375,0.875 1,2 0.625,1.125 0.5,-0.375 1,-0.625 0.5,-0.25 0.75,-0.25 1.875,-0.375 1.125,-0.125 1.25,0.125 1.25,0.125 l -0.625,1.5 c 0,0 0.75,0.5 1.625,1.375 0.875,0.875 0.25,1.625 1.375,1.625 1.125,0 0.75,0.5 1.25,0.875 0.5,0.375 1,1 1.875,1.75 0.875,0.75 0.75,0.5 1.5,0.625 0.75,0.125 0.375,0.125 0.75,3 0.375,2.875 0.75,0.25 0.75,0.25 0,0 -0.25,0.75 -0.625,1.25 -0.375,0.5 -0.875,0.75 -1.375,1.25 -0.5,0.5 -1.125,1 -1.125,1.5 0,0.5 0.625,0.5 2,1.5 1.375,1 1.375,-0.5 1.375,-0.5 0,0 0.625,-0.375 2.25,-0.25 1.625,0.125 1.375,-0.375 1.375,-0.375 0,0 0.75,-0.875 1.75,-1 1,-0.125 0.875,0 1.75,-0.125 0.875,-0.125 0.875,-0.5 1.5,-1 0.625,-0.5 1.25,-0.125 1.875,-0.25 0.625,-0.125 1.875,-0.25 1.875,-0.25 2.125,-0.375 0.25,-0.375 0.375,-1.25 0.125,-0.875 1,-0.875 1,-0.875 0,0 0.75,0.125 1.25,-0.375 0.5,-0.5 0.75,-0.75 0.75,-1.375 0,-0.625 -0.625,-1.625 -0.625,-1.625 0,0 -0.875,-0.625 -0.875,-1.375 0,-0.75 0.125,-1 0.375,-1.5 0.25,-0.5 0,-1.375 0,-2.875 0,-1.5 0,-1.625 0.125,-2.625 0.125,-1 0.75,-0.5 1.5,-1 0.75,-0.5 -0.25,-1.75 -0.25,-1.75 0,0 -0.5,0 -1.625,-0.375 -1.125,-0.375 -1.625,-0.375 -2.375,-1.875 -0.75,-1.5 -0.375,-1.125 -0.5,-1.75 -0.125,-0.625 -0.75,-0.875 -0.5,-2.375 0.25,-1.5 -0.99298,-2.92702 -0.99298,-2.92702 l -1.06066,-0.35355 c 0,0 -0.70711,-0.35356 -0.88389,-1.06066 -0.17677,-0.70711 0.17678,-0.88389 0.35356,-1.94455 0.17677,-1.06066 -0.53033,-2.12132 -0.53033,-2.12132 l -1.23744,1.06066 c 0,0 1.76777,-2.82842 1.94454,-3.71231 0.17678,-0.88388 0,-1.06066 0.35356,-1.76777 0.35355,-0.7071 0.7071,-0.53033 1.76776,-0.88388 1.06066,-0.35355 1.41422,-1.06066 1.41422,-1.06066 0,0 0.53033,-1.41421 0.35355,-2.82843 -0.17678,-1.41421 -0.35355,-1.94454 -0.35355,-3.18198 0,-1.23743 -1.41422,-0.88388 -1.41422,-0.88388 l -1.06066,-1.41421 c 0,0 -1.06066,-0.35356 -1.59099,-1.23744 -0.53033,-0.88388 0,-1.41421 0.17678,-2.47487 0.17678,-1.06066 -0.53033,-1.41422 -0.53033,-1.41422 0,0 -0.88388,-2.12132 -1.23744,-3.18198 -0.35355,-1.06066 -0.17677,-1.59099 -0.35355,-2.47487 -0.17678,-0.88389 0.17678,-1.41422 0.70711,-2.12132 0.53033,-0.70711 1.23743,-1.76777 2.29809,-2.12132 1.06066,-0.35356 -0.35355,-1.59099 -0.35355,-1.59099 0,0 1.23744,-3.71231 1.94454,-3.71231 0.70711,0 0.70711,0 3.35876,-0.17678 2.65165,-0.17678 1.41421,-0.88388 1.94454,-1.59099 0.53033,-0.70711 1.76777,-0.53033 2.47488,-0.70711 0.7071,-0.17677 0.7071,0 1.41421,0 0.70711,0 3.18198,-0.7071 3.18198,-0.7071 0,0 1.59099,-1.41422 2.2981,-1.76777 0.70711,-0.35355 1.41421,-0.88388 1.41421,-0.88388 l 1.23744,1.23743 1.41421,0.17678 c 0,0 1.59099,0.70711 2.47488,0.88388 0.88388,0.17678 1.23743,0.35356 2.12132,0.17678 0.88388,-0.17678 1.06066,-0.53033 1.76776,-1.94454 0.70711,-1.41422 0.88389,-1.76777 1.06066,-3.00521 0.17678,-1.23744 3.35876,-1.23744 4.24265,-1.59099 0.88388,-0.35355 1.06066,-0.70711 2.12132,-1.23744 1.06066,-0.53033 0,-1.59099 0,-3.35875 0,-1.76777 -0.53033,-1.94455 -0.70711,-3.18198 -0.17678,-1.23744 -0.53033,-1.59099 -0.70711,-2.47488 -0.17677,-0.88388 1.59099,-1.76776 2.2981,-3.18198 0.70711,-1.41421 0,-1.94454 -0.17678,-3.18198 -0.17677,-1.23743 -1.76776,-1.23743 -1.76776,-1.23743 l -3.18199,-2.12133 -1.41421,-0.7071 c 0,0 -0.17678,-1.41422 0,-3.00521 0.17678,-1.59099 1.06066,-2.12132 1.76777,-3.35875 0.7071,-1.23744 0.7071,-2.65165 0.7071,-3.53554 0,-0.88388 -1.76776,-1.23743 -1.76776,-1.23743 0,0 0,-3.18198 0,-4.06587 0,-0.88388 0,-3.53553 0,-4.77297 0,-1.23744 -0.70711,-3.53553 -1.23744,-4.41942 -0.53033,-0.88388 0.53033,-2.47487 0.53033,-2.47487 0,0 -0.88388,-1.94454 -1.06066,-2.82843 -0.17678,-0.88388 1.06066,-4.77297 1.06066,-4.77297 l 1.94454,-4.77297 1.23744,-2.12132 c 0,0 0,-3.18198 0.53033,-3.88909 0.53033,-0.7071 0.35356,-4.06586 0.35356,-4.06586 0,0 -0.70711,-6.71751 -1.41422,-7.15946 -0.7071,-0.44194 -0.97227,-0.97227 -1.67938,-1.85615 -0.7071,-0.88389 -2.03293,-0.0884 -3.0052,-0.0884 -0.97227,0 -1.94454,-0.0884 -3.0052,-0.26517 -1.06066,-0.17677 -1.32583,-0.44194 -2.65165,-0.7071 -1.32583,-0.26517 -2.20971,0.88388 -2.56327,1.59099 -0.35355,0.70711 -0.7071,0.97227 -1.76776,2.56326 -1.06066,1.59099 -1.14905,0.35355 -2.47488,0.97227 -1.32582,0.61872 -1.23743,-0.88388 -2.20971,-1.23743 -0.97227,-0.35356 -2.2097,0.35355 -3.27037,0.35355 -1.06066,0 -0.97227,-0.26517 -2.29809,-1.14905 -1.32583,-0.88388 -1.32583,-0.53033 -3.18198,1.23744 -1.85616,1.76776 -1.67938,1.14905 -3.00521,0.88388 -1.32582,-0.26516 -1.94454,1.23744 -1.94454,1.23744 0,0 -2.38649,2.29809 -3.0052,2.65165 -0.61872,0.35355 -3.0936,1.06066 -3.97748,2.2981 -0.88388,1.23743 -0.17678,0.79549 -1.85615,1.67937 -1.67938,0.88389 -1.32583,0.0884 -1.32583,-0.97227 0,-1.06066 0,-0.44194 0.61872,-1.85615 0.61872,-1.41422 0,-0.61872 -0.61872,-0.88389 -0.61872,-0.26516 -1.06066,-0.79549 -1.67938,-1.67938 -0.61872,-0.88388 -0.61872,-1.23743 -1.32582,-1.94454 -0.70711,-0.70711 -2.12132,0.7955 -3.35876,0.61872 -1.23744,-0.17678 -1.14905,0 -2.03293,0.0884 -0.88389,0.0884 -0.0884,0.79549 0.17677,1.59099 0.26517,0.79549 0.44195,0.7071 1.06066,1.41421 0.61872,0.70711 -0.0884,1.94455 -0.0884,2.65165 0,0.70711 -0.17678,0.7955 0.0884,1.59099 0.26517,0.7955 0.70711,0.53033 1.59099,1.14905 0.88389,0.61872 0.53033,0.97227 0.35356,1.76777 -0.17678,0.79549 -0.97227,-0.0884 -1.94455,-0.17678 -0.97227,-0.0884 -1.59099,1.32583 -2.56326,1.85616 -0.97227,0.53033 -1.41421,0.35355 -2.38648,0.44194 -0.97228,0.0884 -0.7955,0.61872 -2.38649,2.12132 -1.59099,1.5026 -1.67938,0.61872 -2.82843,0.61872 -1.14904,0 -0.7071,-0.61872 -2.03293,-1.50261 -1.32582,-0.88388 -0.61872,0.0884 -1.59099,0.44195 -0.97227,0.35355 0.0884,1.06066 0.70711,2.03293 0.61872,0.97227 0.79549,1.67938 0.97227,2.03293 0.17678,0.35355 0,0.44194 -1.41421,1.94454 -1.41422,1.50261 -1.06066,0.0884 -2.12132,0.0884 -1.06066,0 -0.7955,0.0884 -1.85616,0.17678 -1.06066,0.0884 -0.70711,-0.44194 -0.70711,-1.14905 0,-0.70711 0,-0.61872 0,-2.12132 0,-1.5026 -0.53033,-1.14905 -0.79549,-1.5026 -0.26517,-0.35355 0,-0.7955 -0.17678,-1.23744 -0.17677,-0.44194 -0.88388,-1.06066 -1.32582,-1.06066 -0.44194,0 -1.67938,0.0884 -1.94455,-0.26516 -0.26516,-0.35356 -0.79549,-0.88389 -1.59099,-1.23744 -0.79549,-0.35355 -1.67938,-1.23744 -2.03293,-1.59099 -0.35355,-0.35355 0,-0.7955 0.0884,-1.23744 0.0884,-0.44194 1.67938,-1.06066 3.0052,-0.88388 1.32583,0.17678 4.15426,0.53033 6.36396,0.53033 2.20971,0 3.27037,0 4.15426,0 0.88388,0 3.0052,-0.44194 4.15425,-0.70711 1.14905,-0.26516 2.65165,-1.06066 3.18198,-1.67938 0.53033,-0.61871 0.17678,-0.79549 0.0884,-1.94454 -0.0884,-1.14905 -0.44194,-1.59099 -1.23744,-2.2981 -0.79549,-0.7071 -0.70711,-1.14905 -4.06586,-3.35875 -3.35876,-2.20971 -3.18198,-0.70711 -4.50781,-0.61872 -1.32582,0.0884 -1.14905,-0.53033 -2.12132,-0.7955 -0.97227,-0.26516 -3.0052,-0.17677 -4.68458,-0.17677 -1.67938,0 -1.76777,0.26516 -3.09359,-0.0884 -1.32583,-0.35356 -0.70711,-0.7955 -1.85616,-0.88389 -1.14905,-0.0884 -1.41421,0.17678 -2.38648,-0.17677 -0.97228,-0.35356 -1.23744,-0.88389 -1.94455,-1.14905 -0.7071,-0.26517 0.26517,0.17678 -0.97227,0.0884 z"
     id="alaska"
     sodipodi:nodetypes="csssssssssssssssssssssssssssssssssssssscsssssssssssssssscsssssssssscssccsscssccssccssssc"
     inkscape:connector-curvature="0"
     transform="matrix(3.0178519,0,0,3.1314027,-1681.9081,-578.06138)" />
     <text
          xml:space="preserve"
          style="font-size:107.87071991px;font-style:normal;font-variant:normal;font-weight:bold;font-stretch:normal;text-align:start;line-height:125%;letter-spacing:0px;word-spacing:0px;writing-mode:lr-tb;text-anchor:start;fill:#800000;fill-opacity:1;stroke:none;display:inline;enable-background:new;font-family:Latin Modern Mono;-inkscape-font-specification:Latin Modern Mono Bold"
          x="40.32494"
          y="440.29465"
          id="alberta_text"
          sodipodi:linespacing="125%"
          inkscape:label="alberta"
          transform="scale(0.94301946,1.0604235)"><tspan
            sodipodi:role="line"
            id="tspan7513-9-23"
            x="40.32494"
            y="440.29465"
            style="font-size:107.87071991px;font-style:normal;font-variant:normal;font-weight:bold;font-stretch:normal;text-align:start;line-height:125%;writing-mode:lr-tb;text-anchor:start;fill:#800000;font-family:Latin Modern Mono;-inkscape-font-specification:Latin Modern Mono Bold">UKRAINE</tspan></text>

</svg>
