<?xml version="1.0" encoding="UTF-8" standalone="no"?>
<svg
   xmlns:dc="http://purl.org/dc/elements/1.1/"
   xmlns:cc="http://creativecommons.org/ns#"
   xmlns:rdf="http://www.w3.org/1999/02/22-rdf-syntax-ns#"
   xmlns:svg="http://www.w3.org/2000/svg"
   xmlns="http://www.w3.org/2000/svg"
   xmlns:sodipodi="http://sodipodi.sourceforge.net/DTD/sodipodi-0.dtd"
   xmlns:inkscape="http://www.inkscape.org/namespaces/inkscape"
   id="svg2"
   sodipodi:version="0.32"
   inkscape:version="0.48.5 r10040"
   viewBox="0 0 750 520"
   preserveAspectRatio="xMidYMid meet"
   version="1.2"
   sodipodi:docname="ural.svg"
   inkscape:output_extension="org.inkscape.output.svg.inkscape"
   inkscape:export-filename="/home/kris/worldmap.png"
   inkscape:export-xdpi="90"
   inkscape:export-ydpi="90"
   style="enable-background:new"
   enable-background="new"
   width="100%"
   height="100%">
  <metadata
     id="metadata3188">
    <rdf:RDF>
      <cc:Work
         rdf:about="">
        <dc:format>image/svg+xml</dc:format>
        <dc:type
           rdf:resource="http://purl.org/dc/dcmitype/StillImage" />
        <dc:title></dc:title>
      </cc:Work>
    </rdf:RDF>
  </metadata>
  <defs
     id="defs3186" />
  <sodipodi:namedview
     pagecolor="#ffffff"
     bordercolor="#666666"
     borderopacity="1"
     objecttolerance="10"
     gridtolerance="10"
     guidetolerance="10"
     inkscape:pageopacity="0"
     inkscape:pageshadow="2"
     inkscape:window-width="1278"
     inkscape:window-height="726"
     id="namedview3184"
     showgrid="false"
     inkscape:zoom="0.45384615"
     inkscape:cx="969.84328"
     inkscape:cy="348.13559"
     inkscape:window-x="0"
     inkscape:window-y="24"
     inkscape:window-maximized="1"
     inkscape:current-layer="svg2" />
  <filter
     inkscape:collect="always"
     id="filter12871">
    <feGaussianBlur
       inkscape:collect="always"
       stdDeviation="0.5805759"
       id="feGaussianBlur12873" />
  </filter>
  <path
     style="fill:#a52a2a;fill-opacity:1;fill-rule:evenodd;stroke:#000000;stroke-width:1.20000005;stroke-linecap:butt;stroke-linejoin:miter;stroke-miterlimit:4.32165003;stroke-opacity:0.58527132;stroke-dasharray:none;stroke-dashoffset:0;display:inline;filter:url(#filter12871)"
     d="m 665.79395,265.91507 c 1.06066,-0.53033 0.16305,-1.53664 0.16305,-3.3044 0,-1.76777 -0.53033,-1.94455 -0.70711,-3.18198 -0.17678,-1.23744 -0.53033,-1.59099 -0.70711,-2.47488 -0.17677,-0.88388 1.59099,-1.76776 2.2981,-3.18198 0.70711,-1.41421 0,-1.94454 -0.17678,-3.18198 -0.17677,-1.23743 -1.76776,-1.23743 -1.76776,-1.23743 l -3.18199,-2.12133 -1.41421,-0.7071 c 0,0 -0.17678,-1.41422 0,-3.00521 0.17678,-1.59099 1.06066,-2.12132 1.76777,-3.35875 0.7071,-1.23744 0.7071,-2.65165 0.7071,-3.53554 0,-0.88388 -1.76776,-1.23743 -1.76776,-1.23743 0,0 0,-3.18198 0,-4.06587 0,-0.88388 0,-3.53553 0,-4.77297 0,-1.23744 -0.70711,-3.53553 -1.23744,-4.41942 -0.53033,-0.88388 0.53033,-2.47487 0.53033,-2.47487 0,0 -0.88388,-1.94454 -1.06066,-2.82843 -0.17678,-0.88388 1.06066,-4.77297 1.06066,-4.77297 l 1.94454,-4.77297 1.23744,-2.12132 c 0,0 0,-3.18198 0.53033,-3.88909 0.53033,-0.7071 0.35356,-4.06586 0.35356,-4.06586 0,0 -0.70711,-6.71751 -1.41422,-7.15946 l 0.67321,-2.29383 -1,-0.875 -0.375,-2.5 -2.5,-0.625 0.25,-3.375 c 0,0 1.5,-1.5 2.125,-1.5 0.625,0 -1.5,-2.125 -1.75,-3 -0.25,-0.875 0,-1.25 0.5,-1.5 0.5,-0.25 0.25,-1 0.125,-2 -0.125,-1 -0.125,-1.125 -0.125,-1.125 l 0.875,-2.5 2.875,1 c 0,0 0.625,1 1.25,1.125 0.625,0.125 1.25,0 1.75,0 0.5,0 0.25,0.125 1,1.625 0.75,1.5 0.75,0 1.875,0.25 1.125,0.25 1.125,1.375 1,2.125 -0.125,0.75 -0.75,1.375 -1.375,2.5 -0.625,1.125 -0.5,0.75 -1.5,1.875 -1,1.125 1.5,1.875 1.5,1.875 0,0 0.25,1.5 0.875,2.375 0.625,0.875 0.125,0.25 1.125,0.75 1,0.5 0,0.875 0,2.25 0,1.375 0.75,0.25 0.75,0.25 0,0 0.5,0.625 0.875,1.875 0.375,1.25 0.125,0.5 1,2.375 0.875,1.875 1.25,-0.125 1.25,-0.125 0,0 0.75,0.625 1.25,1.625 0.5,1 2.375,0.625 2.375,0.625 0,0 1,-1 1.75,-1.625 0.75,-0.625 0.5,-0.375 1.5,-0.75 1,-0.375 0.0489,0.14674 0.67391,1.89674 0.625,1.75 0.42318,3.05793 0.50004,3.82652 0.0769,0.76859 0.46116,1.46033 1.07603,1.53719 0.61488,0.0769 1.22976,0.69173 2.07521,1.46032 0.84545,0.7686 0.84545,0.84546 1.15289,1.07604 0.30744,0.23058 1.69091,3.84297 1.69091,4.22727 0,0.38429 0.53801,1.99834 0.61487,2.4595 0.0769,0.46115 0.53802,0 1.53719,0 0.99918,0 1.53719,0.61487 1.61405,1.92148 0.0769,1.30661 0.15372,2.22893 0.3843,3.15124 0.23058,0.92231 0,2.0752 -0.15372,2.8438 -0.15372,0.76859 -0.0769,1.69091 0.0769,2.0752 0.15372,0.3843 2.53636,0.99918 2.8438,1.38347 0.30744,0.3843 1.53719,0.92232 1.84462,1.69091 0.30744,0.7686 0.30744,0.99917 0.61488,1.46033 0.30744,0.46116 1.46033,1.38347 1.76777,1.61405 0.30743,0.23058 0.23057,1.53719 0.61487,2.0752 0.3843,0.53802 1.15289,1.15289 1.46033,1.53719 0.30744,0.3843 1.07603,2.8438 0.61488,3.6124 -0.46116,0.76859 -0.23058,1.92148 -0.46116,3.30495 -0.23058,1.38347 0.23058,0.7686 1.69091,1.61405 1.46033,0.84545 0,0.53802 0.0769,1.30661 0.0769,0.76859 0.61487,1.07603 1.30661,1.76777 0.69173,0.69173 0.30743,0.61487 0.38429,1.6909 0.0769,1.07604 0.92232,1.84463 1.46033,2.69008 0.53802,0.84546 -0.23057,0.99918 -0.69173,1.92149 -0.46116,0.92231 -1.22975,0.61488 -2.22893,1.61405 -0.99917,0.99917 -0.53801,1.76776 -0.53801,2.53636 0,0.76859 -0.3843,2.22892 -1.07603,2.99752 -0.69174,0.76859 -0.30744,-1.38347 -1.46033,0.23058 -1.15289,1.61404 -0.7686,3.76611 -0.61488,4.61156 0.15372,0.84546 0.61488,0.7686 0.92232,0.92231 0.30743,0.15372 0.84545,-0.46115 1.46032,-1.38347 0.61488,-0.92231 1.69091,-0.61487 2.30579,-0.53801 0.61487,0.0769 1.69091,0.84545 2.30578,1.69091 0.61488,0.84545 0,3.22809 -0.0769,3.61239 -0.0769,0.3843 -0.53801,1.30661 -0.61487,2.22892 -0.0769,0.92232 3.84297,0.84546 3.84297,0.84546 0,0 0.92231,2.53636 1.30661,2.53636 0.38429,0 1.53719,0 1.76776,0.76859 0.23058,0.7686 1.38347,2.8438 2.15207,3.15124 0.76859,0.30744 0.30744,0.53802 0.30744,0.99917 0,0.46116 0,0.53802 0.92231,1.84463 0.92231,1.30661 0.84545,3.99669 0.84545,5.22644 0,1.22975 -0.0769,0.92231 -0.23057,1.61405 l -2.5301,0.20493 c 0,0 0.65218,4.23914 0,4.56522 -0.65217,0.32609 -3.80434,0.76087 -3.80434,0.76087 0,0 -0.1087,3.26087 -0.21739,3.80435 -0.1087,0.54348 -1.63044,1.52174 -1.95653,2.06522 -0.32608,0.54348 -0.65217,0.54348 -0.32608,1.19565 0.32608,0.65217 0.54348,1.52174 0.43478,1.95652 -0.1087,0.43478 0.54348,1.30435 -0.65217,1.52174 -1.19566,0.21739 -1.73913,0.65217 -2.39131,0.1087 -0.65217,-0.54348 -0.86956,-1.73913 -1.73913,-2.17392 -0.86956,-0.43478 -1.19565,-0.43478 -1.30435,-1.30435 -0.10869,-0.86956 -0.43478,-2.17391 -0.43478,-2.17391 0,0 -1.08696,-1.63043 -1.63043,-1.63043 -0.54348,0 -2.7174,0.54348 -3.15218,0.21739 -0.43478,-0.32609 -2.5,-0.1087 -3.26087,-0.76087 -0.76087,-0.65218 -0.86956,-1.19565 -1.84782,-0.76087 -0.97826,0.43478 -2.7174,0.54348 -2.7174,0.54348 l -1.63043,-1.08696 c 0,0 -0.86957,-0.32609 -1.73913,-0.86956 -0.86957,-0.54348 -0.97826,-1.84783 -1.30435,-2.39131 -0.32609,-0.54348 -0.97826,-1.41304 -1.41304,-1.73913 -0.43478,-0.32609 -0.86957,-0.97826 -1.41305,-1.52174 -0.54347,-0.54348 -1.19565,-0.86956 -1.95652,-1.08695 -0.76087,-0.2174 -1.41304,-0.32609 -1.63043,-0.97827 -0.21739,-0.65217 0,-1.19565 -0.43478,-1.30434 -0.43479,-0.1087 -1.52174,-0.54348 -1.52174,-0.54348 0,0 -0.1087,-1.52174 -0.65218,-1.84783 -0.54348,-0.32608 -1.63043,-1.19565 -2.28261,-1.52174 -0.65217,-0.32608 -1.41304,-0.43478 -1.63043,-1.30434 -0.21739,-0.86957 -0.54348,-1.19566 -0.54348,-1.19566 0,0 -1.30435,-0.86956 -1.52174,-1.41304 -0.21739,-0.54348 -0.86956,-1.63044 -0.86956,-1.63044 l -1.41305,-1.52173 -1.63043,-0.54348 -2.03214,-0.12841 z"
     id="ural"
     sodipodi:nodetypes="csssssssssssssssssssssssssssssssssssssscsssssssssssssssscsssssssssscssccsscssccssccssssc"
     inkscape:connector-curvature="0"
     transform="matrix(4.1901665,0,0,2.8582221,-2735.6115,-460.73788)" />
     <text
          xml:space="preserve"
          style="font-size:107.87071991px;font-style:normal;font-variant:normal;font-weight:bold;font-stretch:normal;text-align:start;line-height:125%;letter-spacing:0px;word-spacing:0px;writing-mode:lr-tb;text-anchor:start;fill:#800000;fill-opacity:1;stroke:none;display:inline;enable-background:new;font-family:Latin Modern Mono;-inkscape-font-specification:Latin Modern Mono Bold"
          x="40.32494"
          y="440.29465"
          id="alberta_text"
          sodipodi:linespacing="125%"
          inkscape:label="alberta"
          transform="scale(0.94301946,1.0604235)"><tspan
            sodipodi:role="line"
            id="tspan7513-9-23"
            x="40.32494"
            y="440.29465"
            style="font-size:107.87071991px;font-style:normal;font-variant:normal;font-weight:bold;font-stretch:normal;text-align:start;line-height:125%;writing-mode:lr-tb;text-anchor:start;fill:#800000;font-family:Latin Modern Mono;-inkscape-font-specification:Latin Modern Mono Bold">URAL</tspan></text>

</svg>
