<?xml version="1.0" encoding="UTF-8" standalone="no"?>
<svg
   xmlns:dc="http://purl.org/dc/elements/1.1/"
   xmlns:cc="http://creativecommons.org/ns#"
   xmlns:rdf="http://www.w3.org/1999/02/22-rdf-syntax-ns#"
   xmlns:svg="http://www.w3.org/2000/svg"
   xmlns="http://www.w3.org/2000/svg"
   xmlns:sodipodi="http://sodipodi.sourceforge.net/DTD/sodipodi-0.dtd"
   xmlns:inkscape="http://www.inkscape.org/namespaces/inkscape"
   id="svg2"
   sodipodi:version="0.32"
   inkscape:version="0.48.5 r10040"
   viewBox="0 0 750 520"
   preserveAspectRatio="xMidYMid meet"
   version="1.2"
   sodipodi:docname="western_united_states.svg"
   inkscape:output_extension="org.inkscape.output.svg.inkscape"
   inkscape:export-filename="/home/kris/worldmap.png"
   inkscape:export-xdpi="90"
   inkscape:export-ydpi="90"
   style="enable-background:new"
   enable-background="new"
   width="100%"
   height="100%">
  <metadata
     id="metadata3188">
    <rdf:RDF>
      <cc:Work
         rdf:about="">
        <dc:format>image/svg+xml</dc:format>
        <dc:type
           rdf:resource="http://purl.org/dc/dcmitype/StillImage" />
        <dc:title />
      </cc:Work>
    </rdf:RDF>
  </metadata>
  <defs
     id="defs3186" />
  <sodipodi:namedview
     pagecolor="#ffffff"
     bordercolor="#666666"
     borderopacity="1"
     objecttolerance="10"
     gridtolerance="10"
     guidetolerance="10"
     inkscape:pageopacity="0"
     inkscape:pageshadow="2"
     inkscape:window-width="1278"
     inkscape:window-height="726"
     id="namedview3184"
     showgrid="false"
     inkscape:zoom="0.45384615"
     inkscape:cx="375"
     inkscape:cy="348.13559"
     inkscape:window-x="0"
     inkscape:window-y="24"
     inkscape:window-maximized="1"
     inkscape:current-layer="svg2" />
  <filter
     inkscape:collect="always"
     id="filter12871">
    <feGaussianBlur
       inkscape:collect="always"
       stdDeviation="0.5805759"
       id="feGaussianBlur12873" />
  </filter>
  <path
     style="fill:yellow;fill-opacity:1;fill-rule:evenodd;stroke:#000000;stroke-width:1.20000005;stroke-linecap:butt;stroke-linejoin:miter;stroke-miterlimit:4.32165003;stroke-opacity:0.58527132;stroke-dasharray:none;stroke-dashoffset:0;display:inline;filter:url(#filter12871)"
     d="M 326.24139,264.27481 C 325.375,264.75 326.375,300.875 325.875,301.375 c -0.5,0.5 -11.375,0.375 -11.875,0.625 -0.5,0.25 -0.875,0.875 -1,1.75 -0.125,0.875 0,4 -0.125,5.375 -0.125,1.375 -1.875,0 -2.375,0.25 -0.5,0.25 -3.875,1.5 -3.875,2.125 0,0.625 -0.75,4 -0.75,4.625 0,0.625 -1,6.125 -1,6.125 0,0 -1.75,0.5 -2.25,0.75 -0.5,0.25 -2.375,0.25 -2.875,0.875 -0.5,0.625 0.125,2.5 0.125,2.5 0,0 1.75,0.25 1.375,1 -0.375,0.75 0.875,5.375 0.75,5.125 -0.125,-0.25 -3.375,0 -4.375,0.125 -1,0.125 -2.25,-0.875 -2.625,-1.375 -0.375,-0.5 -0.75,-1.125 -1.875,-1.125 -1.125,0 -3.375,-2.75 -4,-3.25 -0.625,-0.5 -8.375,0 -9.375,0 -1,0 -2.375,-2.375 -2.375,-2.375 l -3.875,-2.125 c 0,0 -6.625,0 -7.75,0.125 -1.125,0.125 -1.75,-3.375 -1.75,-3.375 -0.5,-2.125 -0.75,-1.625 -0.75,-3.5 0,-1.875 -2.875,-5.5 -4.25,-7.5 -1.375,-2 -1.375,-7.375 -1.125,-8.75 0.25,-1.375 -0.25,-6.375 0.625,-8.5 0.875,-2.125 0.875,-5.125 1.5,-8 0.625,-2.875 -0.125,-2.25 1.375,-5.875 1.5,-3.625 1.375,-1.25 1.625,-4.375 0.25,-3.125 1.25,-1.25 1.375,-3.875 0.125,-2.625 0.625,-3.875 -0.25,-5.125 0,0 -0.25,0.75 0.75,1 1,0.25 57.5,0.625 61.36639,-0.35019 z"
     id="alaska"
     sodipodi:nodetypes="csssssssssssssssssssssssssssssssssssssscsssssssssssssssscsssssssssscssccsscssccssccssssc"
     inkscape:connector-curvature="0"
     transform="matrix(4.7361533,0,0,6.0569955,-1203.6543,-1566.7815)" />
  <text
     xml:space="preserve"
     style="font-size:61.3342247px;font-style:normal;font-variant:normal;font-weight:normal;font-stretch:normal;text-align:start;line-height:125%;letter-spacing:0px;word-spacing:0px;writing-mode:lr-tb;text-anchor:start;fill:#800000;fill-opacity:1;stroke:none;display:inline;enable-background:new;font-family:Latin Modern Mono;-inkscape-font-specification:Latin Modern Mono"
     x="5.607224"
     y="430.14639"
     id="alberta_text"
     sodipodi:linespacing="125%"
     inkscape:label="alberta"
     transform="scale(0.9851625,1.015061)"><tspan
       sodipodi:role="line"
       id="tspan7513-9-23"
       x="5.607224"
       y="430.14639"
       style="font-size:61.3342247px;font-style:normal;font-variant:normal;font-weight:normal;font-stretch:normal;text-align:start;line-height:125%;writing-mode:lr-tb;text-anchor:start;fill:#800000;font-family:Latin Modern Mono;-inkscape-font-specification:Latin Modern Mono">WESTERN </tspan><tspan
       sodipodi:role="line"
       x="5.607224"
       y="506.81415"
       style="font-size:61.3342247px;font-style:normal;font-variant:normal;font-weight:normal;font-stretch:normal;text-align:start;line-height:125%;writing-mode:lr-tb;text-anchor:start;fill:#800000;font-family:Latin Modern Mono;-inkscape-font-specification:Latin Modern Mono"
       id="tspan3081">UNITED STATES</tspan></text>
  <flowRoot
     xml:space="preserve"
     id="flowRoot3087"
     style="fill:black;stroke:none;stroke-opacity:1;stroke-width:1px;stroke-linejoin:miter;stroke-linecap:butt;fill-opacity:1;font-family:eufm10;font-style:normal;font-weight:normal;font-size:48px;line-height:125%;letter-spacing:0px;word-spacing:0px;-inkscape-font-specification:eufm10;font-stretch:normal;font-variant:normal;text-anchor:start;text-align:start;writing-mode:lr"><flowRegion
       id="flowRegion3089"><rect
         id="rect3091"
         width="0"
         height="72.711861"
         x="220.33899"
         y="436.27118" /></flowRegion><flowPara
       id="flowPara3093" /></flowRoot>  <flowRoot
     xml:space="preserve"
     id="flowRoot3095"
     style="fill:black;stroke:none;stroke-opacity:1;stroke-width:1px;stroke-linejoin:miter;stroke-linecap:butt;fill-opacity:1;font-family:eufm10;font-style:normal;font-weight:normal;font-size:48px;line-height:125%;letter-spacing:0px;word-spacing:0px;-inkscape-font-specification:eufm10;font-stretch:normal;font-variant:normal;text-anchor:start;text-align:start;writing-mode:lr"><flowRegion
       id="flowRegion3097"><rect
         id="rect3099"
         width="13.220339"
         height="79.322037"
         x="301.86441"
         y="425.25424" /></flowRegion><flowPara
       id="flowPara3101" /></flowRoot></svg>
