<?xml version="1.0" encoding="UTF-8" standalone="no"?>
<svg
   xmlns:dc="http://purl.org/dc/elements/1.1/"
   xmlns:cc="http://creativecommons.org/ns#"
   xmlns:rdf="http://www.w3.org/1999/02/22-rdf-syntax-ns#"
   xmlns:svg="http://www.w3.org/2000/svg"
   xmlns="http://www.w3.org/2000/svg"
   xmlns:sodipodi="http://sodipodi.sourceforge.net/DTD/sodipodi-0.dtd"
   xmlns:inkscape="http://www.inkscape.org/namespaces/inkscape"
   id="svg2"
   sodipodi:version="0.32"
   inkscape:version="0.48.5 r10040"
   viewBox="0 0 750 520"
   preserveAspectRatio="xMidYMid meet"
   version="1.2"
   sodipodi:docname="western_australia.svg"
   inkscape:output_extension="org.inkscape.output.svg.inkscape"
   inkscape:export-filename="/home/kris/worldmap.png"
   inkscape:export-xdpi="90"
   inkscape:export-ydpi="90"
   style="enable-background:new"
   enable-background="new"
   width="100%"
   height="100%">
  <metadata
     id="metadata3188">
    <rdf:RDF>
      <cc:Work
         rdf:about="">
        <dc:format>image/svg+xml</dc:format>
        <dc:type
           rdf:resource="http://purl.org/dc/dcmitype/StillImage" />
        <dc:title />
      </cc:Work>
    </rdf:RDF>
  </metadata>
  <defs
     id="defs3186" />
  <sodipodi:namedview
     pagecolor="#ffffff"
     bordercolor="#666666"
     borderopacity="1"
     objecttolerance="10"
     gridtolerance="10"
     guidetolerance="10"
     inkscape:pageopacity="0"
     inkscape:pageshadow="2"
     inkscape:window-width="1278"
     inkscape:window-height="726"
     id="namedview3184"
     showgrid="false"
     inkscape:zoom="0.45384615"
     inkscape:cx="285.17169"
     inkscape:cy="171.86441"
     inkscape:window-x="0"
     inkscape:window-y="24"
     inkscape:window-maximized="1"
     inkscape:current-layer="svg2" />
  <filter
     inkscape:collect="always"
     id="filter12871">
    <feGaussianBlur
       inkscape:collect="always"
       stdDeviation="0.5805759"
       id="feGaussianBlur12873" />
  </filter>
  <path
     style="fill:#ff00ff;fill-opacity:1;fill-rule:evenodd;stroke:#000000;stroke-width:1.20000005;stroke-linecap:butt;stroke-linejoin:miter;stroke-miterlimit:4.32165003;stroke-opacity:0.58527132;stroke-dasharray:none;stroke-dashoffset:0;display:inline;filter:url(#filter12871)"
     d="m 862.4935,599.88536 0.23542,-0.26947 c 0,0 0,-5.65685 0.17678,-7.07107 0.17678,-1.41421 -0.35355,-1.23743 -1.06066,-2.29809 -0.70711,-1.06066 0.88388,-42.24963 0.70711,-43.13352 -0.17678,-0.88388 -29.87526,0.35356 -29.87526,0.35356 l -0.58898,-37.73752 -2.12132,-1.23744 c 0,0 -1.59099,-1.06066 -2.47488,-1.59099 -0.88388,-0.53033 -1.59099,1.94454 -2.2981,2.2981 -0.7071,0.35355 -2.82842,1.59099 -2.82842,1.59099 0,0 -0.53033,1.76776 -0.88389,3.0052 -0.35355,1.23744 -1.94454,0.17678 -3.88908,0.88389 -1.94455,0.7071 -0.17678,0.7071 -0.70711,2.47487 -0.53033,1.76777 -0.53033,0.17678 -2.12132,0.17678 -1.59099,0 -0.70711,0.7071 -1.76777,2.12132 -1.06066,1.41421 -1.23743,0.35355 -2.65165,1.59099 -1.41421,1.23743 -0.35355,1.23743 -1.23743,3.0052 -0.88389,1.76777 -1.06066,0.88388 -2.12132,1.59099 -1.06067,0.70711 -2.82843,2.47487 -3.88909,3.53553 -1.06066,1.06066 -1.59099,0.53033 -3.71231,0.35356 -2.12132,-0.17678 -0.88389,0 -2.47488,0.17677 -1.59099,0.17678 -1.23743,1.23744 -2.29809,2.12132 -1.06066,0.88389 -1.59099,1.23744 -2.82843,2.47488 -1.23744,1.23744 -0.53033,0.53033 -2.47487,0.70711 -1.94455,0.17677 -1.06066,0.17677 -3.00521,1.41421 -1.94454,1.23744 -0.17677,1.59099 -0.35355,3.0052 -0.17678,1.41422 -0.53033,1.41422 -1.06066,2.65165 -0.53033,1.23744 0,1.59099 0.53033,3.00521 0.53033,1.41421 1.59099,0.53033 1.59099,0.53033 0,0 -0.35355,2.12132 0,2.82842 0.35355,0.70711 -0.17678,0 -1.76777,0 -1.59099,0 -0.70711,0.53033 -0.70711,1.76777 0,1.23744 0,1.23744 0,1.23744 0,0 -0.53033,0.17677 -1.06066,1.23743 -0.53033,1.06067 0,0.88389 0.17678,2.12133 0.17678,1.23743 0.35355,1.76776 0.88388,3.0052 0.53033,1.23744 1.06066,0.88388 1.94455,2.82843 0.88388,1.94454 0.35355,2.12132 0.35355,3.88908 0,1.76777 0,1.23744 0.17678,3.53554 0.17678,2.29809 1.23744,1.59099 1.23744,1.59099 0,0 1.23743,0.88388 1.94454,1.41421 0.70711,0.53033 0.70711,1.06066 1.06066,2.82843 0.35355,1.76777 -0.53033,1.41421 -0.88388,2.47487 -0.35356,1.06066 0,0.70711 -0.17678,2.82843 -0.17678,2.12132 -0.88388,1.23744 -1.59099,2.12132 -0.70711,0.88388 -0.53033,0.88388 -1.06066,2.2981 -0.53033,1.41421 0,1.06066 0.88388,1.76776 0.88389,0.70711 1.94455,1.23744 3.00521,2.12132 2.44081,2.67281 5.06332,1.98956 8.13172,0.35356 1.59099,-0.88389 0.88389,-1.06066 2.12132,-1.59099 1.23744,-0.53033 0.88389,-0.35356 1.59099,-0.70711 0.70711,-0.35355 1.23744,-0.88388 2.2981,-1.94454 1.06066,-1.06066 0.35355,-0.17678 1.59099,-0.88389 1.23744,-0.7071 1.41422,-1.23743 3.35876,-1.94454 1.94454,-0.70711 2.47487,-0.17678 2.47487,-0.17678 0,0 0,0 1.59099,0 1.59099,0 0.70711,0.17678 1.06066,0.88389 0.35356,0.7071 1.41422,0.7071 2.12132,0.7071 0.70711,0 1.76777,-0.17677 2.65165,-0.53033 0.88389,-0.35355 -0.17677,-1.59099 -0.17677,-2.29809 0,-0.70711 0,-0.88389 0.53033,-2.12132 0.53033,-1.23744 2.12132,-1.59099 2.82842,-1.59099 0.70711,0 2.47488,-0.35356 3.18198,-1.06066 0.70711,-0.70711 1.06067,-0.35356 2.47488,-0.53033 1.41421,-0.17678 1.23744,-0.53034 2.2981,-1.591 1.06066,-1.06066 1.06066,-0.53033 3.0052,-0.53033 1.94454,0 1.06066,0 3.0052,0 1.94455,0 1.76777,0.17678 3.00521,0.35356 1.23743,0.17677 1.94454,1.41421 2.82842,1.94454 0.88389,0.53033 0.35356,0.70711 0.35356,2.12132 0,1.41422 0.17677,1.59099 1.59099,4.06587 1.41421,2.47487 2.12132,2.47487 2.12132,2.47487 0,0 1.23744,-1.76777 2.2981,-3.35876 1.06066,-1.59099 0.88388,-0.53033 2.47487,-1.06066 1.59099,-0.53033 0.53033,-1.06066 0.88388,-3.35875 0.35356,-2.2981 1.06066,-0.70711 2.2981,-0.53033 1.23744,0.17677 0,2.29809 -0.35355,3.53553 -0.35356,1.23744 -1.06066,1.59099 -1.94455,2.47487 -0.88388,0.88389 -0.88388,1.06066 -1.94454,2.2981 -1.06066,1.23744 -0.53033,1.06066 -0.35355,2.47487 0.17677,1.41422 1.94454,-1.23743 2.65165,-2.29809 0.7071,-1.06066 0.7071,-0.35356 1.59099,-0.17678 0.88388,0.17678 0.17677,2.2981 0.17677,3.35876 0,1.06066 0.17678,0.88388 1.06066,1.41421 0.88389,0.53033 0.88389,1.59099 0.35356,3.0052 -0.53033,1.41422 0,1.41422 0.17677,2.47488 0.17678,1.06066 2.12132,3.71231 2.82843,4.41942 0.70711,0.7071 0.53033,0.35355 1.23744,0.7071 0.7071,0.35356 0.35355,0.70711 1.59099,1.59099 z"
     id="western_australia"
     sodipodi:nodetypes="csssssssssssssssssssssssssssssssssssssscsssssssssssssssscsssssssssscssccsscssccssccssssc"
     inkscape:connector-curvature="0"
     transform="matrix(5.1254043,0,0,4.000642,-3998.7141,-2013.9245)" />
  <text
     xml:space="preserve"
     style="font-size:61.01042855px;font-style:normal;font-variant:normal;font-weight:normal;font-stretch:normal;text-align:start;line-height:125%;letter-spacing:0px;word-spacing:0px;writing-mode:lr;text-anchor:start;fill:#800000;fill-opacity:1;stroke:none;display:inline;enable-background:new;font-family:Latin Modern Mono;-inkscape-font-specification:Latin Modern Mono"
     x="-3.5997765"
     y="470.66031"
     id="alberta_text"
     sodipodi:linespacing="125%"
     inkscape:label="alberta"
     transform="scale(0.92815016,1.0774119)"><tspan
       sodipodi:role="line"
       id="tspan7513-9-23"
       x="-3.5997765"
       y="470.66031"
       style="font-size:61.01042855px;font-style:normal;font-variant:normal;font-weight:normal;font-stretch:normal;text-align:start;line-height:125%;writing-mode:lr;text-anchor:start;fill:#800000;font-family:Latin Modern Mono;-inkscape-font-specification:Latin Modern Mono">WESTERN AUSTRALIA</tspan></text>
</svg>
