<?xml version="1.0" encoding="UTF-8" standalone="no"?>
<svg
   xmlns:dc="http://purl.org/dc/elements/1.1/"
   xmlns:cc="http://creativecommons.org/ns#"
   xmlns:rdf="http://www.w3.org/1999/02/22-rdf-syntax-ns#"
   xmlns:svg="http://www.w3.org/2000/svg"
   xmlns="http://www.w3.org/2000/svg"
   xmlns:sodipodi="http://sodipodi.sourceforge.net/DTD/sodipodi-0.dtd"
   xmlns:inkscape="http://www.inkscape.org/namespaces/inkscape"
   id="svg2"
   sodipodi:version="0.32"
   inkscape:version="0.48.5 r10040"
   viewBox="0 0 750 520"
   preserveAspectRatio="xMidYMid meet"
   version="1.2"
   sodipodi:docname="northern_europe.svg"
   inkscape:output_extension="org.inkscape.output.svg.inkscape"
   inkscape:export-filename="/home/kris/worldmap.png"
   inkscape:export-xdpi="90"
   inkscape:export-ydpi="90"
   style="enable-background:new"
   enable-background="new"
   width="100%"
   height="100%">
  <metadata
     id="metadata3188">
    <rdf:RDF>
      <cc:Work
         rdf:about="">
        <dc:format>image/svg+xml</dc:format>
        <dc:type
           rdf:resource="http://purl.org/dc/dcmitype/StillImage" />
        <dc:title></dc:title>
      </cc:Work>
    </rdf:RDF>
  </metadata>
  <defs
     id="defs3186" />
  <sodipodi:namedview
     pagecolor="#ffffff"
     bordercolor="#666666"
     borderopacity="1"
     objecttolerance="10"
     gridtolerance="10"
     guidetolerance="10"
     inkscape:pageopacity="0"
     inkscape:pageshadow="2"
     inkscape:window-width="1278"
     inkscape:window-height="726"
     id="namedview3184"
     showgrid="false"
     inkscape:zoom="0.45384615"
     inkscape:cx="375"
     inkscape:cy="348.13559"
     inkscape:window-x="0"
     inkscape:window-y="24"
     inkscape:window-maximized="1"
     inkscape:current-layer="svg2" />
  <filter
     inkscape:collect="always"
     id="filter12871">
    <feGaussianBlur
       inkscape:collect="always"
       stdDeviation="0.5805759"
       id="feGaussianBlur12873" />
  </filter>
  <path
     style="fill:blue;fill-opacity:1;fill-rule:evenodd;stroke:#000000;stroke-width:1.20000005;stroke-linecap:butt;stroke-linejoin:miter;stroke-miterlimit:4.32165003;stroke-opacity:0.58527132;stroke-dasharray:none;stroke-dashoffset:0;display:inline;filter:url(#filter12871)"
     d="m 521.40286,317.3962 c -1.14904,-0.17677 -1.14904,0.44194 -1.32582,0.7955 -0.17678,0.35355 -0.88388,1.32582 -1.5026,1.94454 -0.61872,0.61872 -0.53033,1.32583 -0.17678,2.20971 0.35355,0.88388 0.35355,1.67938 0.35355,3.18198 0,1.5026 -1.06066,1.32583 -1.06066,1.32583 0,0 -0.88388,0.97227 -1.06066,1.32582 -0.17677,0.35355 0.88389,1.23744 0.88389,1.23744 0,0 1.85615,1.23744 2.20971,1.67938 0.35355,0.44194 0.0884,1.85615 -0.0884,2.56326 -0.17678,0.70711 -1.06066,1.41421 -1.76777,1.59099 -0.70711,0.17678 0,1.94454 1.59099,3.35876 1.59099,1.41421 0.58089,1.73526 0.58089,1.73526 0,0 -0.91421,0.15533 -1.41421,0.53033 -0.5,0.375 -0.125,0.375 -0.625,1 -0.5,0.625 -0.375,0.75 -1.25,1 -0.875,0.25 -0.125,0.75 -1,0.625 -0.875,-0.125 -0.75,0.25 -1.25,-0.25 -0.5,-0.5 -0.125,-1.125 -1,-1.125 -0.875,0 -1.25,0.125 -0.875,-0.625 0.375,-0.75 0.875,-0.75 -0.125,-0.75 -1,0 -0.875,0.25 -2.125,0 -1.25,-0.25 -1.75,-0.125 -2.25,-0.125 l -1.375,2.5 c 0,0 0.125,0.5 0,1.125 -0.125,0.625 -0.625,1.125 -0.625,1.125 0,0 -0.375,0.375 -0.375,1.125 0,0.75 0.25,0.875 -0.5,1.625 -0.75,0.75 -0.75,1 -1.25,1.25 -0.5,0.25 -0.5,0.125 -0.875,0.625 -0.375,0.5 -0.625,0.5 -0.875,1.125 -0.25,0.625 -0.25,0.625 0.125,1.25 0.375,0.625 0.625,1.375 0.625,1.375 0,0 0.375,0.125 0.125,1.25 -0.25,1.125 -0.375,1.875 -0.375,1.875 0,0 0,0.5 0.125,1.5 0.125,1 1,2.125 1,2.125 l 0.625,0.875 c 0,0 0.375,1.5 0.5,2.25 0.125,0.75 1.25,0.5 0.125,1.5 -1.125,1 -2.75,1.625 -3.875,3.5 -1.125,1.875 -0.75,3.375 -1.625,4.375 -0.875,1 -0.125,1.125 -1.25,1.125 -1.125,0 -2.125,-1.25 -2.75,0 -0.625,1.25 -1,2.375 -1.875,2.5 -0.875,0.125 -1,-1.375 -1,0.375 0,1.75 -0.375,2.875 -0.375,2.875 0,0 -0.25,0.875 -1.125,0.75 -0.875,-0.125 -1,-0.25 -1.75,-0.375 -0.75,-0.125 -0.75,0.375 -1.375,-0.375 -0.625,-0.75 -0.75,-1.125 -1,-1.75 -0.25,-0.625 -0.25,-0.875 -1.25,-1 -1,-0.125 -1,0.25 -1.5,-0.625 -0.5,-0.875 -0.75,-1.125 -1.5,-1 -0.75,0.125 -0.75,0.625 -1.75,-0.375 -1,-1 -1,-1.75 -1.5,-1.625 -0.5,0.125 -1.125,1 -1.125,1 0,0 0.125,0.5 -1.375,0.375 -1.5,-0.125 -1.75,-0.375 -2.875,-0.375 -1.125,0 -1.25,0.75 -2.25,0.25 -1,-0.5 -1.125,-0.625 -1.125,-1.25 0,-0.625 0.125,-1.5 -0.375,-2 -0.5,-0.5 0.125,-1.125 -0.625,-1.5 -0.75,-0.375 -0.375,-0.25 -1.25,-0.25 -0.875,0 -0.875,0.125 -1.75,-0.375 -0.875,-0.5 -1.25,0.25 -0.875,-1.125 0.375,-1.375 0.125,-1.25 0.75,-2.25 0.625,-1 0.625,-1 1,-2.125 0.375,-1.125 0.5,-1.375 1.125,-3 0.625,-1.625 0.875,-1.125 0.875,-2.375 0,-1.25 -0.5,-1.25 0.25,-2.125 0.75,-0.875 0.875,-0.875 0.75,-1.875 -0.125,-1 0.25,-0.75 -0.25,-1.5 -0.5,-0.75 -1.75,-1.875 -2.25,-2.375 -0.5,-0.5 -0.375,0.125 -0.625,-1.375 -0.25,-1.5 -0.75,-1.25 -1,-2.125 -0.25,-0.875 -0.25,-0.875 -0.25,-2 0,-1.125 -0.875,-0.75 -0.875,-1.375 0,-0.625 -0.375,-1.125 0.5,-1.625 0.875,-0.5 1,-0.125 2.125,-1.125 1.125,-1 1.125,-0.75 1.375,-1.625 0.25,-0.875 1.125,-1.375 1.125,-1.375 0,0 -0.125,0.125 0.625,0.875 0.75,0.75 0.875,0.75 1,1.25 0.125,0.5 -0.375,0.625 1.125,1 1.5,0.375 1.125,0.5 2.625,0.5 1.5,0 1.875,0.125 2.5,-0.125 0.625,-0.25 1.25,-0.625 1.25,-0.625 0,0 0.5,-0.375 1.375,-0.375 0.875,0 1,-0.125 1.75,0.125 0.75,0.25 0.125,0.375 0.875,0.25 0.75,-0.125 0.875,0.125 1.5,-0.25 0.625,-0.375 1,0.25 1.375,-0.875 0.375,-1.125 0,-1.5 1,-2.25 1,-0.75 1.375,-1 2.375,-1 1,0 -0.625,-1.625 -1.25,-1.75 -0.625,-0.125 -1,0.5 -1,-0.125 0,-0.625 -0.125,-0.75 0.25,-1.75 0.375,-1 1.125,-1.625 1.125,-1.625 0,0 -0.125,-0.5 -0.25,-1.375 -0.125,-0.875 1.625,-1.375 0.5,-2.125 -1.125,-0.75 -1.625,-1.125 -2.375,-1.125 -0.75,0 -0.625,1.25 -1.25,-0.25 -0.625,-1.5 -0.125,-1.75 -0.75,-2.5 -0.625,-0.75 -0.875,-0.5 -1.5,-1.375 -0.625,-0.875 0.25,-0.75 -1.125,-1.75 -1.375,-1 -2.25,-1.25 -2.875,-1.25 -0.625,0 -0.875,0.875 -0.75,-0.375 0.125,-1.25 0.125,-1.625 1,-2.375 0.875,-0.75 3.125,-1.375 4,-1.5 0.875,-0.125 -0.5,-0.5 1.375,-0.125 1.875,0.375 1.25,0.375 2.125,0.5 0.875,0.125 2.5,0.625 2.5,0.625 0,0 0.25,-1.875 0.75,-2.5 0.5,-0.625 0.625,-0.625 1,-1.625 0.375,-1 0.5,-1.125 1.75,-1.5 1.25,-0.375 2.125,0.625 2.125,0.625 0,0 -1.625,1.625 -0.375,1 1.25,-0.625 -0.375,-2.625 2.375,-2.25 2.75,0.375 3.75,2 4.125,0.125 0.375,-1.875 0,-1.875 0.625,-2.875 0.625,-1 0.625,-1 1.75,-1.625 1.125,-0.625 0.875,-2.5 2.25,-2.75 1.375,-0.25 0.875,0 2.125,-0.25 1.25,-0.25 1.125,0 1.875,-0.875 0,0 1.1875,0.3125 1.125,0.75 -0.0625,0.4375 1,3.1875 1,3.1875 0,0 1.3125,0.8125 2.1875,2.0625 0.875,1.25 1.3125,2.375 1.75,2.5 0.4375,0.125 0.6875,0.125 0.8125,0.9375 0.125,0.8125 0.1875,0.9375 0.5625,1.4375 0.375,0.5 0.9375,0.4375 1.0625,1.1875 0.125,0.75 0.3125,1.5625 0.625,1.9375 0.3125,0.375 1.25,1.0625 1.25,1.0625 0,0 0.8125,0.75 0.90286,0.5837 z"
     id="alaska"
     sodipodi:nodetypes="csssssssssssssssssssssssssssssssssssssscsssssssssssssssscsssssssssscssccsscssccssccssssc"
     inkscape:connector-curvature="0"
     transform="matrix(5.3517187,0,0,5.2265066,-2460.2641,-1540.9315)" />
</svg>
