<?xml version="1.0" encoding="UTF-8" standalone="no"?>
<svg
   xmlns:dc="http://purl.org/dc/elements/1.1/"
   xmlns:cc="http://creativecommons.org/ns#"
   xmlns:rdf="http://www.w3.org/1999/02/22-rdf-syntax-ns#"
   xmlns:svg="http://www.w3.org/2000/svg"
   xmlns="http://www.w3.org/2000/svg"
   xmlns:sodipodi="http://sodipodi.sourceforge.net/DTD/sodipodi-0.dtd"
   xmlns:inkscape="http://www.inkscape.org/namespaces/inkscape"
   id="svg2"
   sodipodi:version="0.32"
   inkscape:version="0.48.5 r10040"
   viewBox="0 0 750 520"
   preserveAspectRatio="xMidYMid meet"
   version="1.2"
   sodipodi:docname="yakutsk.svg"
   inkscape:output_extension="org.inkscape.output.svg.inkscape"
   inkscape:export-filename="/home/kris/worldmap.png"
   inkscape:export-xdpi="90"
   inkscape:export-ydpi="90"
   style="enable-background:new"
   enable-background="new"
   width="100%"
   height="100%">
  <metadata
     id="metadata3188">
    <rdf:RDF>
      <cc:Work
         rdf:about="">
        <dc:format>image/svg+xml</dc:format>
        <dc:type
           rdf:resource="http://purl.org/dc/dcmitype/StillImage" />
        <dc:title></dc:title>
      </cc:Work>
    </rdf:RDF>
  </metadata>
  <defs
     id="defs3186" />
  <sodipodi:namedview
     pagecolor="#ffffff"
     bordercolor="#666666"
     borderopacity="1"
     objecttolerance="10"
     gridtolerance="10"
     guidetolerance="10"
     inkscape:pageopacity="0"
     inkscape:pageshadow="2"
     inkscape:window-width="1278"
     inkscape:window-height="726"
     id="namedview3184"
     showgrid="false"
     inkscape:zoom="0.45384615"
     inkscape:cx="969.84328"
     inkscape:cy="348.13559"
     inkscape:window-x="0"
     inkscape:window-y="24"
     inkscape:window-maximized="1"
     inkscape:current-layer="svg2" />
  <filter
     inkscape:collect="always"
     id="filter12871">
    <feGaussianBlur
       inkscape:collect="always"
       stdDeviation="0.5805759"
       id="feGaussianBlur12873" />
  </filter>
  <path
     style="fill:#a52a2a;fill-opacity:1;fill-rule:evenodd;stroke:#000000;stroke-width:1.20000005;stroke-linecap:butt;stroke-linejoin:miter;stroke-miterlimit:4.32165003;stroke-opacity:0.58527132;stroke-dasharray:none;stroke-dashoffset:0;display:inline;filter:url(#filter12871)"
     d="m 810.125,170.375 c -0.5,-1.125 0.75,-1.25 -1.125,-2.25 -1.875,-1 -2.625,-0.75 -3.75,-1.125 -1.125,-0.375 -0.875,-0.625 -0.375,-2 0.5,-1.375 2.125,-1.5 -0.125,-2 -2.25,-0.5 -2.125,-1.375 -3.75,-1.375 -1.625,0 -1.25,0 -2.125,0.375 -0.875,0.375 -1,0.375 -1.375,0.875 -0.375,0.5 0.375,1.125 -0.5,0.875 -0.875,-0.25 -0.375,0.125 -1.25,-0.875 -0.875,-1 -0.625,-1.375 -1.75,-1.25 -1.125,0.125 -0.25,-0.125 -1.875,0.25 -1.625,0.375 -2.125,0.375 -3.25,0.5 -1.125,0.125 -3,1.625 -3,1.625 0,0 0.125,0.25 -1.25,0.375 -1.375,0.125 -0.5,-0.625 -2.375,0.75 -1.875,1.375 -1,1.5 -2.5,1.375 -1.5,-0.125 -0.75,-1 -2.375,-0.25 -1.625,0.75 -1.75,0.375 -1.75,1.375 0,1 -1,1.625 -1,1.625 0,0 0,-0.375 -0.375,-1.625 -0.375,-1.25 -0.875,-0.75 -0.75,-2 0.125,-1.25 -5.25,-2 -6,-3.75 -0.75,-1.75 -0.625,-1.5 -0.875,-3.125 -0.25,-1.625 -3.25,-2.375 -3.75,-2.25 -0.5,0.125 -1.875,1.625 -2.5,2.375 -0.625,0.75 -0.875,1.375 -1.875,2.125 -0.86346,0.8506 -1.66934,1.3739 -2.4375,1.9375 l 0.3125,2.5625 c 0,0.5 -0.125,2 1,3.125 1.125,1.125 1.5,0.625 2,1.125 0.5,0.5 -0.125,3.75 -0.25,4.5 C 759,175 758.5,175 758,175.875 c -0.5,0.875 -0.125,1.375 -0.5,2.875 -0.375,1.5 -0.875,0.875 -1.25,2.375 -0.375,1.5 0,1.375 0.5,2.375 0.5,1 0.5,1.875 0.5,3.375 0,1.5 -0.25,0.625 -0.875,0.75 -0.625,0.125 -1.25,0.625 -2.5,0.75 -1.25,0.125 -2.625,0.625 -3.25,-0.125 -0.625,-0.75 -1.25,-0.875 -3.5,-0.625 -2.25,0.25 -0.625,1 -0.875,2 -0.25,1 -1,0.875 -2.5,1.125 -1.5,0.25 -1,0.375 -1.125,2 -0.125,1.625 1.75,2.625 2.75,3 1,0.375 1.25,0.625 1.625,1.25 0.375,0.625 1.5,0.375 3,1.75 1.5,1.375 0.25,1.625 -0.75,2.625 -1,1 0.625,4.5 1.375,5 0.75,0.5 1.125,1.25 1.5,4.25 0.375,3 1.5,3.25 1.5,3.25 0,0 0.875,0.5 1,3.625 0.125,3.125 0.875,5.75 0.875,5.75 0,0 4.875,-1.5 6.125,-2.25 1.25,-0.75 1.125,-0.875 1.5,-2.625 0.375,-1.75 0.5,-4.625 1.875,-4.875 1.375,-0.25 1.125,1.75 1.125,1.75 0.125,0.75 1.5,0.5 3,0.75 1.058,0.17633 0.62351,-0.7667 0.40718,-1.68867 -0.0904,-0.38517 -0.14268,-0.76666 -0.0322,-1.06133 0.375,-1 12.29494,0.11312 12.29494,0.11312 0.44194,-1.06066 1.23743,-1.76777 2.56326,-3.00521 1.32582,-1.23743 0.26516,-3.44714 0.35355,-3.88908 0.0884,-0.44194 1.76777,-1.85616 2.56326,-4.86136 0.7955,-3.00521 1.76777,-0.7955 1.76777,-0.7955 0,0 2.03293,-1.76776 2.74004,-3.0052 0.70711,-1.23744 4.59619,-1.06066 5.03813,-0.88388 0.44195,0.17677 0.17678,1.94454 0.7955,3.18198 0.61872,1.23743 0.26516,0.53033 1.32583,0.44194 1.06066,-0.0884 1.76776,-0.44194 2.74003,-0.44194 0.97228,0 0.53033,1.41421 0.97228,1.59099 0.44194,0.17677 2.03293,0 2.47487,-0.0884 0.44194,-0.0884 1.41421,-0.7955 2.03293,-1.32583 0.61872,-0.53033 0.17678,-2.29809 0.26517,-3.09359 0.0884,-0.79549 0.97227,-1.06066 1.23743,-1.67938 0.26517,-0.61872 0,-2.2981 -0.0884,-3.09359 -0.0884,-0.7955 -0.7071,-1.76777 -1.32582,-1.94454 -0.61872,-0.17678 -3.09359,-0.35356 -4.06586,-0.44195 -0.97228,-0.0884 -0.97228,-4.77297 -0.53033,-7.77817 0.44194,-3.0052 0.17677,-2.2981 0.61871,-2.82843 0.44195,-0.53033 1.94455,-0.79549 2.47488,-0.79549 0.53033,0 1.23743,-1.14905 1.32582,-2.03293 0.0884,-0.88389 0.7955,-0.70711 1.14905,-1.59099 0.35355,-0.88389 1.5026,-0.44195 2.74004,-0.61872 1.23744,-0.17678 0.44194,-1.50261 0.44194,-2.91682 l -1.28,-1.09203 z"
     id="yakutsk"
     sodipodi:nodetypes="csssssssssssssssssssssssssssssssssssssscsssssssssssssssscsssssssssscssccsscssccssccssssc"
     inkscape:connector-curvature="0"
     transform="matrix(5.3671998,0,0,3.9787021,-3957.7015,-598.56626)" />
     <text
          xml:space="preserve"
          style="font-size:107.87071991px;font-style:normal;font-variant:normal;font-weight:normal;font-stretch:normal;text-align:start;line-height:125%;letter-spacing:0px;word-spacing:0px;writing-mode:lr-tb;text-anchor:start;fill:#800000;fill-opacity:1;stroke:none;display:inline;enable-background:new;font-family:Latin Modern Mono;-inkscape-font-specification:Latin Modern Mono Bold"
          x="40.32494"
          y="440.29465"
          id="alberta_text"
          sodipodi:linespacing="125%"
          inkscape:label="alberta"
          transform="scale(0.94301946,1.0604235)"><tspan
            sodipodi:role="line"
            id="tspan7513-9-23"
            x="40.32494"
            y="440.29465"
            style="font-size:107.87071991px;font-style:normal;font-variant:normal;font-weight:bold;font-stretch:normal;text-align:start;line-height:125%;writing-mode:lr-tb;text-anchor:start;fill:#800000;font-family:Latin Modern Mono;-inkscape-font-specification:Latin Modern Mono Bold">YAKUTSK</tspan></text>

</svg>
